<?xml version="1.0" encoding="UTF-8" standalone="no"?>
<svg
   xmlns:dc="http://purl.org/dc/elements/1.1/"
   xmlns:cc="http://creativecommons.org/ns#"
   xmlns:rdf="http://www.w3.org/1999/02/22-rdf-syntax-ns#"
   xmlns:svg="http://www.w3.org/2000/svg"
   xmlns="http://www.w3.org/2000/svg"
   id="SVGRoot"
   version="1.1"
   viewBox="0 0 48 48"
   height="48px"
   width="48px">
  <defs
     id="defs3729" />
  <metadata
     id="metadata3732">
    <rdf:RDF>
      <cc:Work
         rdf:about="">
        <dc:format>image/svg+xml</dc:format>
        <dc:type
           rdf:resource="http://purl.org/dc/dcmitype/StillImage" />
        <dc:title></dc:title>
      </cc:Work>
    </rdf:RDF>
  </metadata>
  <g
     id="layer1">
    <circle
       r="4"
       cy="25.640625"
       cx="13.03125"
       id="path3742" />
    <circle
       id="circle3748"
       cx="34.6875"
       cy="25.640625"
       r="4" />
    <rect
       style="stroke-width:0.82092535"
       rx="0"
       transform="matrix(0.87073449,-0.49175344,0.48969148,0.87189578,0,0)"
       ry="0.68013406"
       y="27.882238"
       x="-1.4159"
       height="1.3602681"
       width="23.160685"
       id="rect3754" />
    <path
       id="path3761"
       d="m 12.108096,29.472667 c -1.948601,-0.473866 -3.295048,-2.477154 -2.9726444,-4.422798 0.2176445,-1.313442 0.9734704,-2.338484 2.1548194,-2.922338 0.689556,-0.340797 0.748688,-0.353052 1.703588,-0.353052 1.180396,0 1.622993,0.141217 2.483186,0.792295 l 0.582011,0.440523 8.008895,-4.527634 c 5.08184,-2.872894 8.10312,-4.52867 8.266708,-4.530471 0.467929,-0.0052 0.790074,0.54108 0.546256,0.926233 -0.04603,0.07271 -3.684053,2.166051 -8.084502,4.651874 -7.203533,4.069291 -7.999656,4.541913 -7.989171,4.742804 0.0064,0.12272 0.05216,0.486798 0.101671,0.809064 0.420633,2.737727 -2.104998,5.049076 -4.800817,4.3935 z"
       style="fill:#008000;stroke-width:0.09375" />
    <path
       id="path3763"
       d="m 33.764346,29.472667 c -1.948601,-0.473866 -3.295048,-2.477154 -2.972644,-4.422798 0.217711,-1.313845 0.97356,-2.338686 2.155307,-2.922338 0.696363,-0.343926 0.741665,-0.353052 1.752687,-0.353052 0.986442,0 1.069218,0.01545 1.671214,0.31193 2.411534,1.187667 2.998238,4.254562 1.191984,6.230892 -0.957011,1.047123 -2.417257,1.491271 -3.798548,1.155366 z"
       style="fill:#000000;stroke-width:0.09375" />
    <path
       id="path3765"
       d="M 12.463713,29.506431 C 11.243627,29.33182 10.094363,28.466381 9.5121919,27.283823 9.2176958,26.685616 9.2018465,26.600555 9.2018465,25.618229 c 0,-0.977379 0.01693,-1.069583 0.3031526,-1.650983 0.381508,-0.774953 1.1285299,-1.495467 1.9481339,-1.879006 0.59421,-0.278064 0.644678,-0.285414 1.711737,-0.249276 1.205878,0.04084 1.534314,0.156296 2.464423,0.86633 l 0.427447,0.326308 4.822553,-2.724222 c 5.677272,-3.207046 9.457859,-5.31495 10.645361,-5.935426 0.914065,-0.477604 1.116936,-0.484342 1.352112,-0.04491 0.25202,0.470903 0.6645,0.207263 -8.20617,5.245064 -5.817283,3.303732 -7.786044,4.449064 -7.863714,4.574736 -0.02279,0.03688 0.0044,0.414591 0.06053,0.839367 0.183919,1.393048 -0.193977,2.525054 -1.146114,3.433237 -0.940302,0.896897 -2.034534,1.262018 -3.257583,1.086983 z"
       style="fill:#000000;stroke-width:0.09375" />
    <path
       id="path3767"
       d="m 33.717471,29.468263 c -1.527183,-0.425623 -2.656206,-1.669496 -2.921948,-3.219184 -0.289084,-1.685808 0.576285,-3.343573 2.151486,-4.121548 0.696084,-0.343788 0.742013,-0.353052 1.750464,-0.353052 0.970174,0 1.075561,0.01892 1.667569,0.299357 2.408172,1.140764 3.007314,4.263625 1.197852,6.243465 -0.958534,1.048789 -2.527279,1.518326 -3.845423,1.150962 z"
       style="fill:#000000;stroke-width:0.09375" />
  </g>
</svg>
