<?xml version="1.0" encoding="UTF-8"?>
<svg version="1.1" xmlns="http://www.w3.org/2000/svg" width="360" height="360">
<path d="M0 0 C118.8 0 237.6 0 360 0 C360 118.8 360 237.6 360 360 C241.2 360 122.4 360 0 360 C0 241.2 0 122.4 0 0 Z " fill="#020202" transform="translate(0,0)"/>
<path d="M0 0 C0.66 0.33 1.32 0.66 2 1 C1.67 4.63 1.34 8.26 1 12 C-3.95 12 -8.9 12 -14 12 C-14 16.95 -14 21.9 -14 27 C-18.95 27 -23.9 27 -29 27 C-29 31.95 -29 36.9 -29 42 C-24.05 42 -19.1 42 -14 42 C-14 46.95 -14 51.9 -14 57 C-9.05 57 -4.1 57 1 57 C1 61.95 1 66.9 1 72 C5.95 72 10.9 72 16 72 C16 76.95 16 81.9 16 87 C16.66 87 17.32 87 18 87 C18.33 83.37 18.66 79.74 19 76 C56.29 76 93.58 76 132 76 C132 113.29 132 150.58 132 189 C128.37 189.33 124.74 189.66 121 190 C121 190.66 121 191.32 121 192 C125.95 192 130.9 192 136 192 C136 196.95 136 201.9 136 207 C140.95 207 145.9 207 151 207 C151 211.95 151 216.9 151 222 C155.95 222 160.9 222 166 222 C166 226.95 166 231.9 166 237 C170.95 237 175.9 237 181 237 C181 232.05 181 227.1 181 222 C185.95 222 190.9 222 196 222 C196 217.05 196 212.1 196 207 C191.05 207 186.1 207 181 207 C181 202.05 181 197.1 181 192 C176.05 192 171.1 192 166 192 C166 187.05 166 182.1 166 177 C161.05 177 156.1 177 151 177 C151 172.05 151 167.1 151 162 C146.05 162 141.1 162 136 162 C136 157.05 136 152.1 136 147 C137.98 147 139.96 147 142 147 C142.33 119.61 142.66 92.22 143 64 C113.63 64 84.26 64 54 64 C54 56.74 54 49.48 54 42 C90.96 42 127.92 42 166 42 C166.33 76.65 166.66 111.3 167 147 C171.62 147 176.24 147 181 147 C181 151.95 181 156.9 181 162 C185.95 162 190.9 162 196 162 C196 157.05 196 152.1 196 147 C200.95 147 205.9 147 211 147 C211 142.05 211 137.1 211 132 C214.6815625 131.9690625 214.6815625 131.9690625 218.4375 131.9375 C219.21150146 131.928396 219.98550293 131.91929199 220.78295898 131.90991211 C222.52221717 131.90275087 224.26145304 131.94975298 226 132 C228.41709292 134.41709292 227.31197296 141.22053798 227.31469727 144.60351562 C226.76833448 181.61393676 206.48254719 217.04643121 180.84985352 242.58032227 C174.91240068 248.31134672 168.47438119 253.25261612 161.64794922 257.87646484 C160.5313124 258.63776301 159.42887441 259.42023687 158.34033203 260.22119141 C156.75390625 261.36328125 156.75390625 261.36328125 154 263 C153.01 262.67 152.02 262.34 151 262 C151 258.7 151 255.4 151 252 C146.05 252 141.1 252 136 252 C136 256.95 136 261.9 136 267 C131.05 267 126.1 267 121 267 C121 262.05 121 257.1 121 252 C116.05 252 111.1 252 106 252 C106 256.95 106 261.9 106 267 C101.05 267 96.1 267 91 267 C91 257.1 91 247.2 91 237 C86.05 237 81.1 237 76 237 C76 232.05 76 227.1 76 222 C46.3 222 16.6 222 -14 222 C-14.33 197.25 -14.66 172.5 -15 147 C-19.62 147 -24.24 147 -29 147 C-29 132.15 -29 117.3 -29 102 C-24.05 102 -19.1 102 -14 102 C-14 97.05 -14 92.1 -14 87 C-18.95 87 -23.9 87 -29 87 C-29 82.05 -29 77.1 -29 72 C-33.95 72 -38.9 72 -44 72 C-44 67.05 -44 62.1 -44 57 C-49.94 57.495 -49.94 57.495 -56 58 C-47.23747296 36.0936824 -27.12025602 18.01366708 -8 5 C-7.1234375 4.39671875 -6.246875 3.7934375 -5.34375 3.171875 C-3.1875 1.75 -3.1875 1.75 0 0 Z " fill="#F4F4F4" transform="translate(104,48)"/>
<path d="M0 0 C31.4390227 25.586922 51.58662726 61.86245403 56.171875 102.20458984 C56.87032632 110.6392774 56.63686507 119.14501026 56.4765625 127.59912109 C56.1465625 127.59912109 55.8165625 127.59912109 55.4765625 127.59912109 C55.1465625 124.95912109 54.8165625 122.31912109 54.4765625 119.59912109 C49.5265625 119.26912109 44.5765625 118.93912109 39.4765625 118.59912109 C39.4765625 123.54912109 39.4765625 128.49912109 39.4765625 133.59912109 C34.5265625 133.59912109 29.5765625 133.59912109 24.4765625 133.59912109 C24.4765625 138.54912109 24.4765625 143.49912109 24.4765625 148.59912109 C19.5265625 148.59912109 14.5765625 148.59912109 9.4765625 148.59912109 C9.4765625 143.64912109 9.4765625 138.69912109 9.4765625 133.59912109 C4.8565625 133.59912109 0.2365625 133.59912109 -4.5234375 133.59912109 C-4.5234375 135.57912109 -4.5234375 137.55912109 -4.5234375 139.59912109 C-4.8534375 139.59912109 -5.1834375 139.59912109 -5.5234375 139.59912109 C-5.5234375 102.96912109 -5.5234375 66.33912109 -5.5234375 28.59912109 C-42.4834375 28.59912109 -79.4434375 28.59912109 -117.5234375 28.59912109 C-117.5234375 35.85912109 -117.5234375 43.11912109 -117.5234375 50.59912109 C-88.1534375 50.59912109 -58.7834375 50.59912109 -28.5234375 50.59912109 C-28.5234375 80.62912109 -28.5234375 110.65912109 -28.5234375 141.59912109 C-28.8534375 141.59912109 -29.1834375 141.59912109 -29.5234375 141.59912109 C-29.5234375 138.95912109 -29.5234375 136.31912109 -29.5234375 133.59912109 C-31.5034375 133.59912109 -33.4834375 133.59912109 -35.5234375 133.59912109 C-35.5234375 138.54912109 -35.5234375 143.49912109 -35.5234375 148.59912109 C-30.5734375 148.59912109 -25.6234375 148.59912109 -20.5234375 148.59912109 C-20.5234375 153.54912109 -20.5234375 158.49912109 -20.5234375 163.59912109 C-15.5734375 163.59912109 -10.6234375 163.59912109 -5.5234375 163.59912109 C-5.5234375 168.54912109 -5.5234375 173.49912109 -5.5234375 178.59912109 C-0.5734375 178.59912109 4.3765625 178.59912109 9.4765625 178.59912109 C9.4765625 183.54912109 9.4765625 188.49912109 9.4765625 193.59912109 C14.4265625 193.59912109 19.3765625 193.59912109 24.4765625 193.59912109 C24.4765625 198.54912109 24.4765625 203.49912109 24.4765625 208.59912109 C19.5265625 208.59912109 14.5765625 208.59912109 9.4765625 208.59912109 C9.4765625 213.54912109 9.4765625 218.49912109 9.4765625 223.59912109 C4.5265625 223.59912109 -0.4234375 223.59912109 -5.5234375 223.59912109 C-5.5234375 218.64912109 -5.5234375 213.69912109 -5.5234375 208.59912109 C-10.4734375 208.59912109 -15.4234375 208.59912109 -20.5234375 208.59912109 C-20.5234375 203.64912109 -20.5234375 198.69912109 -20.5234375 193.59912109 C-25.4734375 193.59912109 -30.4234375 193.59912109 -35.5234375 193.59912109 C-35.5234375 188.64912109 -35.5234375 183.69912109 -35.5234375 178.59912109 C-40.4734375 178.59912109 -45.4234375 178.59912109 -50.5234375 178.59912109 C-50.5234375 177.93912109 -50.5234375 177.27912109 -50.5234375 176.59912109 C-53.1634375 176.59912109 -55.8034375 176.59912109 -58.5234375 176.59912109 C-58.5234375 176.26912109 -58.5234375 175.93912109 -58.5234375 175.59912109 C-52.2534375 175.59912109 -45.9834375 175.59912109 -39.5234375 175.59912109 C-39.5234375 138.30912109 -39.5234375 101.01912109 -39.5234375 62.59912109 C-76.8134375 62.59912109 -114.1034375 62.59912109 -152.5234375 62.59912109 C-152.5234375 69.85912109 -152.5234375 77.11912109 -152.5234375 84.59912109 C-152.8534375 84.59912109 -153.1834375 84.59912109 -153.5234375 84.59912109 C-153.5234375 80.96912109 -153.5234375 77.33912109 -153.5234375 73.59912109 C-154.1834375 73.59912109 -154.8434375 73.59912109 -155.5234375 73.59912109 C-155.5234375 68.64912109 -155.5234375 63.69912109 -155.5234375 58.59912109 C-160.4734375 58.59912109 -165.4234375 58.59912109 -170.5234375 58.59912109 C-170.5234375 53.64912109 -170.5234375 48.69912109 -170.5234375 43.59912109 C-175.4734375 43.59912109 -180.4234375 43.59912109 -185.5234375 43.59912109 C-185.5234375 38.64912109 -185.5234375 33.69912109 -185.5234375 28.59912109 C-190.4734375 28.59912109 -195.4234375 28.59912109 -200.5234375 28.59912109 C-200.5234375 23.64912109 -200.5234375 18.69912109 -200.5234375 13.59912109 C-195.5734375 13.59912109 -190.6234375 13.59912109 -185.5234375 13.59912109 C-185.5234375 8.64912109 -185.5234375 3.69912109 -185.5234375 -1.40087891 C-180.5734375 -1.40087891 -175.6234375 -1.40087891 -170.5234375 -1.40087891 C-170.6471875 -3.99962891 -170.6471875 -3.99962891 -170.7734375 -6.65087891 C-170.92975385 -9.93352232 -170.97562293 -11.72703395 -169.12890625 -14.47900391 C-165.25001644 -17.34019399 -161.02445381 -19.06431863 -156.5859375 -20.90087891 C-155.63372314 -21.29815186 -154.68150879 -21.6954248 -153.70043945 -22.10473633 C-102.12425024 -43.34456946 -43.6680299 -34.49437715 0 0 Z " fill="#FAFAFA" transform="translate(275.5234375,61.40087890625)"/>
<path d="M0 0 C0 4.95 0 9.9 0 15 C4.95 15 9.9 15 15 15 C15 19.95 15 24.9 15 30 C19.95 30 24.9 30 30 30 C30 34.95 30 39.9 30 45 C25.05 45 20.1 45 15 45 C15 59.85 15 74.7 15 90 C19.95 89.67 24.9 89.34 30 89 C30 114.08 30 139.16 30 165 C59.7 165 89.4 165 120 165 C120 169.95 120 174.9 120 180 C124.95 180 129.9 180 135 180 C135 189.9 135 199.8 135 210 C139.95 210 144.9 210 150 210 C150 205.05 150 200.1 150 195 C154.95 195 159.9 195 165 195 C165 199.95 165 204.9 165 210 C169.95 210 174.9 210 180 210 C180 205.05 180 200.1 180 195 C184.95 195 189.9 195 195 195 C195.33 198.96 195.66 202.92 196 207 C158.34188674 227.24912515 116.60053479 232.93656395 75.29882812 220.70751953 C37.60100311 209.10510907 4.87195504 182.4618972 -14.125 147.83203125 C-18.00623724 140.14561914 -21.02141979 132.0681589 -24 124 C-24.61875 122.37191406 -24.61875 122.37191406 -25.25 120.7109375 C-37.59972997 84.91601703 -33.97915779 43.78352443 -17.75292969 9.90234375 C-12.95290262 0.20549714 -10.91928132 -0.12696839 0 0 Z " fill="#FCFCFC" transform="translate(60,105)"/>
<path d="M0 0 C36.96 0 73.92 0 112 0 C112 36.96 112 73.92 112 112 C75.04 112 38.08 112 0 112 C0 75.04 0 38.08 0 0 Z " fill="#000000" transform="translate(90,158)"/>
<path d="M0 0 C0.33 0 0.66 0 1 0 C1 54.78 1 109.56 1 166 C-53.78 166 -108.56 166 -165 166 C-165 165.67 -165 165.34 -165 165 C-163.97003906 164.90203125 -162.94007813 164.8040625 -161.87890625 164.703125 C-127.83428895 161.23042059 -94.6362602 148.74313505 -68 127 C-67.47212891 126.57219238 -66.94425781 126.14438477 -66.40039062 125.70361328 C-44.55105263 107.92060871 -27.79648579 86.58449594 -16 61 C-15.55140625 60.04222656 -15.1028125 59.08445313 -14.640625 58.09765625 C-6.53559415 39.75607671 -1.23039813 20.02579026 0 0 Z " fill="#F9F9F9" transform="translate(359,194)"/>
<path d="M0 0 C0.33 0 0.66 0 1 0 C1.09796875 1.15113281 1.1959375 2.30226562 1.296875 3.48828125 C3.6505481 29.33205082 10.36559962 53.21870866 23 76 C23.34643555 76.6295459 23.69287109 77.2590918 24.04980469 77.90771484 C47.82798554 120.60184104 88.36099948 149.71562646 134.88671875 163.05029297 C145.08052887 165.76445205 155.52443235 166.93849115 166 168 C166 168.33 166 168.66 166 169 C111.22 169 56.44 169 0 169 C0 113.23 0 57.46 0 0 Z " fill="#FCFCFC" transform="translate(0,191)"/>
<path d="M0 0 C55.77 0 111.54 0 169 0 C169 54.78 169 109.56 169 166 C168.67 166 168.34 166 168 166 C167.94054199 165.41323486 167.88108398 164.82646973 167.81982422 164.22192383 C163.81178662 126.20461693 149.59408748 90.63536022 124 62 C122.77032277 60.56293673 121.54108217 59.12549958 120.3125 57.6875 C105.17500872 40.6311718 86.35098788 27.49782616 65.76611328 17.83447266 C64.23875724 17.11281065 62.72534338 16.36177782 61.21484375 15.60546875 C42.48193874 6.48512087 20.75698648 1.77020358 0 1 C0 0.67 0 0.34 0 0 Z " fill="#FDFDFD" transform="translate(191,0)"/>
<path d="M0 0 C54.78 0 109.56 0 166 0 C166 0.33 166 0.66 166 1 C165.4330542 1.06469482 164.8661084 1.12938965 164.28198242 1.19604492 C120.65611758 6.30965117 83.69693887 23.57797268 52 54 C51.44602539 54.52916016 50.89205078 55.05832031 50.32128906 55.60351562 C46.0217599 59.7915843 42.2490647 64.21951962 38.625 69 C38.06337158 69.73984131 37.50174316 70.47968262 36.9230957 71.24194336 C16.29904933 98.83401112 3.72543348 131.65953816 1 166 C0.67 166 0.34 166 0 166 C0 111.22 0 56.44 0 0 Z " fill="#F7F7F7" transform="translate(0,0)"/>
<path d="M0 0 C36.96 0 73.92 0 112 0 C112 36.96 112 73.92 112 112 C104.74 112 97.48 112 90 112 C89.67 82.63 89.34 53.26 89 23 C59.63 22.67 30.26 22.34 0 22 C0 14.74 0 7.48 0 0 Z " fill="#000000" transform="translate(158,90)"/>
<path d="M0 0 C36.96 0 73.92 0 112 0 C112 36.96 112 73.92 112 112 C104.74 112 97.48 112 90 112 C90 82.3 90 52.6 90 22 C60.3 22 30.6 22 0 22 C0 14.74 0 7.48 0 0 Z " fill="#000000" transform="translate(124,124)"/>
<path d="M0 0 C4.95 0 9.9 0 15 0 C15 4.95 15 9.9 15 15 C19.95 15 24.9 15 30 15 C30 10.05 30 5.1 30 0 C34.95 0 39.9 0 45 0 C45 4.95 45 9.9 45 15 C49.95 15 54.9 15 60 15 C60 19.95 60 24.9 60 30 C43.2776732 34.1805817 17.57066195 22.30871876 2.94140625 14.39453125 C1 13 1 13 0 10 C-0.13143471 6.66155835 -0.04340976 3.34255132 0 0 Z " fill="#EDEDED" transform="translate(105,300)"/>
<path d="M0 0 C7.59426529 -1.02394588 7.59426529 -1.02394588 12 0 C15.5267908 3.35045126 17.21106618 7.55362339 19 12 C19.29745117 12.71784668 19.59490234 13.43569336 19.90136719 14.17529297 C25.64168296 28.23816688 31.13890518 43.63708698 31 59 C30 60 30 60 26.62109375 60.09765625 C25.22652508 60.09191424 23.83198403 60.07890228 22.4375 60.0625 C19.983125 60.041875 17.52875 60.02125 15 60 C15 55.05 15 50.1 15 45 C10.05 45 5.1 45 0 45 C0 40.05 0 35.1 0 30 C4.95 30 9.9 30 15 30 C15 25.05 15 20.1 15 15 C10.05 15 5.1 15 0 15 C0 10.05 0 5.1 0 0 Z " fill="#EDEDED" transform="translate(300,105)"/>
<path d="M0 0 C4.95 0 9.9 0 15 0 C15 2.31 15 4.62 15 7 C52.29 7 89.58 7 128 7 C128 44.29 128 81.58 128 120 C127.67 120 127.34 120 127 120 C127 83.04 127 46.08 127 8 C90.04 8 53.08 8 15 8 C15 19.88 15 31.76 15 44 C14.505 44.495 14.505 44.495 14 45 C9.38 45 4.76 45 0 45 C0 30.15 0 15.3 0 0 Z " fill="#C0C0C0" transform="translate(75,150)"/>
<path d="M0 0 C4.95 0 9.9 0 15 0 C15 4.62 15 9.24 15 14 C13.02 14.33 11.04 14.66 9 15 C8.67 22.26 8.34 29.52 8 37 C37.37 37 66.74 37 97 37 C97 37.33 97 37.66 97 38 C69.94 38.33 42.88 38.66 15 39 C15 40.98 15 42.96 15 45 C10.05 45 5.1 45 0 45 C0 40.05 0 35.1 0 30 C-4.95 30 -9.9 30 -15 30 C-15 25.05 -15 20.1 -15 15 C-10.05 15 -5.1 15 0 15 C0 10.05 0 5.1 0 0 Z " fill="#EEEEEE" transform="translate(150,75)"/>
<path d="M0 0 C4.95 0 9.9 0 15 0 C15 4.95 15 9.9 15 15 C19.95 15 24.9 15 30 15 C30 16.98 30 18.96 30 21 C34.95 21 39.9 21 45 21 C45 19.02 45 17.04 45 15 C49.95 15 54.9 15 60 15 C60 16.98 60 18.96 60 21 C64.95 21 69.9 21 75 21 C75 19.02 75 17.04 75 15 C79.95 15 84.9 15 90 15 C90 16.98 90 18.96 90 21 C92.64 21 95.28 21 98 21 C98 21.33 98 21.66 98 22 C60.71 22 23.42 22 -15 22 C-15 19.69 -15 17.38 -15 15 C-10.05 15 -5.1 15 0 15 C0 10.05 0 5.1 0 0 Z " fill="#FFFFFF" transform="translate(105,135)"/>
<path d="M0 0 C4.95 0 9.9 0 15 0 C15 4.62 15 9.24 15 14 C19.95 14 24.9 14 30 14 C30 9.38 30 4.76 30 0 C34.95 0 39.9 0 45 0 C45 4.62 45 9.24 45 14 C49.95 14 54.9 14 60 14 C60 9.38 60 4.76 60 0 C64.95 0 69.9 0 75 0 C75 4.62 75 9.24 75 14 C79.62 14 84.24 14 89 14 C89 14.33 89 14.66 89 15 C57.65 15 26.3 15 -6 15 C-6 14.67 -6 14.34 -6 14 C-4.02 14 -2.04 14 0 14 C0 9.38 0 4.76 0 0 Z " fill="#FFFFFF" transform="translate(165,75)"/>
<path d="M0 0 C0.33 0 0.66 0 1 0 C1 7.26 1 14.52 1 22 C30.7 22 60.4 22 91 22 C91 51.7 91 81.4 91 112 C90.67 112 90.34 112 90 112 C90 82.63 90 53.26 90 23 C73.665 23.495 73.665 23.495 57 24 C57 26.64 57 29.28 57 32 C52.05 32 47.1 32 42 32 C42 30.02 42 28.04 42 26 C37.05 26 32.1 26 27 26 C27 27.98 27 29.96 27 32 C22.05 32 17.1 32 12 32 C12 30.02 12 28.04 12 26 C7.05 26 2.1 26 -3 26 C-3 21.05 -3 16.1 -3 11 C-2.34 11 -1.68 11 -1 11 C-0.67 7.37 -0.34 3.74 0 0 Z " fill="#E1E1E1" transform="translate(123,124)"/>
<path d="M0 0 C1.09137264 1.18232036 2.15137054 2.39397952 3.1875 3.625 C4.698925 5.15518382 6.22032851 6.67555649 7.75 8.1875 C8.5028125 8.950625 9.255625 9.71375 10.03125 10.5 C12.62837269 13.05948323 15.33471491 15.3574016 18.1875 17.625 C17.1975 17.955 16.2075 18.285 15.1875 18.625 C14.5275 17.965 13.8675 17.305 13.1875 16.625 C12.8575 20.585 12.5275 24.545 12.1875 28.625 C7.2375 28.625 2.2875 28.625 -2.8125 28.625 C-2.8125 23.675 -2.8125 18.725 -2.8125 13.625 C-7.7625 13.625 -12.7125 13.625 -17.8125 13.625 C-17.8125 8.675 -17.8125 3.725 -17.8125 -1.375 C-3.75 -3.25 -3.75 -3.25 0 0 Z " fill="#FDFDFD" transform="translate(47.8125,301.375)"/>
<path d="M0 0 C4.95 0 9.9 0 15 0 C15 4.95 15 9.9 15 15 C19.95 15 24.9 15 30 15 C30 19.95 30 24.9 30 30 C26.04 30.33 22.08 30.66 18 31 C18.66 32.65 19.32 34.3 20 36 C16.06065372 33.13502089 13.06831714 29.90498044 9.984375 26.1796875 C8.02597231 23.91487394 8.02597231 23.91487394 5.515625 22.0078125 C2.81130488 19.78220744 0.85581036 17.98301158 -1 15 C-1.48525915 9.54764999 -0.8509088 5.55593393 0 0 Z " fill="#FDFDFD" transform="translate(300,30)"/>
<path d="M0 0 C3.63 0 7.26 0 11 0 C11 4.95 11 9.9 11 15 C15.95 15 20.9 15 26 15 C26 19.95 26 24.9 26 30 C30.95 30 35.9 30 41 30 C41 34.95 41 39.9 41 45 C45.95 45 50.9 45 56 45 C56.495 50.445 56.495 50.445 57 56 C56.01 56.495 56.01 56.495 55 57 C33.23553768 46.19837796 11.27605754 24.42450933 0 3 C0 2.01 0 1.02 0 0 Z " fill="#FBFBFB" transform="translate(49,255)"/>
<path d="M0 0 C0.66 0.33 1.32 0.66 2 1 C1.67 4.63 1.34 8.26 1 12 C-3.95 12 -8.9 12 -14 12 C-14 16.95 -14 21.9 -14 27 C-18.95 27 -23.9 27 -29 27 C-29 31.95 -29 36.9 -29 42 C-33.95 42 -38.9 42 -44 42 C-44 46.95 -44 51.9 -44 57 C-49.94 57.495 -49.94 57.495 -56 58 C-47.23747296 36.0936824 -27.12025602 18.01366708 -8 5 C-7.1234375 4.39671875 -6.246875 3.7934375 -5.34375 3.171875 C-3.1875 1.75 -3.1875 1.75 0 0 Z " fill="#EDEDED" transform="translate(104,48)"/>
<path d="M0 0 C3.3 0 6.6 0 10 0 C8.56984657 12.15630418 -2.95283658 22.47947403 -11 31 C-11.74507813 31.80953125 -12.49015625 32.6190625 -13.2578125 33.453125 C-19.62879996 40.13950788 -26.71001377 45.54418853 -34.27148438 50.79589844 C-35.4195279 51.59563723 -36.55655543 52.41143732 -37.68164062 53.24316406 C-39.265625 54.3828125 -39.265625 54.3828125 -42 56 C-42.99 55.67 -43.98 55.34 -45 55 C-45 51.7 -45 48.4 -45 45 C-40.05 45 -35.1 45 -30 45 C-30 40.05 -30 35.1 -30 30 C-25.05 30 -20.1 30 -15 30 C-15 25.05 -15 20.1 -15 15 C-10.05 15 -5.1 15 0 15 C0 10.05 0 5.1 0 0 Z " fill="#EDEDED" transform="translate(300,255)"/>
<path d="M0 0 C22.44 0 44.88 0 68 0 C68 2.31 68 4.62 68 7 C63.05 7 58.1 7 53 7 C53 7.66 53 8.32 53 9 C48.05 9 43.1 9 38 9 C38 8.34 38 7.68 38 7 C33.05 7 28.1 7 23 7 C23 7.66 23 8.32 23 9 C18.05 9 13.1 9 8 9 C8 6.36 8 3.72 8 1 C5.36 1 2.72 1 0 1 C0 0.67 0 0.34 0 0 Z " fill="#FBFBFB" transform="translate(157,113)"/>
<path d="M0 0 C4.95 0 9.9 0 15 0 C15 4.95 15 9.9 15 15 C16.98 15 18.96 15 21 15 C21 19.95 21 24.9 21 30 C19.02 30 17.04 30 15 30 C15 34.95 15 39.9 15 45 C14.01 45 13.02 45 12 45 C12 68.43 12 91.86 12 116 C11.67 116 11.34 116 11 116 C11 79.04 11 42.08 11 4 C-25.96 4 -62.92 4 -101 4 C-101 3.67 -101 3.34 -101 3 C-67.67 2.67 -34.34 2.34 0 2 C0 1.34 0 0.68 0 0 Z " fill="#DADADA" transform="translate(225,120)"/>
<path d="M0 0 C0.33 0 0.66 0 1 0 C1 20.13 1 40.26 1 61 C-3.95 61 -8.9 61 -14 61 C-14.33 60.34 -14.66 59.68 -15 59 C-14.19204068 56.76140595 -13.32170004 54.61687949 -12.375 52.4375 C-5.42090501 35.7017315 -1.1132625 18.11930693 0 0 Z " fill="#FAFAFA" transform="translate(359,194)"/>
<path d="M0 0 C0 5.28 0 10.56 0 16 C-20.13 16 -40.26 16 -61 16 C-61 15.67 -61 15.34 -61 15 C-59.45505859 14.85304688 -59.45505859 14.85304688 -57.87890625 14.703125 C-39.74706657 12.85359563 -21.83899778 8.68277877 -5.1015625 1.31640625 C-2 0 -2 0 0 0 Z " fill="#FAFAFA" transform="translate(255,344)"/>
<path d="M0 0 C4.62 0 9.24 0 14 0 C15.14553306 4.58213224 14.67101379 5.48783902 12.875 9.6875 C6.23133286 26.2043947 2.40885578 43.24841716 1 61 C0.67 61 0.34 61 0 61 C0 40.87 0 20.74 0 0 Z " fill="#FAFAFA" transform="translate(0,105)"/>
<path d="M0 0 C20.13 0 40.26 0 61 0 C61 0.33 61 0.66 61 1 C60.4330542 1.06469482 59.8661084 1.12938965 59.28198242 1.19604492 C41.59183022 3.26959632 24.98066568 6.78737852 8.34057617 13.20825195 C3.31161735 15.10387245 3.31161735 15.10387245 0 14 C0 9.38 0 4.76 0 0 Z " fill="#FCFCFC" transform="translate(105,0)"/>
<path d="M0 0 C2.97 0 5.94 0 9 0 C8.44799475 5.96805679 6.67488146 10.88911004 4.3125 16.375 C3.95671875 17.21264893 3.6009375 18.05029785 3.234375 18.91333008 C0.71997992 24.69182002 -2.06753999 30.03973795 -6 35 C-6.33 34.34 -6.66 33.68 -7 33 C-6.67 32.34 -6.34 31.68 -6 31 C-8.97 30.67 -11.94 30.34 -15 30 C-15 25.05 -15 20.1 -15 15 C-10.05 15 -5.1 15 0 15 C0 10.05 0 5.1 0 0 Z " fill="#FCFCFC" transform="translate(315,225)"/>
<path d="M0 0 C2.64 0 5.28 0 8 0 C8 4.95 8 9.9 8 15 C12.95 15 17.9 15 23 15 C23 19.95 23 24.9 23 30 C19.04 30.33 15.08 30.66 11 31 C-1.50254494 6.81425166 -1.50254494 6.81425166 -0.58984375 1.703125 C-0.39519531 1.14109375 -0.20054688 0.5790625 0 0 Z " fill="#EEEEEE" transform="translate(37,225)"/>
<path d="M0 0 C4.95 0 9.9 0 15 0 C15 4.95 15 9.9 15 15 C19.95 15 24.9 15 30 15 C30 19.62 30 24.24 30 29 C25.8345248 29 24.70956454 27.24551053 21.625 24.5 C16.30018319 19.85424226 10.76525876 16.2538029 4.6171875 12.7890625 C1.8665044 10.9087448 0.90465292 10.16070095 0 7 C0 4.69 0 2.38 0 0 Z " fill="#EDEDED" transform="translate(270,15)"/>
<path d="M0 0 C8.39832869 0 8.39832869 0 11 2 C12.51240611 4.12546556 13.86214772 6.20209818 15.1875 8.4375 C18.81502738 14.3556941 22.76334426 19.56606944 27.34765625 24.79296875 C29 27 29 27 29 30 C24.38 30 19.76 30 15 30 C15 25.05 15 20.1 15 15 C10.05 15 5.1 15 0 15 C0 10.05 0 5.1 0 0 Z " fill="#EDEDED" transform="translate(15,270)"/>
<path d="M0 0 C1.485 0.99 1.485 0.99 3 2 C3.89847656 2.26039063 4.79695313 2.52078125 5.72265625 2.7890625 C9.89610247 4.33109865 12.94091876 6.67164116 16.4375 9.375 C21.13814836 12.97385873 25.79513915 16.16586932 31 19 C30.67 21.97 30.34 24.94 30 28 C25.05 28 20.1 28 15 28 C15 23.05 15 18.1 15 13 C10.05 13 5.1 13 0 13 C0 8.71 0 4.42 0 0 Z " fill="#EDEDED" transform="translate(60,317)"/>
<path d="M0 0 C4.29 0 8.58 0 13 0 C13 4.95 13 9.9 13 15 C17.95 15 22.9 15 28 15 C28 19.95 28 24.9 28 30 C25.03 30.33 22.06 30.66 19 31 C18.34773438 29.92621094 17.69546875 28.85242188 17.0234375 27.74609375 C16.14094625 26.30969842 15.25811551 24.87351161 14.375 23.4375 C13.94832031 22.73302734 13.52164062 22.02855469 13.08203125 21.30273438 C10.44618841 17.03424261 7.59298962 13.29280799 4.26708984 9.54272461 C1.88935218 6.64774883 1.11457157 3.52947663 0 0 Z " fill="#EDEDED" transform="translate(317,60)"/>
<path d="M0 0 C0.33 0 0.66 0 1 0 C1 29.37 1 58.74 1 89 C11.89 88.505 11.89 88.505 23 88 C23.33 86.02 23.66 84.04 24 82 C28.62 82 33.24 82 38 82 C38 86.95 38 91.9 38 97 C33.05 97 28.1 97 23 97 C23 94.69 23 92.38 23 90 C15.41 90 7.82 90 0 90 C0 60.3 0 30.6 0 0 Z " fill="#C8C8C8" transform="translate(247,113)"/>
<path d="M0 0 C4.95 0 9.9 0 15 0 C15 4.62 15 9.24 15 14 C13.02 14.33 11.04 14.66 9 15 C8.67 22.26 8.34 29.52 8 37 C37.37 37 66.74 37 97 37 C97 37.33 97 37.66 97 38 C67.3 38 37.6 38 7 38 C7 30.41 7 22.82 7 15 C4.69 15 2.38 15 0 15 C0 10.05 0 5.1 0 0 Z " fill="#C8C8C8" transform="translate(150,75)"/>
<path d="M0 0 C5.28 0 10.56 0 16 0 C16 4.95 16 9.9 16 15 C10.72 15 5.44 15 0 15 C0 18.63 0 22.26 0 26 C-0.33 26 -0.66 26 -1 26 C-1.02892857 22.04168191 -1.04677427 18.08339083 -1.0625 14.125 C-1.07087891 12.99707031 -1.07925781 11.86914062 -1.08789062 10.70703125 C-1.09111328 9.63066406 -1.09433594 8.55429688 -1.09765625 7.4453125 C-1.10289307 6.45031738 -1.10812988 5.45532227 -1.11352539 4.43017578 C-1 2 -1 2 0 0 Z " fill="#E9E9E9" transform="translate(29,165)"/>
<path d="M0 0 C1.07636719 0.00322266 2.15273437 0.00644531 3.26171875 0.00976562 C4.38964844 0.01814453 5.51757812 0.02652344 6.6796875 0.03515625 C7.81535156 0.03966797 8.95101562 0.04417969 10.12109375 0.04882812 C12.93234388 0.0606401 15.7434898 0.07711118 18.5546875 0.09765625 C18.5546875 0.42765625 18.5546875 0.75765625 18.5546875 1.09765625 C14.9246875 1.09765625 11.2946875 1.09765625 7.5546875 1.09765625 C7.5546875 6.37765625 7.5546875 11.65765625 7.5546875 17.09765625 C2.6046875 17.09765625 -2.3453125 17.09765625 -7.4453125 17.09765625 C-7.4453125 11.81765625 -7.4453125 6.53765625 -7.4453125 1.09765625 C-4.83580014 -0.20709993 -2.91829965 -0.01535947 0 0 Z " fill="#E9E9E9" transform="translate(172.4453125,27.90234375)"/>
<path d="M0 0 C0.33 0 0.66 0 1 0 C1 2.64 1 5.28 1 8 C2.98 8 4.96 8 7 8 C7 12.95 7 17.9 7 23 C5.02 23 3.04 23 1 23 C1 27.95 1 32.9 1 38 C2.98 38 4.96 38 7 38 C7 42.95 7 47.9 7 53 C5.02 53 3.04 53 1 53 C1 57.95 1 62.9 1 68 C0.67 68 0.34 68 0 68 C0 45.56 0 23.12 0 0 Z " fill="#FFFFFF" transform="translate(203,157)"/>
<path d="M0 0 C5.28 0 10.56 0 16 0 C16 4.95 16 9.9 16 15 C8.08 15.495 8.08 15.495 0 16 C0 10.72 0 5.44 0 0 Z " fill="#FFFFFF" transform="translate(29,180)"/>
<path d="M0 0 C5.28 0 10.56 0 16 0 C15.67 5.28 15.34 10.56 15 16 C10.05 16 5.1 16 0 16 C0 10.72 0 5.44 0 0 Z " fill="#FFFFFF" transform="translate(180,29)"/>
<path d="M0 0 C4.95 0 9.9 0 15 0 C15.22786458 2.76692708 15.45572917 5.53385417 15.68359375 8.30078125 C15.91812559 11.09375599 15.91812559 11.09375599 17 14 C16.67 14.99 16.34 15.98 16 17 C15.34 17 14.68 17 14 17 C14 16.34 14 15.68 14 15 C9.38 15 4.76 15 0 15 C0 10.05 0 5.1 0 0 Z " fill="#FEFEFE" transform="translate(0,90)"/>
<path d="M0 0 C4.95 0 9.9 0 15 0 C15 4.62 15 9.24 15 14 C15.99 14.33 16.98 14.66 18 15 C16.35 15.66 14.7 16.32 13 17 C13 16.34 13 15.68 13 15 C8.71 15 4.42 15 0 15 C0 10.05 0 5.1 0 0 Z " fill="#FEFEFE" transform="translate(90,0)"/>
<path d="M0 0 C6.93 0 13.86 0 21 0 C21 0.33 21 0.66 21 1 C19.02 1 17.04 1 15 1 C15 5.62 15 10.24 15 15 C10.05 15 5.1 15 0 15 C0 10.05 0 5.1 0 0 Z " fill="#FFFFFF" transform="translate(180,270)"/>
<path d="M0 0 C4.95 0 9.9 0 15 0 C15 4.95 15 9.9 15 15 C10.38 15 5.76 15 1 15 C1 16.98 1 18.96 1 21 C0.67 21 0.34 21 0 21 C0 14.07 0 7.14 0 0 Z " fill="#FFFFFF" transform="translate(270,180)"/>
<path d="M0 0 C0 5.28 0 10.56 0 16 C-4.95 16 -9.9 16 -15 16 C-15 12.04 -15 8.08 -15 4 C-15.99 3.67 -16.98 3.34 -18 3 C-11.99403676 1.16143983 -6.32718205 0 0 0 Z " fill="#FDFDFD" transform="translate(165,29)"/>
<path d="M0 0 C5.28 0.33 10.56 0.66 16 1 C16 5.95 16 10.9 16 16 C11.05 16 6.1 16 1 16 C0.67 10.72 0.34 5.44 0 0 Z " fill="#FFFFFF" transform="translate(344,254)"/>
<path d="M0 0 C4.95 0.33 9.9 0.66 15 1 C15 5.95 15 10.9 15 16 C10.05 16 5.1 16 0 16 C0 10.72 0 5.44 0 0 Z " fill="#FFFFFF" transform="translate(255,344)"/>
<path d="M0 0 C4.95 0 9.9 0 15 0 C15 4.95 15 9.9 15 15 C9.26172864 16.43456784 4.80396128 15.07247111 -1 14 C-0.67 9.38 -0.34 4.76 0 0 Z " fill="#ECECEC" transform="translate(150,315)"/>
<path d="M0 0 C4.95 0 9.9 0 15 0 C15 4.95 15 9.9 15 15 C10.05 15 5.1 15 0 15 C0 10.05 0 5.1 0 0 Z " fill="#FFFFFF" transform="translate(345,345)"/>
<path d="M0 0 C4.95 0 9.9 0 15 0 C15 4.95 15 9.9 15 15 C10.05 15 5.1 15 0 15 C0 10.05 0 5.1 0 0 Z " fill="#EEEEEE" transform="translate(330,345)"/>
<path d="M0 0 C4.95 0 9.9 0 15 0 C15 4.95 15 9.9 15 15 C10.05 15 5.1 15 0 15 C0 10.05 0 5.1 0 0 Z " fill="#FFFFFF" transform="translate(315,345)"/>
<path d="M0 0 C4.95 0 9.9 0 15 0 C15 4.95 15 9.9 15 15 C10.05 15 5.1 15 0 15 C0 10.05 0 5.1 0 0 Z " fill="#EEEEEE" transform="translate(300,345)"/>
<path d="M0 0 C4.95 0 9.9 0 15 0 C15 4.95 15 9.9 15 15 C10.05 15 5.1 15 0 15 C0 10.05 0 5.1 0 0 Z " fill="#FFFFFF" transform="translate(285,345)"/>
<path d="M0 0 C4.95 0 9.9 0 15 0 C15 4.95 15 9.9 15 15 C10.05 15 5.1 15 0 15 C0 10.05 0 5.1 0 0 Z " fill="#EEEEEE" transform="translate(270,345)"/>
<path d="M0 0 C4.95 0 9.9 0 15 0 C15 4.95 15 9.9 15 15 C10.05 15 5.1 15 0 15 C0 10.05 0 5.1 0 0 Z " fill="#EEEEEE" transform="translate(90,345)"/>
<path d="M0 0 C4.95 0 9.9 0 15 0 C15 4.95 15 9.9 15 15 C10.05 15 5.1 15 0 15 C0 10.05 0 5.1 0 0 Z " fill="#FFFFFF" transform="translate(75,345)"/>
<path d="M0 0 C4.95 0 9.9 0 15 0 C15 4.95 15 9.9 15 15 C10.05 15 5.1 15 0 15 C0 10.05 0 5.1 0 0 Z " fill="#EEEEEE" transform="translate(60,345)"/>
<path d="M0 0 C4.95 0 9.9 0 15 0 C15 4.95 15 9.9 15 15 C10.05 15 5.1 15 0 15 C0 10.05 0 5.1 0 0 Z " fill="#FFFFFF" transform="translate(45,345)"/>
<path d="M0 0 C4.95 0 9.9 0 15 0 C15 4.95 15 9.9 15 15 C10.05 15 5.1 15 0 15 C0 10.05 0 5.1 0 0 Z " fill="#EEEEEE" transform="translate(30,345)"/>
<path d="M0 0 C4.95 0 9.9 0 15 0 C15 4.95 15 9.9 15 15 C10.05 15 5.1 15 0 15 C0 10.05 0 5.1 0 0 Z " fill="#FFFFFF" transform="translate(15,345)"/>
<path d="M0 0 C4.95 0 9.9 0 15 0 C15 4.95 15 9.9 15 15 C10.05 15 5.1 15 0 15 C0 10.05 0 5.1 0 0 Z " fill="#EEEEEE" transform="translate(0,345)"/>
<path d="M0 0 C4.95 0 9.9 0 15 0 C15 4.95 15 9.9 15 15 C10.05 15 5.1 15 0 15 C0 10.05 0 5.1 0 0 Z " fill="#EEEEEE" transform="translate(345,330)"/>
<path d="M0 0 C4.95 0 9.9 0 15 0 C15 4.95 15 9.9 15 15 C10.05 15 5.1 15 0 15 C0 10.05 0 5.1 0 0 Z " fill="#FFFFFF" transform="translate(330,330)"/>
<path d="M0 0 C4.95 0 9.9 0 15 0 C15 4.95 15 9.9 15 15 C10.05 15 5.1 15 0 15 C0 10.05 0 5.1 0 0 Z " fill="#EEEEEE" transform="translate(315,330)"/>
<path d="M0 0 C4.95 0 9.9 0 15 0 C15 4.95 15 9.9 15 15 C10.05 15 5.1 15 0 15 C0 10.05 0 5.1 0 0 Z " fill="#FFFFFF" transform="translate(300,330)"/>
<path d="M0 0 C4.95 0 9.9 0 15 0 C15 4.95 15 9.9 15 15 C10.05 15 5.1 15 0 15 C0 10.05 0 5.1 0 0 Z " fill="#EEEEEE" transform="translate(285,330)"/>
<path d="M0 0 C4.95 0 9.9 0 15 0 C15 4.95 15 9.9 15 15 C10.05 15 5.1 15 0 15 C0 10.05 0 5.1 0 0 Z " fill="#FFFFFF" transform="translate(60,330)"/>
<path d="M0 0 C4.95 0 9.9 0 15 0 C15 4.95 15 9.9 15 15 C10.05 15 5.1 15 0 15 C0 10.05 0 5.1 0 0 Z " fill="#EEEEEE" transform="translate(45,330)"/>
<path d="M0 0 C4.95 0 9.9 0 15 0 C15 4.95 15 9.9 15 15 C10.05 15 5.1 15 0 15 C0 10.05 0 5.1 0 0 Z " fill="#FFFFFF" transform="translate(30,330)"/>
<path d="M0 0 C4.95 0 9.9 0 15 0 C15 4.95 15 9.9 15 15 C10.05 15 5.1 15 0 15 C0 10.05 0 5.1 0 0 Z " fill="#EEEEEE" transform="translate(15,330)"/>
<path d="M0 0 C4.95 0 9.9 0 15 0 C15 4.95 15 9.9 15 15 C10.05 15 5.1 15 0 15 C0 10.05 0 5.1 0 0 Z " fill="#FFFFFF" transform="translate(0,330)"/>
<path d="M0 0 C4.95 0 9.9 0 15 0 C15 4.95 15 9.9 15 15 C10.05 15 5.1 15 0 15 C0 10.05 0 5.1 0 0 Z " fill="#FFFFFF" transform="translate(345,315)"/>
<path d="M0 0 C4.95 0 9.9 0 15 0 C15 4.95 15 9.9 15 15 C10.05 15 5.1 15 0 15 C0 10.05 0 5.1 0 0 Z " fill="#EEEEEE" transform="translate(330,315)"/>
<path d="M0 0 C4.95 0 9.9 0 15 0 C15 4.95 15 9.9 15 15 C10.05 15 5.1 15 0 15 C0 10.05 0 5.1 0 0 Z " fill="#FFFFFF" transform="translate(315,315)"/>
<path d="M0 0 C4.95 0 9.9 0 15 0 C15 4.95 15 9.9 15 15 C10.05 15 5.1 15 0 15 C0 10.05 0 5.1 0 0 Z " fill="#EEEEEE" transform="translate(180,315)"/>
<path d="M0 0 C4.95 0 9.9 0 15 0 C15 4.95 15 9.9 15 15 C10.05 15 5.1 15 0 15 C0 10.05 0 5.1 0 0 Z " fill="#EEEEEE" transform="translate(30,315)"/>
<path d="M0 0 C4.95 0 9.9 0 15 0 C15 4.95 15 9.9 15 15 C10.05 15 5.1 15 0 15 C0 10.05 0 5.1 0 0 Z " fill="#FFFFFF" transform="translate(15,315)"/>
<path d="M0 0 C4.95 0 9.9 0 15 0 C15 4.95 15 9.9 15 15 C10.05 15 5.1 15 0 15 C0 10.05 0 5.1 0 0 Z " fill="#EEEEEE" transform="translate(0,315)"/>
<path d="M0 0 C4.95 0 9.9 0 15 0 C15 4.95 15 9.9 15 15 C10.05 15 5.1 15 0 15 C0 10.05 0 5.1 0 0 Z " fill="#EEEEEE" transform="translate(345,300)"/>
<path d="M0 0 C4.95 0 9.9 0 15 0 C15 4.95 15 9.9 15 15 C10.05 15 5.1 15 0 15 C0 10.05 0 5.1 0 0 Z " fill="#FFFFFF" transform="translate(330,300)"/>
<path d="M0 0 C4.95 0 9.9 0 15 0 C15 4.95 15 9.9 15 15 C10.05 15 5.1 15 0 15 C0 10.05 0 5.1 0 0 Z " fill="#EEEEEE" transform="translate(225,300)"/>
<path d="M0 0 C4.95 0 9.9 0 15 0 C15 4.95 15 9.9 15 15 C10.05 15 5.1 15 0 15 C0 10.05 0 5.1 0 0 Z " fill="#FFFFFF" transform="translate(210,300)"/>
<path d="M0 0 C4.95 0 9.9 0 15 0 C15 4.95 15 9.9 15 15 C10.05 15 5.1 15 0 15 C0 10.05 0 5.1 0 0 Z " fill="#EEEEEE" transform="translate(195,300)"/>
<path d="M0 0 C4.95 0 9.9 0 15 0 C15 4.95 15 9.9 15 15 C10.05 15 5.1 15 0 15 C0 10.05 0 5.1 0 0 Z " fill="#FFFFFF" transform="translate(180,300)"/>
<path d="M0 0 C4.95 0 9.9 0 15 0 C15 4.95 15 9.9 15 15 C10.05 15 5.1 15 0 15 C0 10.05 0 5.1 0 0 Z " fill="#EEEEEE" transform="translate(165,300)"/>
<path d="M0 0 C4.95 0 9.9 0 15 0 C15 4.95 15 9.9 15 15 C10.05 15 5.1 15 0 15 C0 10.05 0 5.1 0 0 Z " fill="#FFFFFF" transform="translate(150,300)"/>
<path d="M0 0 C4.95 0 9.9 0 15 0 C15 4.95 15 9.9 15 15 C10.05 15 5.1 15 0 15 C0 10.05 0 5.1 0 0 Z " fill="#FFFFFF" transform="translate(120,300)"/>
<path d="M0 0 C4.95 0 9.9 0 15 0 C15 4.95 15 9.9 15 15 C10.05 15 5.1 15 0 15 C0 10.05 0 5.1 0 0 Z " fill="#EEEEEE" transform="translate(15,300)"/>
<path d="M0 0 C4.95 0 9.9 0 15 0 C15 4.95 15 9.9 15 15 C10.05 15 5.1 15 0 15 C0 10.05 0 5.1 0 0 Z " fill="#FFFFFF" transform="translate(0,300)"/>
<path d="M0 0 C4.95 0 9.9 0 15 0 C15 4.95 15 9.9 15 15 C10.05 15 5.1 15 0 15 C0 10.05 0 5.1 0 0 Z " fill="#FFFFFF" transform="translate(345,285)"/>
<path d="M0 0 C4.95 0 9.9 0 15 0 C15 4.95 15 9.9 15 15 C10.05 15 5.1 15 0 15 C0 10.05 0 5.1 0 0 Z " fill="#FFFFFF" transform="translate(255,285)"/>
<path d="M0 0 C4.95 0 9.9 0 15 0 C15 4.95 15 9.9 15 15 C10.05 15 5.1 15 0 15 C0 10.05 0 5.1 0 0 Z " fill="#EEEEEE" transform="translate(240,285)"/>
<path d="M0 0 C4.95 0 9.9 0 15 0 C15 4.95 15 9.9 15 15 C10.05 15 5.1 15 0 15 C0 10.05 0 5.1 0 0 Z " fill="#FFFFFF" transform="translate(225,285)"/>
<path d="M0 0 C4.95 0 9.9 0 15 0 C15 4.95 15 9.9 15 15 C10.05 15 5.1 15 0 15 C0 10.05 0 5.1 0 0 Z " fill="#EEEEEE" transform="translate(210,285)"/>
<path d="M0 0 C4.95 0 9.9 0 15 0 C15 4.95 15 9.9 15 15 C10.05 15 5.1 15 0 15 C0 10.05 0 5.1 0 0 Z " fill="#FFFFFF" transform="translate(195,285)"/>
<path d="M0 0 C4.95 0 9.9 0 15 0 C15 4.95 15 9.9 15 15 C10.05 15 5.1 15 0 15 C0 10.05 0 5.1 0 0 Z " fill="#EEEEEE" transform="translate(180,285)"/>
<path d="M0 0 C4.95 0 9.9 0 15 0 C15 4.95 15 9.9 15 15 C10.05 15 5.1 15 0 15 C0 10.05 0 5.1 0 0 Z " fill="#FFFFFF" transform="translate(165,285)"/>
<path d="M0 0 C4.95 0 9.9 0 15 0 C15 4.95 15 9.9 15 15 C10.05 15 5.1 15 0 15 C0 10.05 0 5.1 0 0 Z " fill="#EEEEEE" transform="translate(150,285)"/>
<path d="M0 0 C4.95 0 9.9 0 15 0 C15 4.95 15 9.9 15 15 C10.05 15 5.1 15 0 15 C0 10.05 0 5.1 0 0 Z " fill="#FFFFFF" transform="translate(135,285)"/>
<path d="M0 0 C4.95 0 9.9 0 15 0 C15 4.95 15 9.9 15 15 C10.05 15 5.1 15 0 15 C0 10.05 0 5.1 0 0 Z " fill="#EEEEEE" transform="translate(120,285)"/>
<path d="M0 0 C4.95 0 9.9 0 15 0 C15 4.95 15 9.9 15 15 C10.05 15 5.1 15 0 15 C0 10.05 0 5.1 0 0 Z " fill="#FFFFFF" transform="translate(105,285)"/>
<path d="M0 0 C4.95 0 9.9 0 15 0 C15 4.95 15 9.9 15 15 C10.05 15 5.1 15 0 15 C0 10.05 0 5.1 0 0 Z " fill="#EEEEEE" transform="translate(90,285)"/>
<path d="M0 0 C4.95 0 9.9 0 15 0 C15 4.95 15 9.9 15 15 C10.05 15 5.1 15 0 15 C0 10.05 0 5.1 0 0 Z " fill="#FFFFFF" transform="translate(15,285)"/>
<path d="M0 0 C4.95 0 9.9 0 15 0 C15 4.95 15 9.9 15 15 C10.05 15 5.1 15 0 15 C0 10.05 0 5.1 0 0 Z " fill="#EEEEEE" transform="translate(0,285)"/>
<path d="M0 0 C4.95 0 9.9 0 15 0 C15 4.95 15 9.9 15 15 C10.05 15 5.1 15 0 15 C0 10.05 0 5.1 0 0 Z " fill="#EEEEEE" transform="translate(345,270)"/>
<path d="M0 0 C4.95 0 9.9 0 15 0 C15 4.95 15 9.9 15 15 C10.05 15 5.1 15 0 15 C0 10.05 0 5.1 0 0 Z " fill="#FFFFFF" transform="translate(270,270)"/>
<path d="M0 0 C4.95 0 9.9 0 15 0 C15 4.95 15 9.9 15 15 C10.05 15 5.1 15 0 15 C0 10.05 0 5.1 0 0 Z " fill="#EEEEEE" transform="translate(255,270)"/>
<path d="M0 0 C4.95 0 9.9 0 15 0 C15 4.95 15 9.9 15 15 C10.05 15 5.1 15 0 15 C0 10.05 0 5.1 0 0 Z " fill="#FFFFFF" transform="translate(240,270)"/>
<path d="M0 0 C4.95 0 9.9 0 15 0 C15 4.95 15 9.9 15 15 C10.05 15 5.1 15 0 15 C0 10.05 0 5.1 0 0 Z " fill="#EEEEEE" transform="translate(225,270)"/>
<path d="M0 0 C4.95 0 9.9 0 15 0 C15 4.95 15 9.9 15 15 C10.05 15 5.1 15 0 15 C0 10.05 0 5.1 0 0 Z " fill="#FFFFFF" transform="translate(210,270)"/>
<path d="M0 0 C4.95 0 9.9 0 15 0 C15 4.95 15 9.9 15 15 C10.05 15 5.1 15 0 15 C0 10.05 0 5.1 0 0 Z " fill="#FFFFFF" transform="translate(0,270)"/>
<path d="M0 0 C4.95 0 9.9 0 15 0 C15 4.95 15 9.9 15 15 C10.05 15 5.1 15 0 15 C0 10.05 0 5.1 0 0 Z " fill="#FFFFFF" transform="translate(285,255)"/>
<path d="M0 0 C4.95 0 9.9 0 15 0 C15 4.95 15 9.9 15 15 C10.05 15 5.1 15 0 15 C0 10.05 0 5.1 0 0 Z " fill="#EEEEEE" transform="translate(270,255)"/>
<path d="M0 0 C4.95 0 9.9 0 15 0 C15 4.95 15 9.9 15 15 C10.05 15 5.1 15 0 15 C0 10.05 0 5.1 0 0 Z " fill="#FFFFFF" transform="translate(255,255)"/>
<path d="M0 0 C4.95 0 9.9 0 15 0 C15 4.95 15 9.9 15 15 C10.05 15 5.1 15 0 15 C0 10.05 0 5.1 0 0 Z " fill="#EEEEEE" transform="translate(240,255)"/>
<path d="M0 0 C4.95 0 9.9 0 15 0 C15 4.95 15 9.9 15 15 C10.05 15 5.1 15 0 15 C0 10.05 0 5.1 0 0 Z " fill="#FFFFFF" transform="translate(225,255)"/>
<path d="M0 0 C4.95 0 9.9 0 15 0 C15 4.95 15 9.9 15 15 C10.05 15 5.1 15 0 15 C0 10.05 0 5.1 0 0 Z " fill="#EEEEEE" transform="translate(210,255)"/>
<path d="M0 0 C4.95 0 9.9 0 15 0 C15 4.95 15 9.9 15 15 C10.05 15 5.1 15 0 15 C0 10.05 0 5.1 0 0 Z " fill="#EEEEEE" transform="translate(60,255)"/>
<path d="M0 0 C4.95 0 9.9 0 15 0 C15 4.95 15 9.9 15 15 C10.05 15 5.1 15 0 15 C0 10.05 0 5.1 0 0 Z " fill="#EEEEEE" transform="translate(285,240)"/>
<path d="M0 0 C4.95 0 9.9 0 15 0 C15 4.95 15 9.9 15 15 C10.05 15 5.1 15 0 15 C0 10.05 0 5.1 0 0 Z " fill="#FFFFFF" transform="translate(270,240)"/>
<path d="M0 0 C4.95 0 9.9 0 15 0 C15 4.95 15 9.9 15 15 C10.05 15 5.1 15 0 15 C0 10.05 0 5.1 0 0 Z " fill="#EEEEEE" transform="translate(255,240)"/>
<path d="M0 0 C4.95 0 9.9 0 15 0 C15 4.95 15 9.9 15 15 C10.05 15 5.1 15 0 15 C0 10.05 0 5.1 0 0 Z " fill="#FFFFFF" transform="translate(240,240)"/>
<path d="M0 0 C4.95 0 9.9 0 15 0 C15 4.95 15 9.9 15 15 C10.05 15 5.1 15 0 15 C0 10.05 0 5.1 0 0 Z " fill="#EEEEEE" transform="translate(225,240)"/>
<path d="M0 0 C4.95 0 9.9 0 15 0 C15 4.95 15 9.9 15 15 C10.05 15 5.1 15 0 15 C0 10.05 0 5.1 0 0 Z " fill="#FFFFFF" transform="translate(210,240)"/>
<path d="M0 0 C4.95 0 9.9 0 15 0 C15 4.95 15 9.9 15 15 C10.05 15 5.1 15 0 15 C0 10.05 0 5.1 0 0 Z " fill="#FFFFFF" transform="translate(60,240)"/>
<path d="M0 0 C4.95 0 9.9 0 15 0 C15 4.95 15 9.9 15 15 C10.05 15 5.1 15 0 15 C0 10.05 0 5.1 0 0 Z " fill="#EEEEEE" transform="translate(300,225)"/>
<path d="M0 0 C4.95 0 9.9 0 15 0 C15 4.95 15 9.9 15 15 C10.05 15 5.1 15 0 15 C0 10.05 0 5.1 0 0 Z " fill="#FFFFFF" transform="translate(285,225)"/>
<path d="M0 0 C4.95 0 9.9 0 15 0 C15 4.95 15 9.9 15 15 C10.05 15 5.1 15 0 15 C0 10.05 0 5.1 0 0 Z " fill="#EEEEEE" transform="translate(270,225)"/>
<path d="M0 0 C4.95 0 9.9 0 15 0 C15 4.95 15 9.9 15 15 C10.05 15 5.1 15 0 15 C0 10.05 0 5.1 0 0 Z " fill="#FFFFFF" transform="translate(255,225)"/>
<path d="M0 0 C4.95 0 9.9 0 15 0 C15 4.95 15 9.9 15 15 C10.05 15 5.1 15 0 15 C0 10.05 0 5.1 0 0 Z " fill="#EEEEEE" transform="translate(240,225)"/>
<path d="M0 0 C4.95 0 9.9 0 15 0 C15 4.95 15 9.9 15 15 C10.05 15 5.1 15 0 15 C0 10.05 0 5.1 0 0 Z " fill="#EEEEEE" transform="translate(60,225)"/>
<path d="M0 0 C4.95 0 9.9 0 15 0 C15 4.95 15 9.9 15 15 C10.05 15 5.1 15 0 15 C0 10.05 0 5.1 0 0 Z " fill="#FFFFFF" transform="translate(45,225)"/>
<path d="M0 0 C4.95 0 9.9 0 15 0 C15 4.95 15 9.9 15 15 C10.05 15 5.1 15 0 15 C0 10.05 0 5.1 0 0 Z " fill="#FFFFFF" transform="translate(300,210)"/>
<path d="M0 0 C4.95 0 9.9 0 15 0 C15 4.95 15 9.9 15 15 C10.05 15 5.1 15 0 15 C0 10.05 0 5.1 0 0 Z " fill="#EEEEEE" transform="translate(285,210)"/>
<path d="M0 0 C4.95 0 9.9 0 15 0 C15 4.95 15 9.9 15 15 C10.05 15 5.1 15 0 15 C0 10.05 0 5.1 0 0 Z " fill="#FFFFFF" transform="translate(270,210)"/>
<path d="M0 0 C4.95 0 9.9 0 15 0 C15 4.95 15 9.9 15 15 C10.05 15 5.1 15 0 15 C0 10.05 0 5.1 0 0 Z " fill="#EEEEEE" transform="translate(255,210)"/>
<path d="M0 0 C4.95 0 9.9 0 15 0 C15 4.95 15 9.9 15 15 C10.05 15 5.1 15 0 15 C0 10.05 0 5.1 0 0 Z " fill="#FFFFFF" transform="translate(240,210)"/>
<path d="M0 0 C4.95 0 9.9 0 15 0 C15 4.95 15 9.9 15 15 C10.05 15 5.1 15 0 15 C0 10.05 0 5.1 0 0 Z " fill="#FFFFFF" transform="translate(60,210)"/>
<path d="M0 0 C4.95 0 9.9 0 15 0 C15 4.95 15 9.9 15 15 C10.05 15 5.1 15 0 15 C0 10.05 0 5.1 0 0 Z " fill="#EEEEEE" transform="translate(45,210)"/>
<path d="M0 0 C4.95 0 9.9 0 15 0 C15 4.95 15 9.9 15 15 C10.05 15 5.1 15 0 15 C0 10.05 0 5.1 0 0 Z " fill="#FFFFFF" transform="translate(285,195)"/>
<path d="M0 0 C4.95 0 9.9 0 15 0 C15 4.95 15 9.9 15 15 C10.05 15 5.1 15 0 15 C0 10.05 0 5.1 0 0 Z " fill="#EEEEEE" transform="translate(60,195)"/>
<path d="M0 0 C4.95 0 9.9 0 15 0 C15 4.95 15 9.9 15 15 C10.05 15 5.1 15 0 15 C0 10.05 0 5.1 0 0 Z " fill="#FFFFFF" transform="translate(45,195)"/>
<path d="M0 0 C4.95 0 9.9 0 15 0 C15 4.95 15 9.9 15 15 C10.05 15 5.1 15 0 15 C0 10.05 0 5.1 0 0 Z " fill="#EEEEEE" transform="translate(315,180)"/>
<path d="M0 0 C4.95 0 9.9 0 15 0 C15 4.95 15 9.9 15 15 C10.05 15 5.1 15 0 15 C0 10.05 0 5.1 0 0 Z " fill="#FFFFFF" transform="translate(300,180)"/>
<path d="M0 0 C4.95 0 9.9 0 15 0 C15 4.95 15 9.9 15 15 C10.05 15 5.1 15 0 15 C0 10.05 0 5.1 0 0 Z " fill="#EEEEEE" transform="translate(285,180)"/>
<path d="M0 0 C4.95 0 9.9 0 15 0 C15 4.95 15 9.9 15 15 C10.05 15 5.1 15 0 15 C0 10.05 0 5.1 0 0 Z " fill="#FFFFFF" transform="translate(60,180)"/>
<path d="M0 0 C4.95 0 9.9 0 15 0 C15 4.95 15 9.9 15 15 C10.05 15 5.1 15 0 15 C0 10.05 0 5.1 0 0 Z " fill="#EEEEEE" transform="translate(45,180)"/>
<path d="M0 0 C4.95 0 9.9 0 15 0 C15 4.95 15 9.9 15 15 C10.05 15 5.1 15 0 15 C0 10.05 0 5.1 0 0 Z " fill="#EEEEEE" transform="translate(300,165)"/>
<path d="M0 0 C4.95 0 9.9 0 15 0 C15 4.95 15 9.9 15 15 C10.05 15 5.1 15 0 15 C0 10.05 0 5.1 0 0 Z " fill="#FFFFFF" transform="translate(285,165)"/>
<path d="M0 0 C4.95 0 9.9 0 15 0 C15 4.95 15 9.9 15 15 C10.05 15 5.1 15 0 15 C0 10.05 0 5.1 0 0 Z " fill="#EEEEEE" transform="translate(60,165)"/>
<path d="M0 0 C4.95 0 9.9 0 15 0 C15 4.95 15 9.9 15 15 C10.05 15 5.1 15 0 15 C0 10.05 0 5.1 0 0 Z " fill="#FFFFFF" transform="translate(45,165)"/>
<path d="M0 0 C4.95 0 9.9 0 15 0 C15 4.95 15 9.9 15 15 C10.05 15 5.1 15 0 15 C0 10.05 0 5.1 0 0 Z " fill="#FFFFFF" transform="translate(300,150)"/>
<path d="M0 0 C4.95 0 9.9 0 15 0 C15 4.95 15 9.9 15 15 C10.05 15 5.1 15 0 15 C0 10.05 0 5.1 0 0 Z " fill="#EEEEEE" transform="translate(285,150)"/>
<path d="M0 0 C4.95 0 9.9 0 15 0 C15 4.95 15 9.9 15 15 C10.05 15 5.1 15 0 15 C0 10.05 0 5.1 0 0 Z " fill="#FFFFFF" transform="translate(60,150)"/>
<path d="M0 0 C4.95 0 9.9 0 15 0 C15 4.95 15 9.9 15 15 C10.05 15 5.1 15 0 15 C0 10.05 0 5.1 0 0 Z " fill="#EEEEEE" transform="translate(45,150)"/>
<path d="M0 0 C4.95 0 9.9 0 15 0 C15 4.95 15 9.9 15 15 C10.05 15 5.1 15 0 15 C0 10.05 0 5.1 0 0 Z " fill="#FFFFFF" transform="translate(285,135)"/>
<path d="M0 0 C4.95 0 9.9 0 15 0 C15 4.95 15 9.9 15 15 C10.05 15 5.1 15 0 15 C0 10.05 0 5.1 0 0 Z " fill="#EEEEEE" transform="translate(90,135)"/>
<path d="M0 0 C4.95 0 9.9 0 15 0 C15 4.95 15 9.9 15 15 C10.05 15 5.1 15 0 15 C0 10.05 0 5.1 0 0 Z " fill="#FFFFFF" transform="translate(75,135)"/>
<path d="M0 0 C4.95 0 9.9 0 15 0 C15 4.95 15 9.9 15 15 C10.05 15 5.1 15 0 15 C0 10.05 0 5.1 0 0 Z " fill="#EEEEEE" transform="translate(60,135)"/>
<path d="M0 0 C4.95 0 9.9 0 15 0 C15 4.95 15 9.9 15 15 C10.05 15 5.1 15 0 15 C0 10.05 0 5.1 0 0 Z " fill="#FFFFFF" transform="translate(45,135)"/>
<path d="M0 0 C4.95 0 9.9 0 15 0 C15 4.95 15 9.9 15 15 C10.05 15 5.1 15 0 15 C0 10.05 0 5.1 0 0 Z " fill="#FFFFFF" transform="translate(300,120)"/>
<path d="M0 0 C4.95 0 9.9 0 15 0 C15 4.95 15 9.9 15 15 C10.05 15 5.1 15 0 15 C0 10.05 0 5.1 0 0 Z " fill="#EEEEEE" transform="translate(285,120)"/>
<path d="M0 0 C4.95 0 9.9 0 15 0 C15 4.95 15 9.9 15 15 C10.05 15 5.1 15 0 15 C0 10.05 0 5.1 0 0 Z " fill="#EEEEEE" transform="translate(105,120)"/>
<path d="M0 0 C4.95 0 9.9 0 15 0 C15 4.95 15 9.9 15 15 C10.05 15 5.1 15 0 15 C0 10.05 0 5.1 0 0 Z " fill="#FFFFFF" transform="translate(90,120)"/>
<path d="M0 0 C4.95 0 9.9 0 15 0 C15 4.95 15 9.9 15 15 C10.05 15 5.1 15 0 15 C0 10.05 0 5.1 0 0 Z " fill="#EEEEEE" transform="translate(75,120)"/>
<path d="M0 0 C4.95 0 9.9 0 15 0 C15 4.95 15 9.9 15 15 C10.05 15 5.1 15 0 15 C0 10.05 0 5.1 0 0 Z " fill="#FFFFFF" transform="translate(60,120)"/>
<path d="M0 0 C4.95 0 9.9 0 15 0 C15 4.95 15 9.9 15 15 C10.05 15 5.1 15 0 15 C0 10.05 0 5.1 0 0 Z " fill="#EEEEEE" transform="translate(45,120)"/>
<path d="M0 0 C4.95 0 9.9 0 15 0 C15 4.95 15 9.9 15 15 C10.05 15 5.1 15 0 15 C0 10.05 0 5.1 0 0 Z " fill="#FFFFFF" transform="translate(285,105)"/>
<path d="M0 0 C4.95 0 9.9 0 15 0 C15 4.95 15 9.9 15 15 C10.05 15 5.1 15 0 15 C0 10.05 0 5.1 0 0 Z " fill="#EEEEEE" transform="translate(120,105)"/>
<path d="M0 0 C4.95 0 9.9 0 15 0 C15 4.95 15 9.9 15 15 C10.05 15 5.1 15 0 15 C0 10.05 0 5.1 0 0 Z " fill="#FFFFFF" transform="translate(105,105)"/>
<path d="M0 0 C4.95 0 9.9 0 15 0 C15 4.95 15 9.9 15 15 C10.05 15 5.1 15 0 15 C0 10.05 0 5.1 0 0 Z " fill="#EEEEEE" transform="translate(90,105)"/>
<path d="M0 0 C4.95 0 9.9 0 15 0 C15 4.95 15 9.9 15 15 C10.05 15 5.1 15 0 15 C0 10.05 0 5.1 0 0 Z " fill="#FFFFFF" transform="translate(75,105)"/>
<path d="M0 0 C4.95 0 9.9 0 15 0 C15 4.95 15 9.9 15 15 C10.05 15 5.1 15 0 15 C0 10.05 0 5.1 0 0 Z " fill="#EEEEEE" transform="translate(60,105)"/>
<path d="M0 0 C4.95 0 9.9 0 15 0 C15 4.95 15 9.9 15 15 C10.05 15 5.1 15 0 15 C0 10.05 0 5.1 0 0 Z " fill="#EEEEEE" transform="translate(345,90)"/>
<path d="M0 0 C4.95 0 9.9 0 15 0 C15 4.95 15 9.9 15 15 C10.05 15 5.1 15 0 15 C0 10.05 0 5.1 0 0 Z " fill="#EEEEEE" transform="translate(285,90)"/>
<path d="M0 0 C4.95 0 9.9 0 15 0 C15 4.95 15 9.9 15 15 C10.05 15 5.1 15 0 15 C0 10.05 0 5.1 0 0 Z " fill="#FFFFFF" transform="translate(120,90)"/>
<path d="M0 0 C4.95 0 9.9 0 15 0 C15 4.95 15 9.9 15 15 C10.05 15 5.1 15 0 15 C0 10.05 0 5.1 0 0 Z " fill="#EEEEEE" transform="translate(105,90)"/>
<path d="M0 0 C4.95 0 9.9 0 15 0 C15 4.95 15 9.9 15 15 C10.05 15 5.1 15 0 15 C0 10.05 0 5.1 0 0 Z " fill="#FFFFFF" transform="translate(90,90)"/>
<path d="M0 0 C4.95 0 9.9 0 15 0 C15 4.95 15 9.9 15 15 C10.05 15 5.1 15 0 15 C0 10.05 0 5.1 0 0 Z " fill="#FFFFFF" transform="translate(60,90)"/>
<path d="M0 0 C4.95 0 9.9 0 15 0 C15 4.95 15 9.9 15 15 C10.05 15 5.1 15 0 15 C0 10.05 0 5.1 0 0 Z " fill="#FFFFFF" transform="translate(345,75)"/>
<path d="M0 0 C4.95 0 9.9 0 15 0 C15 4.95 15 9.9 15 15 C10.05 15 5.1 15 0 15 C0 10.05 0 5.1 0 0 Z " fill="#FFFFFF" transform="translate(135,75)"/>
<path d="M0 0 C4.95 0 9.9 0 15 0 C15 4.95 15 9.9 15 15 C10.05 15 5.1 15 0 15 C0 10.05 0 5.1 0 0 Z " fill="#EEEEEE" transform="translate(120,75)"/>
<path d="M0 0 C4.95 0 9.9 0 15 0 C15 4.95 15 9.9 15 15 C10.05 15 5.1 15 0 15 C0 10.05 0 5.1 0 0 Z " fill="#FFFFFF" transform="translate(105,75)"/>
<path d="M0 0 C4.95 0 9.9 0 15 0 C15 4.95 15 9.9 15 15 C10.05 15 5.1 15 0 15 C0 10.05 0 5.1 0 0 Z " fill="#FFFFFF" transform="translate(75,75)"/>
<path d="M0 0 C4.95 0 9.9 0 15 0 C15 4.95 15 9.9 15 15 C10.05 15 5.1 15 0 15 C0 10.05 0 5.1 0 0 Z " fill="#EEEEEE" transform="translate(0,75)"/>
<path d="M0 0 C4.95 0 9.9 0 15 0 C15 4.95 15 9.9 15 15 C10.05 15 5.1 15 0 15 C0 10.05 0 5.1 0 0 Z " fill="#EEEEEE" transform="translate(345,60)"/>
<path d="M0 0 C4.95 0 9.9 0 15 0 C15 4.95 15 9.9 15 15 C10.05 15 5.1 15 0 15 C0 10.05 0 5.1 0 0 Z " fill="#FFFFFF" transform="translate(330,60)"/>
<path d="M0 0 C4.95 0 9.9 0 15 0 C15 4.95 15 9.9 15 15 C10.05 15 5.1 15 0 15 C0 10.05 0 5.1 0 0 Z " fill="#EEEEEE" transform="translate(255,60)"/>
<path d="M0 0 C4.95 0 9.9 0 15 0 C15 4.95 15 9.9 15 15 C10.05 15 5.1 15 0 15 C0 10.05 0 5.1 0 0 Z " fill="#EEEEEE" transform="translate(195,60)"/>
<path d="M0 0 C4.95 0 9.9 0 15 0 C15 4.95 15 9.9 15 15 C10.05 15 5.1 15 0 15 C0 10.05 0 5.1 0 0 Z " fill="#EEEEEE" transform="translate(165,60)"/>
<path d="M0 0 C4.95 0 9.9 0 15 0 C15 4.95 15 9.9 15 15 C10.05 15 5.1 15 0 15 C0 10.05 0 5.1 0 0 Z " fill="#FFFFFF" transform="translate(150,60)"/>
<path d="M0 0 C4.95 0 9.9 0 15 0 C15 4.95 15 9.9 15 15 C10.05 15 5.1 15 0 15 C0 10.05 0 5.1 0 0 Z " fill="#EEEEEE" transform="translate(135,60)"/>
<path d="M0 0 C4.95 0 9.9 0 15 0 C15 4.95 15 9.9 15 15 C10.05 15 5.1 15 0 15 C0 10.05 0 5.1 0 0 Z " fill="#FFFFFF" transform="translate(120,60)"/>
<path d="M0 0 C4.95 0 9.9 0 15 0 C15 4.95 15 9.9 15 15 C10.05 15 5.1 15 0 15 C0 10.05 0 5.1 0 0 Z " fill="#FFFFFF" transform="translate(90,60)"/>
<path d="M0 0 C4.95 0 9.9 0 15 0 C15 4.95 15 9.9 15 15 C10.05 15 5.1 15 0 15 C0 10.05 0 5.1 0 0 Z " fill="#FFFFFF" transform="translate(0,60)"/>
<path d="M0 0 C4.95 0 9.9 0 15 0 C15 4.95 15 9.9 15 15 C10.05 15 5.1 15 0 15 C0 10.05 0 5.1 0 0 Z " fill="#FFFFFF" transform="translate(345,45)"/>
<path d="M0 0 C4.95 0 9.9 0 15 0 C15 4.95 15 9.9 15 15 C10.05 15 5.1 15 0 15 C0 10.05 0 5.1 0 0 Z " fill="#EEEEEE" transform="translate(330,45)"/>
<path d="M0 0 C4.95 0 9.9 0 15 0 C15 4.95 15 9.9 15 15 C10.05 15 5.1 15 0 15 C0 10.05 0 5.1 0 0 Z " fill="#FFFFFF" transform="translate(225,45)"/>
<path d="M0 0 C4.95 0 9.9 0 15 0 C15 4.95 15 9.9 15 15 C10.05 15 5.1 15 0 15 C0 10.05 0 5.1 0 0 Z " fill="#FFFFFF" transform="translate(195,45)"/>
<path d="M0 0 C4.95 0 9.9 0 15 0 C15 4.95 15 9.9 15 15 C10.05 15 5.1 15 0 15 C0 10.05 0 5.1 0 0 Z " fill="#EEEEEE" transform="translate(180,45)"/>
<path d="M0 0 C4.95 0 9.9 0 15 0 C15 4.95 15 9.9 15 15 C10.05 15 5.1 15 0 15 C0 10.05 0 5.1 0 0 Z " fill="#FFFFFF" transform="translate(165,45)"/>
<path d="M0 0 C4.95 0 9.9 0 15 0 C15 4.95 15 9.9 15 15 C10.05 15 5.1 15 0 15 C0 10.05 0 5.1 0 0 Z " fill="#EEEEEE" transform="translate(150,45)"/>
<path d="M0 0 C4.95 0 9.9 0 15 0 C15 4.95 15 9.9 15 15 C10.05 15 5.1 15 0 15 C0 10.05 0 5.1 0 0 Z " fill="#FFFFFF" transform="translate(135,45)"/>
<path d="M0 0 C4.95 0 9.9 0 15 0 C15 4.95 15 9.9 15 15 C10.05 15 5.1 15 0 15 C0 10.05 0 5.1 0 0 Z " fill="#EEEEEE" transform="translate(120,45)"/>
<path d="M0 0 C4.95 0 9.9 0 15 0 C15 4.95 15 9.9 15 15 C10.05 15 5.1 15 0 15 C0 10.05 0 5.1 0 0 Z " fill="#FFFFFF" transform="translate(15,45)"/>
<path d="M0 0 C4.95 0 9.9 0 15 0 C15 4.95 15 9.9 15 15 C10.05 15 5.1 15 0 15 C0 10.05 0 5.1 0 0 Z " fill="#EEEEEE" transform="translate(0,45)"/>
<path d="M0 0 C4.95 0 9.9 0 15 0 C15 4.95 15 9.9 15 15 C10.05 15 5.1 15 0 15 C0 10.05 0 5.1 0 0 Z " fill="#EEEEEE" transform="translate(345,30)"/>
<path d="M0 0 C4.95 0 9.9 0 15 0 C15 4.95 15 9.9 15 15 C10.05 15 5.1 15 0 15 C0 10.05 0 5.1 0 0 Z " fill="#FFFFFF" transform="translate(330,30)"/>
<path d="M0 0 C4.95 0 9.9 0 15 0 C15 4.95 15 9.9 15 15 C10.05 15 5.1 15 0 15 C0 10.05 0 5.1 0 0 Z " fill="#EEEEEE" transform="translate(315,30)"/>
<path d="M0 0 C4.95 0 9.9 0 15 0 C15 4.95 15 9.9 15 15 C10.05 15 5.1 15 0 15 C0 10.05 0 5.1 0 0 Z " fill="#FFFFFF" transform="translate(30,30)"/>
<path d="M0 0 C4.95 0 9.9 0 15 0 C15 4.95 15 9.9 15 15 C10.05 15 5.1 15 0 15 C0 10.05 0 5.1 0 0 Z " fill="#EEEEEE" transform="translate(15,30)"/>
<path d="M0 0 C4.95 0 9.9 0 15 0 C15 4.95 15 9.9 15 15 C10.05 15 5.1 15 0 15 C0 10.05 0 5.1 0 0 Z " fill="#FFFFFF" transform="translate(0,30)"/>
<path d="M0 0 C4.95 0 9.9 0 15 0 C15 4.95 15 9.9 15 15 C10.05 15 5.1 15 0 15 C0 10.05 0 5.1 0 0 Z " fill="#FFFFFF" transform="translate(345,15)"/>
<path d="M0 0 C4.95 0 9.9 0 15 0 C15 4.95 15 9.9 15 15 C10.05 15 5.1 15 0 15 C0 10.05 0 5.1 0 0 Z " fill="#EEEEEE" transform="translate(330,15)"/>
<path d="M0 0 C4.95 0 9.9 0 15 0 C15 4.95 15 9.9 15 15 C10.05 15 5.1 15 0 15 C0 10.05 0 5.1 0 0 Z " fill="#FFFFFF" transform="translate(315,15)"/>
<path d="M0 0 C4.95 0 9.9 0 15 0 C15 4.95 15 9.9 15 15 C10.05 15 5.1 15 0 15 C0 10.05 0 5.1 0 0 Z " fill="#EEEEEE" transform="translate(300,15)"/>
<path d="M0 0 C4.95 0 9.9 0 15 0 C15 4.95 15 9.9 15 15 C10.05 15 5.1 15 0 15 C0 10.05 0 5.1 0 0 Z " fill="#FFFFFF" transform="translate(285,15)"/>
<path d="M0 0 C4.95 0 9.9 0 15 0 C15 4.95 15 9.9 15 15 C10.05 15 5.1 15 0 15 C0 10.05 0 5.1 0 0 Z " fill="#EEEEEE" transform="translate(60,15)"/>
<path d="M0 0 C4.95 0 9.9 0 15 0 C15 4.95 15 9.9 15 15 C10.05 15 5.1 15 0 15 C0 10.05 0 5.1 0 0 Z " fill="#FFFFFF" transform="translate(45,15)"/>
<path d="M0 0 C4.95 0 9.9 0 15 0 C15 4.95 15 9.9 15 15 C10.05 15 5.1 15 0 15 C0 10.05 0 5.1 0 0 Z " fill="#EEEEEE" transform="translate(30,15)"/>
<path d="M0 0 C4.95 0 9.9 0 15 0 C15 4.95 15 9.9 15 15 C10.05 15 5.1 15 0 15 C0 10.05 0 5.1 0 0 Z " fill="#FFFFFF" transform="translate(15,15)"/>
<path d="M0 0 C4.95 0 9.9 0 15 0 C15 4.95 15 9.9 15 15 C10.05 15 5.1 15 0 15 C0 10.05 0 5.1 0 0 Z " fill="#EEEEEE" transform="translate(0,15)"/>
<path d="M0 0 C4.95 0 9.9 0 15 0 C15 4.95 15 9.9 15 15 C10.05 15 5.1 15 0 15 C0 10.05 0 5.1 0 0 Z " fill="#EEEEEE" transform="translate(345,0)"/>
<path d="M0 0 C4.95 0 9.9 0 15 0 C15 4.95 15 9.9 15 15 C10.05 15 5.1 15 0 15 C0 10.05 0 5.1 0 0 Z " fill="#FFFFFF" transform="translate(330,0)"/>
<path d="M0 0 C4.95 0 9.9 0 15 0 C15 4.95 15 9.9 15 15 C10.05 15 5.1 15 0 15 C0 10.05 0 5.1 0 0 Z " fill="#EEEEEE" transform="translate(315,0)"/>
<path d="M0 0 C4.95 0 9.9 0 15 0 C15 4.95 15 9.9 15 15 C10.05 15 5.1 15 0 15 C0 10.05 0 5.1 0 0 Z " fill="#FFFFFF" transform="translate(300,0)"/>
<path d="M0 0 C4.95 0 9.9 0 15 0 C15 4.95 15 9.9 15 15 C10.05 15 5.1 15 0 15 C0 10.05 0 5.1 0 0 Z " fill="#EEEEEE" transform="translate(285,0)"/>
<path d="M0 0 C4.95 0 9.9 0 15 0 C15 4.95 15 9.9 15 15 C10.05 15 5.1 15 0 15 C0 10.05 0 5.1 0 0 Z " fill="#FFFFFF" transform="translate(270,0)"/>
<path d="M0 0 C4.95 0 9.9 0 15 0 C15 4.95 15 9.9 15 15 C10.05 15 5.1 15 0 15 C0 10.05 0 5.1 0 0 Z " fill="#EEEEEE" transform="translate(255,0)"/>
<path d="M0 0 C4.95 0 9.9 0 15 0 C15 4.95 15 9.9 15 15 C10.05 15 5.1 15 0 15 C0 10.05 0 5.1 0 0 Z " fill="#EEEEEE" transform="translate(75,0)"/>
<path d="M0 0 C4.95 0 9.9 0 15 0 C15 4.95 15 9.9 15 15 C10.05 15 5.1 15 0 15 C0 10.05 0 5.1 0 0 Z " fill="#FFFFFF" transform="translate(60,0)"/>
<path d="M0 0 C4.95 0 9.9 0 15 0 C15 4.95 15 9.9 15 15 C10.05 15 5.1 15 0 15 C0 10.05 0 5.1 0 0 Z " fill="#EEEEEE" transform="translate(45,0)"/>
<path d="M0 0 C4.95 0 9.9 0 15 0 C15 4.95 15 9.9 15 15 C10.05 15 5.1 15 0 15 C0 10.05 0 5.1 0 0 Z " fill="#FFFFFF" transform="translate(30,0)"/>
<path d="M0 0 C4.95 0 9.9 0 15 0 C15 4.95 15 9.9 15 15 C10.05 15 5.1 15 0 15 C0 10.05 0 5.1 0 0 Z " fill="#FFFFFF" transform="translate(0,0)"/>
<path d="M0 0 C3.61328125 0.03255208 7.2265625 0.06510417 10.83984375 0.09765625 C10.83984375 5.04765625 10.83984375 9.99765625 10.83984375 15.09765625 C5.88984375 15.09765625 0.93984375 15.09765625 -4.16015625 15.09765625 C-4.2578125 4.2578125 -4.2578125 4.2578125 -4.16015625 1.09765625 C-3.16015625 0.09765625 -3.16015625 0.09765625 0 0 Z " fill="#EEEEEE" transform="translate(304.16015625,314.90234375)"/>
<path d="M0 0 C3.61328125 0.03255208 7.2265625 0.06510417 10.83984375 0.09765625 C10.83984375 5.04765625 10.83984375 9.99765625 10.83984375 15.09765625 C5.88984375 15.09765625 0.93984375 15.09765625 -4.16015625 15.09765625 C-4.2578125 4.2578125 -4.2578125 4.2578125 -4.16015625 1.09765625 C-3.16015625 0.09765625 -3.16015625 0.09765625 0 0 Z " fill="#EEEEEE" transform="translate(319.16015625,299.90234375)"/>
<path d="M0 0 C10.83984375 -0.09765625 10.83984375 -0.09765625 14 0 C15 1 15 1 15.09765625 4.16015625 C15.04882812 9.58007812 15.04882812 9.58007812 15 15 C10.05 15 5.1 15 0 15 C0 10.05 0 5.1 0 0 Z " fill="#EEEEEE" transform="translate(75,270)"/>
<path d="M0 0 C10.83984375 -0.09765625 10.83984375 -0.09765625 14 0 C15 1 15 1 15.09765625 4.16015625 C15.04882812 9.58007812 15.04882812 9.58007812 15 15 C10.05 15 5.1 15 0 15 C0 10.05 0 5.1 0 0 Z " fill="#EEEEEE" transform="translate(0,255)"/>
<path d="M0 0 C4.29 0 8.58 0 13 0 C13 4.95 13 9.9 13 15 C7.72 15 2.44 15 -3 15 C-2.25 4.5 -2.25 4.5 0 0 Z " fill="#FDFDFD" transform="translate(32,150)"/>
<path d="M0 0 C4.95 0 9.9 0 15 0 C15 4.95 15 9.9 15 15 C4.16015625 15.09765625 4.16015625 15.09765625 1 15 C0 14 0 14 -0.09765625 10.83984375 C-0.04882812 5.41992188 -0.04882812 5.41992188 0 0 Z " fill="#EEEEEE" transform="translate(270,75)"/>
<path d="M0 0 C4.95 0 9.9 0 15 0 C15.09765625 10.83984375 15.09765625 10.83984375 15 14 C14 15 14 15 10.83984375 15.09765625 C7.2265625 15.06510417 3.61328125 15.03255208 0 15 C0 10.05 0 5.1 0 0 Z " fill="#EEEEEE" transform="translate(30,45)"/>
<path d="M0 0 C4.95 0 9.9 0 15 0 C15.09765625 10.83984375 15.09765625 10.83984375 15 14 C14 15 14 15 10.83984375 15.09765625 C7.2265625 15.06510417 3.61328125 15.03255208 0 15 C0 10.05 0 5.1 0 0 Z " fill="#EEEEEE" transform="translate(45,30)"/>
<path d="M0 0 C1.83984375 1.77734375 1.83984375 1.77734375 2.01171875 4.4765625 C1.62109375 7.24348958 1.23046875 10.01041667 0.83984375 12.77734375 C-4.11015625 12.77734375 -9.06015625 12.77734375 -14.16015625 12.77734375 C-14.16015625 7.82734375 -14.16015625 2.87734375 -14.16015625 -2.22265625 C-7.07675045 -3.23457136 -5.66882688 -3.20857652 0 0 Z " fill="#EDEDED" transform="translate(254.16015625,47.22265625)"/>
<path d="M0 0 C2.041875 0.0309375 2.041875 0.0309375 4.125 0.0625 C4.125 5.0125 4.125 9.9625 4.125 15.0625 C-0.825 15.0625 -5.775 15.0625 -10.875 15.0625 C-10.875 10.4425 -10.875 5.8225 -10.875 1.0625 C-6.91591662 0.40265277 -3.87795662 -0.05875692 0 0 Z " fill="#EEEEEE" transform="translate(205.875,269.9375)"/>
<path d="M0 0 C4.95 0 9.9 0 15 0 C15.08070352 5.32643248 14.88668636 9.67988187 14 15 C9.38 15 4.76 15 0 15 C0 10.05 0 5.1 0 0 Z " fill="#EEEEEE" transform="translate(75,150)"/>
<path d="M0 0 C11.625 -0.25 11.625 -0.25 15 2 C15.546875 4.78515625 15.546875 4.78515625 15.75 8.0625 C15.82734375 9.14660156 15.9046875 10.23070312 15.984375 11.34765625 C15.98953125 12.22292969 15.9946875 13.09820312 16 14 C15 15 15 15 11.62109375 15.09765625 C10.22652508 15.09191424 8.83198403 15.07890228 7.4375 15.0625 C4.983125 15.041875 2.52875 15.02125 0 15 C0 10.05 0 5.1 0 0 Z " fill="#ECECEC" transform="translate(315,150)"/>
<path d="M0 0 C4.95 0 9.9 0 15 0 C15 4.62 15 9.24 15 14 C10.05 14 5.1 14 0 14 C0 9.38 0 4.76 0 0 Z " fill="#EEEEEE" transform="translate(165,271)"/>
<path d="M0 0 C4.95 0 9.9 0 15 0 C15 4.62 15 9.24 15 14 C10.05 14 5.1 14 0 14 C0 9.38 0 4.76 0 0 Z " fill="#EEEEEE" transform="translate(135,271)"/>
<path d="M0 0 C4.95 0 9.9 0 15 0 C15 4.62 15 9.24 15 14 C10.05 14 5.1 14 0 14 C0 9.38 0 4.76 0 0 Z " fill="#EEEEEE" transform="translate(105,271)"/>
<path d="M0 0 C4.62 0 9.24 0 14 0 C14 4.95 14 9.9 14 15 C9.38 15 4.76 15 0 15 C0 10.05 0 5.1 0 0 Z " fill="#EEEEEE" transform="translate(75,240)"/>
<path d="M0 0 C4.62 0 9.24 0 14 0 C14 4.95 14 9.9 14 15 C9.38 15 4.76 15 0 15 C0 10.05 0 5.1 0 0 Z " fill="#EEEEEE" transform="translate(75,210)"/>
<path d="M0 0 C4.62 0 9.24 0 14 0 C14 4.95 14 9.9 14 15 C9.38 15 4.76 15 0 15 C0 10.05 0 5.1 0 0 Z " fill="#EEEEEE" transform="translate(75,180)"/>
<path d="M0 0 C4.62 0 9.24 0 14 0 C14 4.95 14 9.9 14 15 C9.38 15 4.76 15 0 15 C0 10.05 0 5.1 0 0 Z " fill="#EEEEEE" transform="translate(271,165)"/>
<path d="M0 0 C4.62 0 9.24 0 14 0 C14 4.95 14 9.9 14 15 C9.38 15 4.76 15 0 15 C0 10.05 0 5.1 0 0 Z " fill="#EEEEEE" transform="translate(271,135)"/>
<path d="M0 0 C4.62 0 9.24 0 14 0 C14 4.95 14 9.9 14 15 C9.38 15 4.76 15 0 15 C0 10.05 0 5.1 0 0 Z " fill="#EEEEEE" transform="translate(271,105)"/>
<path d="M0 0 C4.95 0 9.9 0 15 0 C15 4.62 15 9.24 15 14 C10.05 14 5.1 14 0 14 C0 9.38 0 4.76 0 0 Z " fill="#EEEEEE" transform="translate(240,75)"/>
<path d="M0 0 C4.95 0 9.9 0 15 0 C15 4.62 15 9.24 15 14 C10.05 14 5.1 14 0 14 C0 9.38 0 4.76 0 0 Z " fill="#EEEEEE" transform="translate(210,75)"/>
<path d="M0 0 C4.95 0 9.9 0 15 0 C15 4.62 15 9.24 15 14 C10.05 14 5.1 14 0 14 C0 9.38 0 4.76 0 0 Z " fill="#EEEEEE" transform="translate(180,75)"/>
<path d="M0 0 C16.17 0 32.34 0 49 0 C49 3.3 49 6.6 49 10 C47.44023437 9.55914062 45.88046875 9.11828125 44.2734375 8.6640625 C38.10273965 6.98365806 31.8953738 5.62598947 25.625 4.375 C24.53388916 4.15626221 23.44277832 3.93752441 22.31860352 3.7121582 C14.87611221 2.26271125 7.59525213 1.16609895 0 1 C0 0.67 0 0.34 0 0 Z " fill="#EDEDED" transform="translate(191,0)"/>
<path d="M0 0 C3.63 0 7.26 0 11 0 C11 4.95 11 9.9 11 15 C6.05 15 1.1 15 -4 15 C-5 13 -5 13 -4.00390625 9.9609375 C-3.52824219 8.77757812 -3.05257813 7.59421875 -2.5625 6.375 C-2.08941406 5.18648437 -1.61632812 3.99796875 -1.12890625 2.7734375 C-0.75636719 1.85820312 -0.38382812 0.94296875 0 0 Z " fill="#ECECEC" transform="translate(349,240)"/>
<path d="M0 0 C0.33 0 0.66 0 1 0 C1.09796875 1.15113281 1.1959375 2.30226562 1.296875 3.48828125 C2.43585857 15.92614007 4.31606127 28.15384089 7.60546875 40.22119141 C9.09676394 45.70970818 9.09676394 45.70970818 8 49 C5.36 49 2.72 49 0 49 C0 32.83 0 16.66 0 0 Z " fill="#EDEDED" transform="translate(0,191)"/>
<path d="M0 0 C1.5675 0.433125 3.135 0.86625 4.75 1.3125 C6.28140625 1.72435547 6.28140625 1.72435547 7.84375 2.14453125 C9.76544437 2.66538653 11.68339583 3.20069607 13.59375 3.76171875 C24.16860478 6.70090633 35.12715068 7.71068017 46 9 C46 9.33 46 9.66 46 10 C30.82 10 15.64 10 0 10 C0 6.7 0 3.4 0 0 Z " fill="#EDEDED" transform="translate(120,350)"/>
<path d="M0 0 C0 5.28 0 10.56 0 16 C-4.95 16 -9.9 16 -15 16 C-15 12.37 -15 8.74 -15 5 C-12.8765984 4.16260219 -10.7512272 3.33019717 -8.625 2.5 C-7.44164062 2.0359375 -6.25828125 1.571875 -5.0390625 1.09375 C-2 0 -2 0 0 0 Z " fill="#ECECEC" transform="translate(255,344)"/>
<path d="M0 0 C0.66 0.33 1.32 0.66 2 1 C2.81532068 3.52630386 3.50172821 5.98861836 4.125 8.5625 C4.30675781 9.25408203 4.48851562 9.94566406 4.67578125 10.65820312 C5.88914865 15.55272652 6.17006292 19.96046893 6 25 C5.67 25 5.34 25 5 25 C4.67 23.02 4.34 21.04 4 19 C0.04 18.67 -3.92 18.34 -8 18 C-8 13.05 -8 8.1 -8 3 C-5.36 3 -2.72 3 0 3 C0 2.01 0 1.02 0 0 Z " fill="#FBFBFB" transform="translate(323,132)"/>
<path d="M0 0 C3.3 0 6.6 0 10 0 C10 15.18 10 30.36 10 46 C9.67 46 9.34 46 9 46 C8.91081299 45.11985229 8.91081299 45.11985229 8.81982422 44.22192383 C7.3466581 30.24854979 4.80295319 17.17235482 0.50317383 3.78979492 C0 2 0 2 0 0 Z " fill="#EEEEEE" transform="translate(350,120)"/>
<path d="M0 0 C4.62 0 9.24 0 14 0 C15.11581881 4.46327524 14.68986512 5.60761606 13.0625 9.75 C12.68222656 10.73484375 12.30195313 11.7196875 11.91015625 12.734375 C11.60980469 13.48203125 11.30945312 14.2296875 11 15 C7.37 15 3.74 15 0 15 C0 10.05 0 5.1 0 0 Z " fill="#EDEDED" transform="translate(0,105)"/>
<path d="M0 0 C4.95 0 9.9 0 15 0 C15 3.63 15 7.26 15 11 C13.06643218 11.69848264 11.12797702 12.38344814 9.1875 13.0625 C8.10855469 13.44535156 7.02960938 13.82820312 5.91796875 14.22265625 C3 15 3 15 0 14 C0 9.38 0 4.76 0 0 Z " fill="#EDEDED" transform="translate(105,0)"/>
<path d="M0 0 C4.95 0 9.9 0 15 0 C15 4.29 15 8.58 15 13 C8.97160702 13.39315606 3.59552979 12.33683045 -2 10 C-2.33 9.34 -2.66 8.68 -3 8 C-2.01 8 -1.02 8 0 8 C0 5.36 0 2.72 0 0 Z " fill="#FBFBFB" transform="translate(135,315)"/>
<path d="M0 0 C4.29 0 8.58 0 13 0 C13 4.95 13 9.9 13 15 C9.7 15.33 6.4 15.66 3 16 C1.08687674 10.10120328 0 6.29769647 0 0 Z " fill="#FDFDFD" transform="translate(32,210)"/>
<path d="M0 0 C3.96 0 7.92 0 12 0 C13.5197276 6.3552245 12.1663492 10.91708727 10 17 C9.67 16.34 9.34 15.68 9 15 C6.03 15 3.06 15 0 15 C0 10.05 0 5.1 0 0 Z " fill="#ECECEC" transform="translate(315,210)"/>
<path d="M0 0 C0 4.95 0 9.9 0 15 C-4.62 15.33 -9.24 15.66 -14 16 C-12.05236486 4.31418919 -12.05236486 4.31418919 -10 1 C-6.78548731 -0.60725635 -3.56387464 -0.05748185 0 0 Z " fill="#ECECEC" transform="translate(45,135)"/>
<path d="M0 0 C0 3.96 0 7.92 0 12 C-4.95 12 -9.9 12 -15 12 C-15.125 3.25 -15.125 3.25 -14 1 C-8.93135582 -0.92608479 -5.29132198 -1.07986163 0 0 Z " fill="#ECECEC" transform="translate(150,33)"/>
<path d="M0 0 C4.95 0 9.9 0 15 0 C15.25 7.625 15.25 7.625 13 11 C8.76483193 12.37020143 4.40355236 12.07463648 0 12 C0 8.04 0 4.08 0 0 Z " fill="#EDEDED" transform="translate(210,315)"/>
<path d="M0 0 C4.95 0 9.9 0 15 0 C15 4.95 15 9.9 15 15 C13.02 15 11.04 15 9 15 C8.67 12.36 8.34 9.72 8 7 C5.36 6.67 2.72 6.34 0 6 C0 4.02 0 2.04 0 0 Z " fill="#EEEEEE" transform="translate(195,150)"/>
<path d="M0 0 C2 2 2 2 2.22705078 4.06298828 C2.21134033 5.30411377 2.21134033 5.30411377 2.1953125 6.5703125 C2.18564453 7.91416016 2.18564453 7.91416016 2.17578125 9.28515625 C2.15902344 10.22230469 2.14226563 11.15945312 2.125 12.125 C2.11597656 13.06988281 2.10695313 14.01476562 2.09765625 14.98828125 C2.07404522 17.32577292 2.04111516 19.66276123 2 22 C0.72125 22.12375 -0.5575 22.2475 -1.875 22.375 C-5.34790936 22.69042399 -5.34790936 22.69042399 -8 25 C-7.49415394 18.73035874 -5.95028185 13.74207972 -3.4375 8 C-3.10814453 7.22527344 -2.77878906 6.45054688 -2.43945312 5.65234375 C-1.63531413 3.76436524 -0.81892829 1.8816107 0 0 Z " fill="#F9F9F9" transform="translate(43,113)"/>
<path d="M0 0 C-0.99 0.33 -1.98 0.66 -3 1 C-3 3.97 -3 6.94 -3 10 C-9.93 10 -16.86 10 -24 10 C-24.33 9.34 -24.66 8.68 -25 8 C-21.77660487 6.65240132 -18.54544684 5.32450141 -15.3125 4 C-14.40048828 3.6184375 -13.48847656 3.236875 -12.54882812 2.84375 C-11.66259766 2.4828125 -10.77636719 2.121875 -9.86328125 1.75 C-9.05157471 1.41484375 -8.23986816 1.0796875 -7.40356445 0.734375 C-4.81531415 -0.05642814 -2.69063295 -0.13400818 0 0 Z " fill="#F7F7F7" transform="translate(138,35)"/>
<path d="M0 0 C7.59 0 15.18 0 23 0 C23 2.31 23 4.62 23 7 C18.05 7 13.1 7 8 7 C8 5.02 8 3.04 8 1 C5.36 1 2.72 1 0 1 C0 0.67 0 0.34 0 0 Z " fill="#FFFFFF" transform="translate(247,203)"/>
<path d="M0 0 C2.31 0 4.62 0 7 0 C7 7.59 7 15.18 7 23 C6.67 23 6.34 23 6 23 C6 20.36 6 17.72 6 15 C4.02 15 2.04 15 0 15 C0 10.05 0 5.1 0 0 Z " fill="#FFFFFF" transform="translate(150,90)"/>
<path d="M0 0 C2.31 0 4.62 0 7 0 C7 4.95 7 9.9 7 15 C4.69 15 2.38 15 0 15 C0 10.05 0 5.1 0 0 Z " fill="#FFFFFF" transform="translate(203,255)"/>
<path d="M0 0 C6.875 5.75 6.875 5.75 8 8 C10.02463255 8.65213292 10.02463255 8.65213292 12 9 C12.33 10.32 12.66 11.64 13 13 C8.71 13 4.42 13 0 13 C0 8.71 0 4.42 0 0 Z " fill="#EEEEEE" transform="translate(45,302)"/>
<path d="M0 0 C1.98 0 3.96 0 6 0 C6 4.95 6 9.9 6 15 C4.02 15 2.04 15 0 15 C0 10.05 0 5.1 0 0 Z " fill="#EEEEEE" transform="translate(204,240)"/>
<path d="M0 0 C1.98 0 3.96 0 6 0 C6 4.95 6 9.9 6 15 C4.02 15 2.04 15 0 15 C0 10.05 0 5.1 0 0 Z " fill="#EEEEEE" transform="translate(240,165)"/>
<path d="M0 0 C4.95 0 9.9 0 15 0 C15 1.98 15 3.96 15 6 C10.05 6 5.1 6 0 6 C0 4.02 0 2.04 0 0 Z " fill="#EEEEEE" transform="translate(105,150)"/>
<path d="M0 0 C1.98 0 3.96 0 6 0 C6 4.95 6 9.9 6 15 C4.02 15 2.04 15 0 15 C0 10.05 0 5.1 0 0 Z " fill="#EEEEEE" transform="translate(240,135)"/>
<path d="M0 0 C4.95 0 9.9 0 15 0 C15 1.98 15 3.96 15 6 C10.05 6 5.1 6 0 6 C0 4.02 0 2.04 0 0 Z " fill="#EEEEEE" transform="translate(210,114)"/>
<path d="M0 0 C4.95 0 9.9 0 15 0 C15 1.98 15 3.96 15 6 C10.05 6 5.1 6 0 6 C0 4.02 0 2.04 0 0 Z " fill="#EEEEEE" transform="translate(180,114)"/>
<path d="M0 0 C4.29 0 8.58 0 13 0 C13 4.29 13 8.58 13 13 C10.95880212 11.38405168 8.95927063 9.7143618 7 8 C7 7.34 7 6.68 7 6 C6.401875 5.7525 5.80375 5.505 5.1875 5.25 C3 4 3 4 0 0 Z " fill="#EEEEEE" transform="translate(302,45)"/>
<path d="M0 0 C0.33 0 0.66 0 1 0 C1 7.59 1 15.18 1 23 C4.63 23.33 8.26 23.66 12 24 C12 24.66 12 25.32 12 26 C7.05 26 2.1 26 -3 26 C-3 21.05 -3 16.1 -3 11 C-2.34 11 -1.68 11 -1 11 C-0.67 7.37 -0.34 3.74 0 0 Z " fill="#E6E6E6" transform="translate(123,124)"/>
<path d="M0 0 C2.67800344 3.57067125 4.75277796 7.1050415 6.75 11.0625 C7.07871094 11.68705078 7.40742188 12.31160156 7.74609375 12.95507812 C8.57749772 14.59859188 9.29674412 16.29770708 10 18 C9.67 18.99 9.34 19.98 9 21 C8.34 20.01 7.68 19.02 7 18 C4.69 17.67 2.38 17.34 0 17 C0 11.39 0 5.78 0 0 Z " fill="#F5F5F5" transform="translate(15,253)"/>
<path d="M0 0 C0.66 0 1.32 0 2 0 C2 3.63 2 7.26 2 11 C9.92 11 17.84 11 26 11 C26 11.33 26 11.66 26 12 C22.37 12.33 18.74 12.66 15 13 C15 13.66 15 14.32 15 15 C10.05 15 5.1 15 0 15 C0 10.05 0 5.1 0 0 Z " fill="#E5E5E5" transform="translate(210,225)"/>
<path d="M0 0 C3.66172475 0.62678171 6.8818995 1.64451846 10.3125 3.0625 C11.19550781 3.42472656 12.07851562 3.78695312 12.98828125 4.16015625 C13.65214844 4.43730469 14.31601563 4.71445312 15 5 C15 5.99 15 6.98 15 8 C10.05 8 5.1 8 0 8 C0 5.36 0 2.72 0 0 Z " fill="#EEEEEE" transform="translate(225,37)"/>
<path d="M0 0 C5.61 0 11.22 0 17 0 C17.33 2.31 17.66 4.62 18 7 C18.99 8.485 18.99 8.485 20 10 C15.26210835 8.55676531 11.01141849 6.62773267 6.625 4.375 C5.66400391 3.88773438 5.66400391 3.88773438 4.68359375 3.390625 C3.12052499 2.59742593 1.55999378 1.79922969 0 1 C0 0.67 0 0.34 0 0 Z " fill="#F6F6F6" transform="translate(253,15)"/>
<path d="M0 0 C7.03493054 0.75557648 14.04798114 1.63755713 21.0625 2.5625 C22.64708008 2.77036133 22.64708008 2.77036133 24.26367188 2.98242188 C26.84255246 3.32082702 29.42132457 3.66003572 32 4 C32 4.33 32 4.66 32 5 C21.77 5 11.54 5 1 5 C0.67 3.35 0.34 1.7 0 0 Z " fill="#F6F6F6" transform="translate(134,355)"/>
<path d="M0 0 C0.33 0 0.66 0 1 0 C1 10.23 1 20.46 1 31 C-0.32 31 -1.64 31 -3 31 C-4.52509921 27.02457474 -3.48648984 23.44679555 -2.625 19.4375 C-1.31473852 12.96970054 -0.40526588 6.59605158 0 0 Z " fill="#E9E9E9" transform="translate(359,194)"/>
<path d="M0 0 C2.475 0.495 2.475 0.495 5 1 C5 11.23 5 21.46 5 32 C4.67 32 4.34 32 4 32 C3.51937028 28.35435802 3.04076712 24.70845262 2.5625 21.0625 C2.42779297 20.04091797 2.29308594 19.01933594 2.15429688 17.96679688 C1.37056428 11.98366756 0.64439593 5.99976404 0 0 Z " fill="#F5F5F5" transform="translate(355,134)"/>
<path d="M0 0 C1.32 0 2.64 0 4 0 C5.607819 4.09457905 4.45476606 7.97344768 3.625 12.125 C2.43439477 18.41512926 1.50707025 24.61091482 1 31 C0.67 31 0.34 31 0 31 C0 20.77 0 10.54 0 0 Z " fill="#ECECEC" transform="translate(0,135)"/>
<path d="M0 0 C10.23 0 20.46 0 31 0 C31 0.33 31 0.66 31 1 C30.0553186 1.12846313 30.0553186 1.12846313 29.09155273 1.25952148 C26.20683572 1.65194051 23.32216755 2.04471753 20.4375 2.4375 C19.44685547 2.57220703 18.45621094 2.70691406 17.43554688 2.84570312 C15.98051758 3.04389648 15.98051758 3.04389648 14.49609375 3.24609375 C13.5510498 3.3735498 12.60600586 3.50100586 11.63232422 3.63232422 C9.38559107 3.9461417 7.14945849 4.29845407 4.91015625 4.66015625 C2 5 2 5 0 4 C0 2.68 0 1.36 0 0 Z " fill="#ECECEC" transform="translate(135,0)"/>
<path d="M0 0 C0 1.32 0 2.64 0 4 C-10.23 4 -20.46 4 -31 4 C-31 3.67 -31 3.34 -31 3 C-29.88882813 2.87882812 -28.77765625 2.75765625 -27.6328125 2.6328125 C-16.73046258 1.4220432 -16.73046258 1.4220432 -5.98046875 -0.73046875 C-3.72579041 -1.03731846 -2.15393072 -0.68248142 0 0 Z " fill="#ECECEC" transform="translate(225,356)"/>
<path d="M0 0 C3.85025879 0.60355408 6.86101159 1.76772603 10.3125 3.5625 C11.19550781 4.01753906 12.07851562 4.47257812 12.98828125 4.94140625 C13.65214844 5.29074219 14.31601563 5.64007813 15 6 C15 6.66 15 7.32 15 8 C10.05 8 5.1 8 0 8 C0 5.36 0 2.72 0 0 Z " fill="#F7F7F7" transform="translate(90,337)"/>
<path d="M0 0 C2.64 0 5.28 0 8 0 C8 4.95 8 9.9 8 15 C7.34 15 6.68 15 6 15 C4.99267601 13.06629769 3.99436712 11.12789694 3 9.1875 C2.443125 8.10855469 1.88625 7.02960938 1.3125 5.91796875 C0 3 0 3 0 0 Z " fill="#F7F7F7" transform="translate(337,90)"/>
<path d="M0 0 C0.66 0.33 1.32 0.66 2 1 C1.67 3.64 1.34 6.28 1 9 C-1.12472576 9.05386629 -3.24983652 9.09273071 -5.375 9.125 C-7.15003906 9.15980469 -7.15003906 9.15980469 -8.9609375 9.1953125 C-12 9 -12 9 -14 7 C-11.71296692 5.80274117 -9.42115138 4.61702982 -7.125 3.4375 C-6.14853516 2.92413086 -6.14853516 2.92413086 -5.15234375 2.40039062 C-3.46470143 1.53917109 -1.73420407 0.76313297 0 0 Z " fill="#EBEBEB" transform="translate(269,336)"/>
<path d="M0 0 C2 2 2 2 2.1953125 5.0390625 C2.17210937 6.22242188 2.14890625 7.40578125 2.125 8.625 C2.10695313 9.81351562 2.08890625 11.00203125 2.0703125 12.2265625 C2.04710937 13.14179688 2.02390625 14.05703125 2 15 C-2.455 15.495 -2.455 15.495 -7 16 C-5.35433477 10.31497465 -2.70967216 5.23318364 0 0 Z " fill="#EDEDED" transform="translate(343,255)"/>
<path d="M0 0 C4.29 0 8.58 0 13 0 C12 3 12 3 9.78515625 4.421875 C8.43744141 5.07929688 8.43744141 5.07929688 7.0625 5.75 C6.16660156 6.19859375 5.27070312 6.6471875 4.34765625 7.109375 C3.57292969 7.40328125 2.79820313 7.6971875 2 8 C1.34 7.67 0.68 7.34 0 7 C0 4.69 0 2.38 0 0 Z " fill="#EBEBEB" transform="translate(90,15)"/>
<path d="M0 0 C2.31 0 4.62 0 7 0 C8 3 8 3 7.109375 5.2265625 C6.66078125 6.01804687 6.2121875 6.80953125 5.75 7.625 C5.31171875 8.42164062 4.8734375 9.21828125 4.421875 10.0390625 C3 12 3 12 0 13 C0 8.71 0 4.42 0 0 Z " fill="#ECECEC" transform="translate(15,90)"/>
<path d="M0 0 C4.95 0 9.9 0 15 0 C15 4.95 15 9.9 15 15 C14.34 15 13.68 15 13 15 C13 11.37 13 7.74 13 4 C12.34 4 11.68 4 11 4 C11 3.34 11 2.68 11 2 C7.37 2 3.74 2 0 2 C0 1.34 0 0.68 0 0 Z " fill="#EEEEEE" transform="translate(225,120)"/>
<path d="M0 0 C9.57 0 19.14 0 29 0 C28.01 0.33 27.02 0.66 26 1 C26 1.66 26 2.32 26 3 C21.05 3 16.1 3 11 3 C11 2.34 11 1.68 11 1 C7.37 1 3.74 1 0 1 C0 0.67 0 0.34 0 0 Z " fill="#FEFEFE" transform="translate(154,147)"/>
<path d="M0 0 C0 8.91 0 17.82 0 27 C-0.33 27 -0.66 27 -1 27 C-1 23.37 -1 19.74 -1 16 C-1.66 16 -2.32 16 -3 16 C-3 11.05 -3 6.1 -3 1 C-1 0 -1 0 0 0 Z " fill="#FFFFFF" transform="translate(213,209)"/>
<path d="M0 0 C6.59150864 0.43943391 12.2404983 2.801384 18 6 C18.33 6.66 18.66 7.32 19 8 C16.69 8 14.38 8 12 8 C12 7.01 12 6.02 12 5 C11.30132812 4.80664062 10.60265625 4.61328125 9.8828125 4.4140625 C8.51769531 4.02347656 8.51769531 4.02347656 7.125 3.625 C5.76761719 3.24214844 5.76761719 3.24214844 4.3828125 2.8515625 C2 2 2 2 0 0 Z " fill="#F5F5F5" transform="translate(228,37)"/>
<path d="M0 0 C1.98 0 3.96 0 6 0 C6 1.98 6 3.96 6 6 C4.02 6 2.04 6 0 6 C0 4.02 0 2.04 0 0 Z " fill="#EEEEEE" transform="translate(240,114)"/>
<path d="M0 0 C1.63001953 0.15275391 1.63001953 0.15275391 3.29296875 0.30859375 C4.54013672 0.43427734 4.54013672 0.43427734 5.8125 0.5625 C5.8125 1.2225 5.8125 1.8825 5.8125 2.5625 C0.8625 2.5625 -4.0875 2.5625 -9.1875 2.5625 C-9.1875 1.9025 -9.1875 1.2425 -9.1875 0.5625 C-5.76060364 -0.57979879 -3.57647782 -0.34611076 0 0 Z " fill="#EEEEEE" transform="translate(189.1875,147.4375)"/>
<path d="M0 0 C1.63001953 0.15275391 1.63001953 0.15275391 3.29296875 0.30859375 C4.54013672 0.43427734 4.54013672 0.43427734 5.8125 0.5625 C5.8125 1.2225 5.8125 1.8825 5.8125 2.5625 C0.8625 2.5625 -4.0875 2.5625 -9.1875 2.5625 C-9.1875 1.9025 -9.1875 1.2425 -9.1875 0.5625 C-5.76060364 -0.57979879 -3.57647782 -0.34611076 0 0 Z " fill="#EEEEEE" transform="translate(159.1875,147.4375)"/>
<path d="M0 0 C0.99 0.33 1.98 0.66 3 1 C-0.465 3.97 -0.465 3.97 -4 7 C-4.66 6.67 -5.32 6.34 -6 6 C-4.02 4.02 -2.04 2.04 0 0 Z " fill="#E4E4E4" transform="translate(70,75)"/>
<path d="M0 0 C2 2 2 2 2.125 4.625 C2.08375 5.40875 2.0425 6.1925 2 7 C0.68 6.67 -0.64 6.34 -2 6 C-1.34 4.02 -0.68 2.04 0 0 Z " fill="#EBEBEB" transform="translate(43,113)"/>
</svg>
