<?xml version="1.0" encoding="UTF-8"?>
<svg version="1.1" xmlns="http://www.w3.org/2000/svg" width="2048" height="2048">
<path d="M0 0 C1.35129761 -0.00274646 2.70259499 -0.00560364 4.05389214 -0.00856781 C10.42644339 -0.02220038 16.7989822 -0.03188148 23.171547 -0.0357697 C29.68238275 -0.03976943 36.19307109 -0.05193087 42.70385742 -0.078125 C74.58604038 -0.20370408 106.27703301 -0.10572008 138.02734375 3.203125 C140.67206492 3.45269678 143.31680868 3.70195287 145.96179199 3.94873047 C148.19537047 4.22381927 150.36317198 4.65069065 152.5625 5.125 C159.3189607 6.54851864 166.16988781 7.29578348 173.01620483 8.1463623 C229.28513046 15.19566924 286.166655 26.25475773 340.02734375 44.203125 C340.72672058 44.43602234 341.42609741 44.66891968 342.14666748 44.90887451 C371.0834182 54.5590226 399.8612774 64.59501214 428.15234375 76.015625 C428.81702667 76.28271271 429.48170959 76.54980042 430.16653442 76.82498169 C437.66725946 79.84766193 444.99093212 83.08676501 452.19335938 86.77124023 C456.80180948 89.09968267 461.51310792 91.19635171 466.21484375 93.328125 C478.47137253 98.93555405 490.59972404 104.79745234 502.71484375 110.703125 C503.6206015 111.14368225 504.52635925 111.5842395 505.45956421 112.03814697 C508.07079508 113.30904844 510.68024123 114.58353572 513.2890625 115.859375 C514.4564093 116.42753433 514.4564093 116.42753433 515.64733887 117.00717163 C520.21181417 119.24695166 524.6387672 121.63505144 529.02734375 124.203125 C529.02734375 124.863125 529.02734375 125.523125 529.02734375 126.203125 C530.23003906 126.54730469 530.23003906 126.54730469 531.45703125 126.8984375 C535.95599839 128.5424802 539.97751812 130.7459726 544.15234375 133.078125 C545.46090332 133.8040686 545.46090332 133.8040686 546.79589844 134.54467773 C556.33956952 139.87684893 565.70495455 145.4950259 575.02734375 151.203125 C575.77064941 151.65606934 576.51395508 152.10901367 577.27978516 152.57568359 C584.89810369 157.22609282 592.29321047 162.00440111 599.45703125 167.33984375 C602.95129252 169.87291765 606.58494596 172.15040047 610.23828125 174.4453125 C627.20406065 185.13803061 643.21463746 197.17459173 658.95800781 209.57470703 C660.87043202 211.07964679 662.78753783 212.57831239 664.70703125 214.07421875 C672.96723003 220.52029959 681.11008591 227.10536903 689.22314453 233.73535156 C690.80553943 235.02268013 692.39806519 236.29753501 693.9921875 237.5703125 C700.54707762 242.82577506 706.68234969 248.45043704 712.8046875 254.1953125 C715.84528706 257.0453807 718.95082799 259.80801311 722.10546875 262.53125 C725.22264203 265.24293732 728.27719325 268.02393468 731.33984375 270.796875 C732.75337471 272.0624783 734.17109109 273.32418697 735.62231445 274.54638672 C742.88887932 280.71894549 749.50159397 287.56905394 756.21484375 294.328125 C757.48479062 295.60309912 758.75497124 296.87784046 760.02539062 298.15234375 C762.35715965 300.4922184 764.68757569 302.83342185 767.01635742 305.17626953 C771.99837952 310.187864 771.99837952 310.187864 777.01953125 315.16015625 C780.91537761 318.99942392 784.61832982 322.93432652 788.1875 327.078125 C791.73625716 331.17690184 795.39389456 335.17950677 799.02734375 339.203125 C810.7531644 352.18809418 822.28683901 365.29855176 833.03759766 379.10742188 C835.85680914 382.72650266 838.72710976 386.29346727 841.65234375 389.828125 C845.38021794 394.35953391 848.92528364 398.99993952 852.4140625 403.71728516 C854.20060013 406.11674839 856.02003971 408.48630317 857.86474609 410.84130859 C866.27488897 421.61033846 873.91633776 432.77826757 881.40234375 444.203125 C883.0948343 446.77996249 884.7892247 449.35548764 886.48794556 451.92822266 C887.53031136 453.50741888 888.56918568 455.08892849 889.60360718 456.67333984 C892.68747788 461.35193077 895.99758549 465.7703191 899.46682739 470.16949463 C901.30751481 472.56823772 902.88387962 475.0414114 904.38671875 477.6640625 C904.939646 478.62078857 905.49257324 479.57751465 906.06225586 480.56323242 C906.62823486 481.55814697 907.19421387 482.55306152 907.77734375 483.578125 C908.38006104 484.62524658 908.98277832 485.67236816 909.60375977 486.7512207 C910.83034777 488.88265013 912.05441566 491.01553193 913.27587891 493.14990234 C914.88325816 495.95194932 916.50386114 498.74561005 918.1328125 501.53515625 C933.02734375 527.04886673 933.02734375 527.04886673 933.02734375 530.203125 C933.68734375 530.203125 934.34734375 530.203125 935.02734375 530.203125 C942.46443897 542.85536846 948.81298053 555.91541012 955.02734375 569.203125 C955.6193144 570.46621696 956.2114425 571.72923514 956.80371094 572.9921875 C957.10981796 573.64498688 957.41592499 574.29778625 957.73130798 574.97036743 C958.36322067 576.3178666 958.99518925 577.66533956 959.62721252 579.01278687 C961.24933247 582.47227461 962.86824205 585.93320334 964.48120117 589.39697266 C967.21397862 595.25855851 969.95109125 601.10942496 972.8671875 606.8828125 C989.87310951 640.69194112 1001.13805325 677.46565697 1013.04736328 713.28417969 C1014.29378169 717.02850566 1015.56345009 720.76298291 1016.86279297 724.48925781 C1021.73930776 738.56993259 1025.46903371 752.86407488 1029.02734375 767.328125 C1029.33271057 768.56144562 1029.63807739 769.79476624 1029.95269775 771.06546021 C1034.88467278 791.01739456 1039.49579011 810.95528087 1043.02734375 831.203125 C1043.26520599 832.56250183 1043.26520599 832.56250183 1043.50787354 833.94934082 C1047.58972829 857.36421525 1051.41064714 880.78927237 1053.92456055 904.42993164 C1054.12819214 906.34213501 1054.12819214 906.34213501 1054.3359375 908.29296875 C1054.44736084 909.39503662 1054.55878418 910.49710449 1054.67358398 911.63256836 C1054.88474895 914.18551557 1054.88474895 914.18551557 1056.02734375 916.203125 C1056.31089136 918.55501141 1056.54090037 920.91342381 1056.74609375 923.2734375 C1056.80889526 923.98732635 1056.87169678 924.70121521 1056.93640137 925.43673706 C1057.06939673 926.95814529 1057.20040095 928.47972866 1057.32958984 930.00146484 C1057.52248231 932.27092807 1057.72158262 934.53977306 1057.921875 936.80859375 C1058.05116039 938.29684211 1058.18007648 939.78512261 1058.30859375 941.2734375 C1058.39457825 942.25571823 1058.39457825 942.25571823 1058.4822998 943.25784302 C1058.6774607 945.5720371 1058.85340461 947.88723538 1059.02734375 950.203125 C1059.15613922 951.80793983 1059.15613922 951.80793983 1059.28753662 953.44517517 C1060.19882718 966.02173123 1060.20993562 978.58662897 1060.23046875 991.19140625 C1060.23329613 992.38077475 1060.2361235 993.57014324 1060.23903656 994.79555321 C1060.25396151 1001.11508777 1060.26322791 1007.43459998 1060.26757812 1013.75415039 C1060.27192435 1018.88020089 1060.28567485 1024.00607943 1060.30859375 1029.13208008 C1060.41820887 1054.18255845 1060.46151336 1079.18331289 1058.69921875 1104.18359375 C1058.64074013 1105.03193598 1058.58226151 1105.88027821 1058.5220108 1106.75432777 C1057.71930527 1118.01985219 1056.21100087 1129.07673747 1054.35156631 1140.21293831 C1053.69629169 1144.23523342 1053.19465683 1148.27540944 1052.703125 1152.3203125 C1052.48212794 1154.07537306 1052.26033306 1155.83033331 1052.0378418 1157.58520508 C1051.92483734 1158.47881744 1051.81183289 1159.37242981 1051.69540405 1160.29312134 C1046.05638429 1204.46197422 1037.31995779 1247.88001398 1026.33984375 1291.015625 C1026.16542755 1291.70481018 1025.99101135 1292.39399536 1025.81130981 1293.10406494 C1021.2677437 1310.96605867 1015.37255116 1328.40126997 1009.40234375 1345.828125 C1009.101539 1346.7072052 1008.80073425 1347.5862854 1008.49081421 1348.49200439 C997.3241626 1381.09045898 985.91008449 1413.55517052 970.76171875 1444.55859375 C967.99560475 1450.22716567 965.38029802 1455.95824505 962.77734375 1461.703125 C944.24052197 1502.3651945 944.24052197 1502.3651945 934.22753906 1518.23779297 C931.62003987 1522.50759941 929.22089264 1526.90073292 926.77734375 1531.265625 C920.36119798 1542.67889793 913.77504319 1553.98272789 907.02734375 1565.203125 C906.57762207 1565.95207031 906.12790039 1566.70101563 905.66455078 1567.47265625 C900.77379446 1575.57638577 895.58711753 1583.3311498 889.92138672 1590.9140625 C886.69023105 1595.24828765 883.74155591 1599.69096367 880.8828125 1604.28125 C874.89344171 1613.71293285 868.40246867 1622.81905034 861.71484375 1631.765625 C860.99615112 1632.72891724 860.99615112 1632.72891724 860.26293945 1633.71166992 C857.43125897 1637.4642221 854.46311149 1641.05169581 851.38256836 1644.60180664 C849.61135881 1646.69464818 848.03445834 1648.89363613 846.46484375 1651.140625 C840.9906431 1658.7646554 834.98701431 1665.95692238 829.02734375 1673.203125 C827.42213658 1675.1606088 825.81848242 1677.11935527 824.21484375 1679.078125 C823.51617188 1679.92761719 822.8175 1680.77710938 822.09765625 1681.65234375 C820.63648429 1683.45261789 819.19558852 1685.26944096 817.76953125 1687.09765625 C816.69058594 1688.48017578 816.69058594 1688.48017578 815.58984375 1689.890625 C814.95175781 1690.71949219 814.31367187 1691.54835938 813.65625 1692.40234375 C813.11871094 1692.99660156 812.58117188 1693.59085938 812.02734375 1694.203125 C811.36734375 1694.203125 810.70734375 1694.203125 810.02734375 1694.203125 C809.6255188 1695.08822754 809.6255188 1695.08822754 809.21557617 1695.99121094 C808.01560892 1698.22496958 806.76122362 1699.76585925 805.015625 1701.59375 C804.4263623 1702.21652832 803.83709961 1702.83930664 803.22998047 1703.48095703 C802.60623535 1704.13177246 801.98249023 1704.78258789 801.33984375 1705.453125 C800.05639356 1706.80904629 798.77382979 1708.16580722 797.4921875 1709.5234375 C796.88358887 1710.16700195 796.27499023 1710.81056641 795.64794922 1711.47363281 C793.85421241 1713.38788884 792.11341458 1715.33969855 790.40234375 1717.328125 C780.1656932 1729.18608733 769.13577043 1740.28104766 758.0637207 1751.35205078 C755.46081708 1753.95715508 752.8660507 1756.57018899 750.27148438 1759.18359375 C735.15035361 1774.35415977 735.15035361 1774.35415977 727.15917969 1780.50830078 C724.17212897 1782.88302663 721.57047814 1785.57674238 718.9140625 1788.30859375 C716.43318226 1790.79974679 713.80314994 1793.08189023 711.13671875 1795.37109375 C708.85104829 1797.35624087 706.63032997 1799.4035233 704.40234375 1801.453125 C699.90097394 1805.52021258 695.2058131 1809.26100559 690.41381836 1812.97338867 C686.34090386 1816.13901157 682.37928138 1819.4065742 678.46484375 1822.765625 C655.753623 1842.203125 655.753623 1842.203125 651.02734375 1842.203125 C650.82625 1842.76773437 650.62515625 1843.33234375 650.41796875 1843.9140625 C648.49613009 1847.07753849 645.78327749 1848.78996321 642.77734375 1850.828125 C641.49714328 1851.71708432 640.21720226 1852.60641739 638.9375 1853.49609375 C638.28410645 1853.94645996 637.63071289 1854.39682617 636.95751953 1854.86083984 C635.15098211 1856.11714426 633.36489874 1857.39644604 631.5859375 1858.69140625 C623.2509788 1864.75583225 614.67211942 1870.37658459 605.99462891 1875.93652344 C599.61209881 1880.04580194 593.31395244 1884.26916348 587.15234375 1888.703125 C582.20267515 1892.19236507 576.99538444 1895.14907337 571.72265625 1898.109375 C568.01146464 1900.19753358 564.3596369 1902.37660442 560.71484375 1904.578125 C536.0867734 1919.41189576 536.0867734 1919.41189576 528.3984375 1922.97265625 C526.28791036 1924.06790509 524.33289248 1925.25293766 522.328125 1926.52734375 C501.04093151 1939.97149758 477.14261189 1949.92082565 454.01220703 1959.69360352 C449.08310188 1961.79397339 444.30849621 1964.06878746 439.546875 1966.52734375 C430.9873684 1970.89027175 422.07183624 1974.25852642 413.08984375 1977.640625 C412.20114594 1977.97784576 411.31244812 1978.31506653 410.39682007 1978.6625061 C388.92889517 1986.79842203 367.19383109 1994.15127627 345.41503906 2001.40509033 C343.20757698 2002.14288601 341.00269499 2002.88777592 338.79882812 2003.63623047 C325.70121779 2008.07391272 312.39593647 2011.68758814 299.02734375 2015.203125 C298.35165344 2015.38121704 297.67596313 2015.55930908 296.97979736 2015.74279785 C248.57032011 2028.4591884 199.0712316 2037.10865607 149.30615234 2042.35522461 C148.35820801 2042.45585205 147.41026367 2042.55647949 146.43359375 2042.66015625 C145.62212891 2042.74241455 144.81066406 2042.82467285 143.97460938 2042.90942383 C141.95239823 2043.11192421 141.95239823 2043.11192421 140.02734375 2044.203125 C137.38792221 2044.48889246 134.76349353 2044.724241 132.1171875 2044.921875 C131.31688614 2044.98467651 130.51658478 2045.04747803 129.69203186 2045.11218262 C127.98649031 2045.24520893 126.28078989 2045.3762113 124.57495117 2045.50537109 C122.02682115 2045.6984293 119.47921608 2045.8974275 116.93164062 2046.09765625 C115.26435087 2046.2269236 113.59703382 2046.35583933 111.9296875 2046.484375 C110.82390602 2046.5703595 110.82390602 2046.5703595 109.69578552 2046.65808105 C107.14031023 2046.85069306 104.58409428 2047.02821283 102.02734375 2047.203125 C100.22201675 2047.33192047 100.22201675 2047.33192047 98.38021851 2047.46331787 C86.75617211 2048.24999299 75.15932055 2048.38370538 63.51171875 2048.40625 C62.50228462 2048.40907738 61.49285049 2048.41190475 60.45282745 2048.41481781 C55.08410902 2048.42971898 49.7154167 2048.43899904 44.34667969 2048.44335938 C40.01716447 2048.44769306 35.68785428 2048.46139698 31.35839844 2048.484375 C1.45961153 2048.63985971 -28.17469928 2047.73167256 -57.97265625 2045.203125 C-59.64745056 2045.06227478 -59.64745056 2045.06227478 -61.3560791 2044.9185791 C-67.69788792 2044.34050916 -67.69788792 2044.34050916 -69.97265625 2043.203125 C-71.32500732 2042.98010971 -72.68504145 2042.80265578 -74.04711914 2042.64990234 C-74.89727097 2042.55215012 -75.74742279 2042.45439789 -76.62333679 2042.35368347 C-77.55458878 2042.24985855 -78.48584076 2042.14603363 -79.4453125 2042.0390625 C-81.45890051 2041.80626408 -83.47240616 2041.57275248 -85.48583984 2041.33862305 C-87.08573761 2041.15364761 -87.08573761 2041.15364761 -88.71795654 2040.9649353 C-149.63822132 2033.86117667 -214.14788652 2023.8473085 -271.78482056 2002.01168823 C-275.71270477 2000.56005146 -279.69068868 1999.25828716 -283.6640625 1997.9375 C-349.93812287 1975.75044956 -349.93812287 1975.75044956 -378.72460938 1961.30761719 C-382.57230362 1959.41719921 -386.49206105 1957.69155468 -390.41015625 1955.953125 C-439.13000779 1934.15727255 -439.13000779 1934.15727255 -456.82421875 1922.73828125 C-459.98869222 1920.72742367 -463.23386033 1919.05334832 -466.60546875 1917.4140625 C-473.61650344 1913.96907999 -480.21322608 1909.93246041 -486.84765625 1905.828125 C-489.19744036 1904.37990398 -491.54920483 1902.93495053 -493.90234375 1901.4921875 C-494.47995453 1901.13739319 -495.05756531 1900.78259888 -495.65267944 1900.41705322 C-500.9817486 1897.16099188 -506.40588341 1894.08618155 -511.85742188 1891.04052734 C-515.86071201 1888.67933913 -519.54592086 1885.99115548 -523.26171875 1883.20703125 C-529.65052544 1878.48446953 -536.35043803 1874.20426506 -543.09765625 1870.015625 C-551.32831599 1864.81041761 -559.1299929 1858.96866088 -566.97265625 1853.203125 C-567.84204834 1852.56407227 -567.84204834 1852.56407227 -568.72900391 1851.91210938 C-576.34341645 1846.29627366 -583.78213419 1840.46347764 -591.20361328 1834.59716797 C-592.92282906 1833.24238987 -594.64770115 1831.89523291 -596.375 1830.55078125 C-608.49050647 1821.11021721 -620.51967203 1811.52095035 -631.8515625 1801.14453125 C-633.86699163 1799.29983829 -635.91074434 1797.49555931 -637.97265625 1795.703125 C-643.56245614 1790.83169297 -649.04800523 1785.8441735 -654.55078125 1780.875 C-655.39125 1780.11703125 -656.23171875 1779.3590625 -657.09765625 1778.578125 C-658.21527344 1777.56878906 -658.21527344 1777.56878906 -659.35546875 1776.5390625 C-660.77211166 1775.27465585 -662.19306503 1774.01471518 -663.63642883 1772.78089905 C-669.24154631 1767.96888651 -674.47954883 1762.84138687 -679.6953125 1757.61328125 C-680.59962509 1756.70992538 -681.50393768 1755.80656952 -682.43565369 1754.87583923 C-684.33700568 1752.97516432 -686.23733178 1751.07352892 -688.13598633 1749.17016602 C-690.54851486 1746.75194108 -692.96550706 1744.33823542 -695.38387394 1741.92585087 C-697.719302 1739.59494099 -700.05087802 1737.26018544 -702.3828125 1734.92578125 C-703.2402858 1734.07033218 -704.09775909 1733.21488312 -704.98121643 1732.33351135 C-709.30541952 1727.99257379 -713.49292586 1723.5919533 -717.47947693 1718.93785095 C-719.90192432 1716.12353234 -722.44154709 1713.41940655 -724.97265625 1710.703125 C-732.02561138 1703.08305921 -732.02561138 1703.08305921 -735.22265625 1699.515625 C-735.7640625 1698.91363281 -736.30546875 1698.31164063 -736.86328125 1697.69140625 C-737.97265625 1696.203125 -737.97265625 1696.203125 -737.97265625 1694.203125 C-738.63265625 1694.203125 -739.29265625 1694.203125 -739.97265625 1694.203125 C-741.42925602 1692.58929552 -742.81314576 1690.90949284 -744.16015625 1689.203125 C-746.8267419 1685.86671338 -749.49082334 1682.56565237 -752.34765625 1679.390625 C-760.45116393 1670.20912777 -767.72000339 1660.26083024 -775.13305664 1650.52172852 C-778.11203876 1646.61344165 -781.12372909 1642.7366925 -784.18774414 1638.89477539 C-795.35502353 1624.87446756 -805.23874141 1609.94668942 -815.08984375 1594.98828125 C-818.16842079 1590.33447899 -821.28275991 1585.77021204 -824.66015625 1581.328125 C-830.48484433 1573.39156171 -835.25464714 1564.77906307 -840.18896484 1556.2734375 C-842.02101265 1553.11988793 -843.86457741 1549.97331384 -845.7109375 1546.828125 C-846.94424928 1544.72409833 -848.17732811 1542.61993509 -849.41015625 1540.515625 C-849.97686035 1539.54923096 -850.54356445 1538.58283691 -851.12744141 1537.5871582 C-853.87072979 1532.88744433 -856.55277015 1528.16619497 -859.140625 1523.37890625 C-861.23624132 1519.50761241 -863.44996528 1515.77242139 -865.84765625 1512.078125 C-869.77495083 1505.76906812 -872.90176844 1499.23424503 -875.9921875 1492.484375 C-877.78670186 1488.56843523 -879.70285889 1484.72709018 -881.66015625 1480.890625 C-886.0128997 1472.30182774 -890.02904737 1463.55580475 -894.0534668 1454.80981445 C-896.50506159 1449.48701744 -898.96179437 1444.17207681 -901.57421875 1438.92578125 C-909.57227517 1422.82328556 -915.76735305 1406.05713407 -921.97265625 1389.203125 C-922.42672852 1387.97078125 -922.88080078 1386.7384375 -923.34863281 1385.46875 C-928.96166861 1370.14886458 -934.20432436 1354.71047336 -939.30712891 1339.21459961 C-941.78321778 1331.61711356 -941.78321778 1331.61711356 -944.53515625 1324.1171875 C-946.75895203 1318.31584565 -948.35653727 1312.30452295 -950.03515625 1306.328125 C-950.22696472 1305.64650299 -950.41877319 1304.96488098 -950.61639404 1304.26260376 C-965.07678103 1252.61910494 -975.12790453 1199.95695796 -981.41259766 1146.7199707 C-981.510793 1145.8961792 -981.60898834 1145.0723877 -981.7101593 1144.22363281 C-981.89369495 1142.6774172 -982.0738757 1141.13079845 -982.25016785 1139.58374023 C-982.66396916 1135.7716704 -982.66396916 1135.7716704 -983.97265625 1132.203125 C-984.25742342 1129.75893559 -984.49298171 1127.3303661 -984.69140625 1124.87890625 C-984.75420776 1124.14044968 -984.81700928 1123.4019931 -984.88171387 1122.64115906 C-985.01469722 1121.06846973 -985.14570213 1119.49561206 -985.27490234 1117.92260742 C-985.4682067 1115.56978317 -985.66709064 1113.21748961 -985.8671875 1110.86523438 C-985.99643143 1109.32815336 -986.12534667 1107.79104466 -986.25390625 1106.25390625 C-986.31122925 1105.57201736 -986.36855225 1104.89012848 -986.4276123 1104.18757629 C-986.54765574 1102.72161296 -986.66289824 1101.25525203 -986.7744751 1099.78862 C-986.91732002 1097.92504808 -987.07150421 1096.06233303 -987.23284912 1094.20027161 C-988.21880563 1081.66151296 -988.15599714 1069.12103308 -988.17578125 1056.55078125 C-988.17860863 1055.32365355 -988.181436 1054.09652584 -988.18434906 1052.83221245 C-988.19928189 1046.31514147 -988.20854395 1039.79809222 -988.21289062 1033.28100586 C-988.21661535 1027.98211121 -988.23101453 1022.68337734 -988.25390625 1017.38452148 C-988.38467122 986.52285973 -988.08111554 955.92701932 -984.97265625 925.203125 C-984.83180603 923.73832199 -984.83180603 923.73832199 -984.68811035 922.243927 C-984.10308574 916.46398398 -984.10308574 916.46398398 -982.97265625 914.203125 C-982.64056539 911.76886125 -982.35475767 909.34475587 -982.09765625 906.90234375 C-981.92126883 905.31629232 -981.74380226 903.73036065 -981.56542969 902.14453125 C-981.42228333 900.86666748 -981.42228333 900.86666748 -981.27624512 899.56298828 C-976.67325011 859.04478698 -969.43922927 818.86116923 -959.97265625 779.203125 C-959.77949829 778.38773254 -959.58634033 777.57234009 -959.3873291 776.73223877 C-954.11166789 754.48629728 -947.88184277 732.74635368 -940.37501526 711.15155029 C-938.42540608 705.54127968 -936.53324143 699.91357785 -934.66015625 694.27734375 C-928.70217203 676.40906618 -922.4135144 658.70092061 -915.59765625 641.140625 C-915.27285278 640.29770905 -914.94804932 639.45479309 -914.61340332 638.58633423 C-910.78439382 628.68141934 -906.59509722 619.11320143 -901.74072266 609.66772461 C-899.61973375 605.51155868 -897.70964874 601.29192479 -895.84765625 597.015625 C-885.81958523 574.38841524 -875.05523675 551.80531438 -862.97265625 530.203125 C-862.31265625 530.203125 -861.65265625 530.203125 -860.97265625 530.203125 C-860.74320313 529.40132812 -860.51375 528.59953125 -860.27734375 527.7734375 C-858.63329039 523.27444119 -856.42968156 519.25304491 -854.09765625 515.078125 C-853.61441895 514.20647705 -853.13118164 513.3348291 -852.63330078 512.43676758 C-847.73901657 503.67249282 -842.57614159 495.07667061 -837.35986328 486.50146484 C-836.06510083 484.35628819 -834.79300258 482.19987167 -833.53125 480.03515625 C-829.4300973 473.02053484 -825.07426171 466.48445777 -820.09765625 460.0390625 C-817.38984518 456.42532935 -815.0158654 452.65029696 -812.62890625 448.8203125 C-810.56233244 445.55473597 -808.35094862 442.41158836 -806.11328125 439.26171875 C-804.36880187 436.76915058 -802.65633538 434.26156978 -800.95703125 431.73828125 C-795.60100188 423.79906215 -790.25866662 416.03279667 -784.06640625 408.71875 C-781.84724644 406.05244605 -779.78237207 403.30668919 -777.72265625 400.515625 C-773.60643234 394.97234786 -769.29165998 389.61527875 -764.91552734 384.27563477 C-761.79099167 380.45842546 -758.71816608 376.61056069 -755.70288086 372.70654297 C-751.40969625 367.15193085 -746.95786354 361.86053917 -742.16088867 356.73461914 C-738.71303665 353.04462046 -735.41956696 349.24754061 -732.16015625 345.390625 C-727.25977094 339.60717125 -722.1673581 334.03226469 -716.95581055 328.52807617 C-714.17855147 325.59059847 -711.46091019 322.62589059 -708.83032227 319.5559082 C-704.71606502 314.8433715 -700.34492743 310.41354162 -695.92578125 305.98828125 C-695.0739325 305.1331041 -694.22208374 304.27792694 -693.34442139 303.39683533 C-691.55058713 301.59796498 -689.75541915 299.80042374 -687.95898438 298.00415039 C-685.23929257 295.28227468 -682.52770322 292.55250036 -679.81640625 289.82226562 C-678.06168934 288.06461343 -676.30649625 286.30743645 -674.55078125 284.55078125 C-673.7545636 283.74737808 -672.95834595 282.94397491 -672.13800049 282.1162262 C-667.13793179 277.13594558 -661.92700408 272.58930589 -656.40228271 268.19725037 C-653.62270957 265.9159049 -651.13406574 263.45519736 -648.63671875 260.875 C-646.2477877 258.47485331 -643.69341195 256.2875453 -641.12890625 254.078125 C-638.77302667 252.02953406 -636.46758165 249.93109498 -634.16015625 247.828125 C-629.44422294 243.57663967 -624.57500167 239.55265421 -619.63916016 235.56054688 C-617.73481513 234.00939564 -615.84342494 232.44323571 -613.953125 230.875 C-605.98129366 224.26421304 -597.95781566 217.77050382 -589.70068359 211.51757812 C-587.80126022 210.07274972 -585.91188066 208.61539829 -584.0234375 207.15625 C-570.43536775 196.67207818 -556.70726379 186.46004773 -542.23095703 177.22827148 C-537.36903928 174.12534023 -532.5896566 170.92368124 -527.84765625 167.640625 C-526.85173462 166.95371582 -526.85173462 166.95371582 -525.83569336 166.25292969 C-522.007303 163.61226002 -522.007303 163.61226002 -518.18798828 160.95849609 C-508.36186379 154.12233271 -498.11206012 148.21729581 -487.66015625 142.390625 C-482.59598732 139.56585335 -477.58544192 136.66028575 -472.59765625 133.703125 C-467.9294802 130.93973294 -463.262262 128.19162346 -458.49584961 125.59960938 C-456.58156594 124.54013162 -454.679799 123.45799969 -452.78417969 122.36547852 C-442.57707993 116.49350117 -432.13759841 111.19098016 -421.54760742 106.04638672 C-418.80218899 104.71140729 -416.06206085 103.36600657 -413.32226562 102.01953125 C-403.42908606 97.18231002 -393.46592357 92.62748348 -383.31292725 88.36206055 C-378.435121 86.30119403 -373.70521401 84.11555358 -369.0078125 81.671875 C-359.77766181 76.95306724 -350.09130659 73.38008041 -340.41015625 69.703125 C-339.3978595 69.31627533 -338.38556274 68.92942566 -337.34259033 68.53085327 C-317.63627446 61.01335847 -297.72020026 54.20375531 -277.65687561 47.70683289 C-273.26958871 46.28560873 -268.89088314 44.84374298 -264.5234375 43.36254883 C-254.49044908 39.96192759 -244.50970864 36.81994346 -234.22265625 34.265625 C-232.90265505 33.93332222 -231.58275254 33.60062723 -230.26293945 33.26757812 C-227.52831401 32.57948851 -224.79230128 31.89731107 -222.05517578 31.21923828 C-218.72659572 30.3936031 -215.40319595 29.54902806 -212.08087158 28.69862366 C-170.58041464 18.10205278 -128.01208258 10.49175238 -85.40625 6.05151367 C-84.44203125 5.9507251 -83.4778125 5.84993652 -82.484375 5.74609375 C-81.65381592 5.66383545 -80.82325684 5.58157715 -79.9675293 5.49682617 C-77.90453669 5.29913345 -77.90453669 5.29913345 -75.97265625 4.203125 C-73.76681912 3.92041076 -71.55419422 3.69003683 -69.33984375 3.484375 C-68.3355986 3.39017273 -68.3355986 3.39017273 -67.31106567 3.29406738 C-65.88382451 3.16108164 -64.45639762 3.03007684 -63.02880859 2.90087891 C-60.9041461 2.70824665 -58.78019127 2.5090031 -56.65625 2.30859375 C-52.42990999 1.91741342 -48.20435819 1.53208711 -43.97265625 1.203125 C-42.94626541 1.11726135 -41.91987457 1.03139771 -40.86238098 0.94293213 C-27.25580882 -0.0650333 -13.63719904 0.01966047 0 0 Z M-30.97265625 161.203125 C-32.3068955 161.3069019 -33.64120723 161.40975063 -34.97558594 161.51171875 C-96.89680369 166.27817481 -165.69945114 173.88622351 -223.28027344 198.13525391 C-228.99771033 200.40294242 -234.89543999 202.20725873 -240.7401123 204.1182251 C-263.36675266 211.53136997 -285.50674286 219.81273512 -307.42431641 229.12646484 C-309.58421914 230.03901237 -311.74952747 230.93405131 -313.921875 231.81640625 C-321.2557881 234.84026124 -328.20736122 238.37088516 -335.18847656 242.11816406 C-341.7131186 245.59951016 -348.34732572 248.79870435 -355.03515625 251.953125 C-371.37715346 259.68900415 -387.18799327 268.39649879 -402.97265625 277.203125 C-402.97265625 277.863125 -402.97265625 278.523125 -402.97265625 279.203125 C-403.69219482 279.47302246 -404.4117334 279.74291992 -405.15307617 280.02099609 C-410.14068268 282.11208543 -414.6598509 285.04250585 -419.28515625 287.828125 C-420.93729126 288.82259644 -420.93729126 288.82259644 -422.62280273 289.8371582 C-439.44616298 300.02241663 -455.7349938 310.95778603 -471.32519531 322.94824219 C-473.73817172 324.78622363 -476.1977443 326.55716397 -478.66015625 328.328125 C-484.29438455 332.40430811 -489.796188 336.64580587 -495.29345703 340.90332031 C-497.56270058 342.65985603 -499.8353063 344.41199724 -502.10913086 346.16259766 C-503.21349247 347.01294805 -504.31718786 347.8641645 -505.42016602 348.71630859 C-509.12006482 351.56922887 -512.86892697 354.34398506 -516.6796875 357.046875 C-517.10636719 357.4284375 -517.53304688 357.81 -517.97265625 358.203125 C-517.97265625 358.863125 -517.97265625 359.523125 -517.97265625 360.203125 C-518.63265625 360.203125 -519.29265625 360.203125 -519.97265625 360.203125 C-521.67518338 361.83314246 -523.33577638 363.50719463 -524.97265625 365.203125 C-532.70549296 372.39269814 -540.5990932 379.38989251 -548.70678711 386.15283203 C-557.79962381 393.69976024 -557.79962381 393.69976024 -565.97265625 402.203125 C-565.97265625 402.863125 -565.97265625 403.523125 -565.97265625 404.203125 C-566.56506104 404.4702832 -567.15746582 404.73744141 -567.76782227 405.01269531 C-570.00603475 406.22114666 -571.46544598 407.45170828 -573.25 409.25 C-573.84619141 409.848125 -574.44238281 410.44625 -575.05664062 411.0625 C-575.66830078 411.68640625 -576.27996094 412.3103125 -576.91015625 412.953125 C-577.51794922 413.5615625 -578.12574219 414.17 -578.75195312 414.796875 C-581.51987403 417.59166892 -584.19219185 420.40454722 -586.6796875 423.453125 C-588.60021766 425.75645249 -590.40954636 427.57495885 -592.72265625 429.453125 C-600.27850688 435.91741747 -606.41343172 443.7022638 -612.6484375 451.40625 C-615.85681562 455.26708821 -619.23872944 458.9549374 -622.6328125 462.65234375 C-634.68484619 475.79087129 -645.36240489 489.89710789 -655.97265625 504.203125 C-656.57835449 505.01942383 -657.18405273 505.83572266 -657.80810547 506.67675781 C-661.30911595 511.4002978 -664.79518372 516.13451924 -668.26855469 520.87841797 C-669.40491303 522.42861914 -670.54358863 523.97712432 -671.68457031 525.52392578 C-679.27170811 535.81204982 -686.37976169 546.25108525 -692.97265625 557.203125 C-693.35373535 557.8331543 -693.73481445 558.46318359 -694.12744141 559.11230469 C-697.15416151 564.1185797 -700.15325566 569.14115133 -703.14160156 574.17041016 C-703.92999669 575.49688008 -704.71930367 576.82280846 -705.50952148 578.14819336 C-706.24288126 579.37823983 -706.97436649 580.60940724 -707.70336914 581.84204102 C-709.66219341 585.12561123 -711.71716182 588.30677337 -713.87890625 591.4609375 C-717.26413173 596.50326263 -720.03013114 601.79737313 -722.78515625 607.203125 C-723.84440948 609.26204948 -724.90430916 611.3206415 -725.96484375 613.37890625 C-726.73586426 614.8786499 -726.73586426 614.8786499 -727.52246094 616.40869141 C-728.75578753 618.78523286 -730.01137514 621.14537231 -731.29296875 623.49609375 C-736.66881408 633.36531117 -741.44064136 643.48521616 -746.10522461 653.70581055 C-748.61369686 659.18909124 -751.16897268 664.62927817 -753.91357422 669.99772644 C-758.48685214 678.95744615 -762.37550637 688.08692127 -766.03515625 697.453125 C-766.34748199 698.24595886 -766.65980774 699.03879272 -766.9815979 699.85565186 C-774.77256963 719.67853292 -781.55394711 739.85037799 -788.26080322 760.06051636 C-789.23366546 762.98873743 -790.21515238 765.91405879 -791.1953125 768.83984375 C-816.87241325 846.04056473 -827.7011514 929.0493278 -828.97265625 1010.203125 C-829.00552734 1012.09877197 -829.00552734 1012.09877197 -829.0390625 1014.03271484 C-830.35046955 1101.33963892 -819.68650387 1192.0170882 -785.48095703 1295.79150391 C-784.27329773 1299.31271113 -783.08803033 1302.84080687 -781.91400146 1306.37335205 C-776.94738148 1321.31612609 -771.60184476 1336.06893793 -765.78515625 1350.703125 C-765.5028717 1351.41848419 -765.22058716 1352.13384338 -764.92974854 1352.87088013 C-761.33905506 1361.93810906 -757.33896048 1370.68064789 -752.90795898 1379.36669922 C-750.54174144 1384.01785453 -748.3755324 1388.75554668 -746.20532227 1393.50073242 C-740.28125603 1406.4527114 -734.03393177 1419.21745723 -727.53515625 1431.890625 C-727.15860901 1432.62906647 -726.78206177 1433.36750793 -726.394104 1434.12832642 C-721.97721221 1442.77554709 -717.34198956 1451.09838771 -711.97265625 1459.203125 C-708.31879906 1465.04220163 -704.72829355 1470.91694956 -701.21875 1476.84375 C-691.16939835 1493.79496445 -680.30700709 1510.01530115 -668.65673828 1525.90576172 C-666.94376895 1528.242532 -665.23737601 1530.58401134 -663.53125 1532.92578125 C-656.07565456 1543.12987751 -648.4290225 1553.16902504 -640.61621094 1563.10205078 C-639.46893374 1564.56869778 -638.32956366 1566.04154945 -637.19628906 1567.51904297 C-633.82971809 1571.90143696 -630.38943438 1576.05861245 -626.59765625 1580.078125 C-622.24302637 1584.74433487 -618.16606977 1589.57134393 -614.16015625 1594.54296875 C-611.31575382 1598.00196528 -608.32972881 1601.31636555 -605.30859375 1604.62109375 C-604.04505534 1606.01774741 -602.78703323 1607.41992012 -601.56210327 1608.85055542 C-596.64192878 1614.58705631 -591.38964188 1619.94744615 -586.05078125 1625.29296875 C-585.10057839 1626.24639671 -584.15044557 1627.19989446 -583.20037842 1628.15345764 C-581.21868109 1630.14110107 -579.23497077 1632.12670988 -577.25 1634.11108398 C-574.73615107 1636.62483154 -572.22924745 1639.14538242 -569.72407913 1641.66777706 C-567.76615135 1643.63695119 -565.8035653 1645.60143407 -563.83974457 1647.56472969 C-562.47271234 1648.93347873 -561.11020482 1650.3067422 -559.74786377 1651.68016052 C-554.52556382 1656.88372309 -549.125168 1661.68301975 -543.35969543 1666.27905273 C-540.23349009 1668.79892968 -537.3154535 1671.4978311 -534.41015625 1674.265625 C-529.84469252 1678.55325623 -525.16977525 1682.57622056 -520.19140625 1686.38671875 C-517.97265625 1688.203125 -517.97265625 1688.203125 -515.546875 1690.6484375 C-512.93045043 1693.2450106 -510.22691805 1695.42180597 -507.28515625 1697.640625 C-506.12963583 1698.51617203 -504.97472242 1699.39252055 -503.8203125 1700.26953125 C-502.8924292 1700.97360107 -502.8924292 1700.97360107 -501.94580078 1701.69189453 C-499.85648378 1703.29210144 -497.78602173 1704.91439267 -495.71875 1706.54296875 C-487.00278813 1713.40324954 -478.16424886 1719.99319988 -469.0625 1726.33203125 C-465.10394565 1729.09357413 -461.22333003 1731.95202042 -457.34765625 1734.828125 C-445.59928429 1743.48506262 -433.45166447 1751.20703184 -420.8503418 1758.56860352 C-415.06464125 1761.94930357 -409.37869902 1765.41329329 -403.80078125 1769.12890625 C-402.03866165 1770.37199751 -402.03866165 1770.37199751 -399.97265625 1770.203125 C-399.97265625 1770.863125 -399.97265625 1771.523125 -399.97265625 1772.203125 C-395.42483813 1774.62263859 -390.87561198 1777.03947863 -386.32519531 1779.45410156 C-384.7851147 1780.27176993 -383.2453871 1781.09010363 -381.70605469 1781.90917969 C-366.70420178 1789.89055764 -351.55258514 1797.4956385 -336.22265625 1804.828125 C-333.97742241 1805.90272247 -331.73262745 1806.9782374 -329.48828125 1808.0546875 C-328.39088623 1808.58054443 -327.29349121 1809.10640137 -326.1628418 1809.64819336 C-323.19119013 1811.09660918 -320.25711411 1812.6036741 -317.3203125 1814.12109375 C-309.14949271 1818.21924331 -300.6507955 1821.52334014 -292.16015625 1824.890625 C-291.27972656 1825.24105865 -290.39929688 1825.59149231 -289.4921875 1825.95254517 C-273.81128973 1832.18555354 -258.04723142 1838.08589353 -242.0614624 1843.49407959 C-239.86016498 1844.24131017 -237.66165776 1844.99637937 -235.46337891 1845.75244141 C-151.51924194 1874.54592473 -62.00464166 1888.45281904 33.51367569 1888.52098083 C35.88797413 1888.51551418 38.26226253 1888.51316517 40.63656616 1888.5111084 C66.53032437 1888.47623199 92.23874165 1887.67447202 118.02734375 1885.203125 C119.60447369 1885.05692923 121.18162203 1884.91093179 122.75878906 1884.76513672 C178.63247167 1879.520387 238.1659695 1870.9359285 290.8434906 1851.00750732 C294.55713753 1849.63965347 298.31962715 1848.42510209 302.08203125 1847.19921875 C303.83608245 1846.62324397 305.58998301 1846.04681028 307.34375 1845.4699707 C308.25141113 1845.17160309 309.15907227 1844.87323547 310.09423828 1844.56582642 C327.26710517 1838.9077908 344.28521677 1833.05021874 361.02734375 1826.203125 C362.12981445 1825.75340332 363.23228516 1825.30368164 364.36816406 1824.84033203 C375.20733891 1820.39384527 386.02318039 1815.93203215 396.42797852 1810.53149414 C400.99766971 1808.17356376 405.63247831 1805.97854911 410.3046875 1803.83203125 C425.87413353 1796.66889267 440.9410795 1789.13265956 455.76123047 1780.49072266 C458.73303533 1778.80215351 461.75749987 1777.30500026 464.83984375 1775.828125 C469.30120874 1773.66775055 473.15524785 1771.08851081 477.15625 1768.17578125 C480.72072219 1765.72672213 484.41314795 1763.56002852 488.15234375 1761.390625 C505.44138333 1751.33366435 522.13196688 1740.54591171 538.05859375 1728.4296875 C541.21424961 1726.06294561 544.42752106 1723.78621474 547.65234375 1721.515625 C555.58133818 1715.91066545 563.20575158 1709.92021059 570.8371582 1703.91967773 C573.88135903 1701.53379255 576.94216341 1699.16946964 580.00390625 1696.80615234 C582.645133 1694.71369399 585.16570363 1692.50374955 587.68359375 1690.265625 C589.50350967 1688.66409899 591.33548599 1687.08411362 593.18359375 1685.515625 C599.72925746 1679.95756882 606.13624079 1674.29958792 612.40405273 1668.4296875 C615.58800214 1665.46887333 618.84476202 1662.69070798 622.27734375 1660.015625 C627.22326418 1656.14807739 631.92947413 1651.97407466 636.02734375 1647.203125 C636.02734375 1646.543125 636.02734375 1645.883125 636.02734375 1645.203125 C636.61655106 1644.93858017 637.20575836 1644.67403534 637.81282043 1644.401474 C640.10687063 1643.16009048 641.61792147 1641.86617657 643.4597168 1640.02954102 C644.11107101 1639.38449112 644.76242523 1638.73944122 645.43351746 1638.07484436 C646.12834732 1637.37596603 646.82317719 1636.67708771 647.5390625 1635.95703125 C648.26672318 1635.23128403 648.99438385 1634.5055368 649.74409485 1633.75779724 C651.28555278 1632.21770027 652.82448801 1630.67507486 654.36108398 1629.13012695 C656.68194657 1626.79867232 659.01312444 1624.47792878 661.34570312 1622.15820312 C668.32059841 1615.18930413 675.16005094 1608.26666679 681.2277832 1600.48022461 C683.22559537 1597.95226449 685.3524468 1595.57965174 687.52734375 1593.203125 C691.4469923 1588.9023995 695.12143522 1584.44342497 698.77734375 1579.91796875 C700.95506461 1577.29033681 703.21487508 1574.7748141 705.52734375 1572.265625 C709.90873266 1567.44007468 713.78485345 1562.34158147 717.63574219 1557.08789062 C719.23419177 1554.92297294 720.85209296 1552.77341397 722.47265625 1550.625 C730.27405108 1540.28177185 737.96925159 1529.87195403 745.49951172 1519.32958984 C746.95466105 1517.30428613 748.42775781 1515.29345414 749.90625 1513.28515625 C758.72108492 1501.19988983 766.32466153 1488.3992839 773.99804688 1475.57617188 C775.99446856 1472.25776933 778.0127714 1468.95408277 780.04296875 1465.65625 C780.70441895 1464.58028564 781.36586914 1463.50432129 782.04736328 1462.39575195 C783.32624897 1460.33360792 784.61804292 1458.27938821 785.92529297 1456.23510742 C792.24618055 1446.25285735 797.55646258 1435.79248896 802.90234375 1425.265625 C803.38979065 1424.31013763 803.87723755 1423.35465027 804.37945557 1422.37020874 C810.48786181 1410.39264363 816.4830802 1398.40599725 821.83203125 1386.06640625 C823.37481676 1382.53706772 825.07937508 1379.10898127 826.83268738 1375.67967224 C831.28594886 1366.95119107 835.08315292 1358.09877645 838.58984375 1348.953125 C839.02281769 1347.83490356 839.02281769 1347.83490356 839.46453857 1346.6940918 C847.02579538 1327.13294768 853.68192765 1307.25039826 860.30889893 1287.35754395 C860.94477298 1285.4507321 861.58418373 1283.54510045 862.22412109 1281.63964844 C880.62192151 1226.80664367 890.70495468 1169.69157406 896.80529785 1112.28491211 C896.99872752 1110.47141591 897.19762046 1108.65850407 897.39746094 1106.84570312 C907.36154156 1015.25159928 900.32605817 919.43602112 869.21484375 786.953125 C868.94937744 785.99100098 868.68391113 785.02887695 868.41040039 784.03759766 C867.21367054 779.84359497 865.90486963 775.79034348 864.22265625 771.765625 C862.24726576 766.9728743 860.66135459 762.09555621 859.1015625 757.15625 C858.83489273 756.31301682 858.56822296 755.46978363 858.29347229 754.60099792 C857.7287217 752.81441377 857.16404179 751.02780727 856.59942627 749.24118042 C851.607247 733.50667044 846.25724667 717.97955344 840.15234375 702.640625 C839.70210342 701.50554504 839.70210342 701.50554504 839.24276733 700.34753418 C833.23729685 685.26609918 826.7728144 670.40400929 819.39453125 655.94140625 C817.53456615 652.25477673 815.74617904 648.53755302 813.97265625 644.80859375 C807.7556386 631.7446681 801.3682708 618.79874996 794.58984375 606.015625 C794.26113281 605.39073181 793.93242188 604.76583862 793.59375 604.12200928 C790.00395926 597.31208433 786.2138308 590.82218694 781.69555664 584.57885742 C778.85182481 580.52904702 776.43419017 576.23750968 773.96484375 571.953125 C764.72203661 556.15112408 755.1973158 540.63666325 744.01953125 526.12109375 C740.77552645 521.90730901 737.68319394 517.59058256 734.58984375 513.265625 C728.68454336 505.0376264 722.58272327 496.9738162 716.38574219 488.96386719 C715.24034618 487.47921658 714.10530067 485.98658907 712.97265625 484.4921875 C709.37865589 479.77195661 705.5285151 475.36716313 701.53125 470.984375 C698.72800187 467.87062669 695.9970785 464.70221952 693.27734375 461.515625 C692.25261993 460.31639278 691.22788008 459.11717426 690.203125 457.91796875 C689.68314941 457.30937012 689.16317383 456.70077148 688.62744141 456.07373047 C681.86542542 448.16854791 675.07818158 440.28479952 668.08984375 432.578125 C667.25582031 431.65773438 666.42179687 430.73734375 665.5625 429.7890625 C663.71811125 427.90772913 661.95161265 426.26461598 659.92578125 424.609375 C657.5209661 422.61292468 655.57695869 420.71662724 653.58984375 418.328125 C651.20457404 415.54000974 648.77772109 412.82980841 646.21484375 410.203125 C645.65152344 409.625625 645.08820313 409.048125 644.5078125 408.453125 C643.09558546 406.98808216 643.09558546 406.98808216 641.02734375 407.203125 C640.76324707 406.61450684 640.49915039 406.02588867 640.22705078 405.41943359 C638.98141378 403.11827513 637.67349222 401.59097454 635.83203125 399.7421875 C634.88070313 398.78699219 634.88070313 398.78699219 633.91015625 397.8125 C632.91628906 396.83023438 632.91628906 396.83023438 631.90234375 395.828125 C631.26296875 395.18101562 630.62359375 394.53390625 629.96484375 393.8671875 C626.17711853 390.09467403 622.27749622 386.80463277 617.95605469 383.6640625 C614.8307498 381.29674295 612.04207229 378.60058015 609.21484375 375.890625 C604.12295146 371.07852212 598.93246842 366.54430193 593.4296875 362.203125 C591.02734375 360.203125 591.02734375 360.203125 588.57421875 357.73046875 C585.96788458 355.14412181 583.27026751 352.97589233 580.33984375 350.765625 C579.18825721 349.89264539 578.03724891 349.01890263 576.88671875 348.14453125 C575.95956055 347.44094482 575.95956055 347.44094482 575.01367188 346.72314453 C572.88612786 345.09506082 570.77557989 343.4467681 568.66796875 341.79296875 C561.3517719 336.05250763 554.02248106 330.37212198 546.4128418 325.0246582 C543.11883104 322.70737899 539.86431682 320.34805466 536.640625 317.93359375 C522.05855795 307.0160662 507.09213191 296.85158706 491.1640625 287.9921875 C487.0447626 285.64269889 483.08867172 283.07217075 479.13671875 280.453125 C477.14923498 279.03319087 477.14923498 279.03319087 475.02734375 279.203125 C475.02734375 278.543125 475.02734375 277.883125 475.02734375 277.203125 C466.9446788 272.88539676 458.85972626 268.57201338 450.77122498 264.26522827 C447.11824687 262.31955073 443.46892052 260.36740402 439.82421875 258.40625 C429.17054968 252.70050953 418.32566227 247.41347051 407.42553711 242.19873047 C406.25385986 241.63814941 405.08218262 241.07756836 403.875 240.5 C402.72636475 239.95053711 401.57772949 239.40107422 400.39428711 238.83496094 C397.15163332 237.26336367 393.93580774 235.64652158 390.72265625 234.015625 C385.8458487 231.56652559 380.92775764 229.41970892 375.83984375 227.453125 C374.08701004 226.76621045 372.33441678 226.07868211 370.58203125 225.390625 C369.67291992 225.03484375 368.76380859 224.6790625 367.82714844 224.3125 C365.01074802 223.19654922 362.20952393 222.04858474 359.41015625 220.890625 C347.06223697 215.80963838 334.59567773 211.20933687 321.96484375 206.890625 C321.23852753 206.64195679 320.5122113 206.39328857 319.7638855 206.13708496 C311.35472154 203.26586646 302.91568383 200.52125558 294.42373657 197.90515137 C291.18473978 196.90113695 287.98541098 195.85880915 284.828125 194.62109375 C228.72673959 172.80643259 162.55337606 165.66013667 103.02734375 161.203125 C101.78210937 161.10016113 100.536875 160.99719727 99.25390625 160.89111328 C56.2746009 157.3851983 11.98926007 157.62572565 -30.97265625 161.203125 Z " fill="#000000" transform="translate(987.97265625,-0.203125)"/>
<path d="M0 0 C1.64394111 -0.00307895 1.64394111 -0.00307895 3.32109314 -0.0062201 C7.00727098 -0.01189139 10.69341146 -0.01043268 14.3795929 -0.00901413 C17.04369114 -0.01159769 19.70778638 -0.01457205 22.37188339 -0.01801753 C28.93471429 -0.02559007 35.49753705 -0.02779021 42.06037185 -0.02834659 C49.92165726 -0.02926097 57.78293515 -0.03593072 65.64421732 -0.04269341 C84.644376 -0.05874832 103.64453387 -0.06465615 122.64469811 -0.06944216 C131.63454027 -0.07177865 140.6243818 -0.07538136 149.61422347 -0.07913754 C180.39242732 -0.09197269 211.17063081 -0.10269183 241.94883728 -0.10614014 C243.88068092 -0.10636177 245.81252456 -0.10658355 247.7443682 -0.10680549 C249.68085583 -0.10702613 251.61734347 -0.10724661 253.5538311 -0.10746694 C257.43870417 -0.10790949 261.32357725 -0.1083566 265.20845032 -0.10880661 C266.17167195 -0.108916 267.13489358 -0.10902539 268.12730375 -0.1091381 C299.35635712 -0.11276833 330.58538727 -0.12868731 361.81443174 -0.15199697 C394.83801212 -0.17660099 427.86157922 -0.19031324 460.88516903 -0.19150805 C464.51137225 -0.19167951 468.13757547 -0.19189493 471.76377869 -0.19214249 C472.6566402 -0.19219826 473.54950171 -0.19225402 474.46941964 -0.19231148 C488.82921552 -0.19346144 503.18898756 -0.20447874 517.5487754 -0.21902954 C531.98654296 -0.23340621 546.42427998 -0.23662491 560.86205274 -0.22858956 C569.43506173 -0.22413881 578.00797206 -0.22797169 586.58096806 -0.24382807 C592.31439092 -0.25360004 598.0477449 -0.25237871 603.78116718 -0.24239184 C607.04347563 -0.23701573 610.3055583 -0.23791316 613.5678581 -0.24890056 C646.29184903 -0.3521154 646.29184903 -0.3521154 660.0761261 7.13142776 C661.71194641 7.99961136 661.71194641 7.99961136 663.3808136 8.88533401 C675.48281458 15.45621383 684.76863775 23.01217413 693.0761261 34.13142776 C693.6433136 34.88424026 694.2105011 35.63705276 694.7948761 36.41267776 C706.88174012 53.43295567 709.46905897 74.92957111 706.57221985 95.23299026 C703.29302047 112.13492078 695.05276737 125.94540466 683.0761261 138.13142776 C682.46253235 138.75791214 681.8489386 139.38439651 681.2167511 140.02986526 C671.27113859 149.42294374 659.00050821 154.38059471 646.0761261 158.13142776 C645.07662489 158.47685011 644.07712368 158.82227246 643.04733455 159.17816216 C638.10713855 160.57560402 633.16259509 160.41052625 628.0641346 160.39148998 C626.95864281 160.39529565 625.85315103 160.39910132 624.71415949 160.40302232 C620.99550392 160.41336031 617.27700036 160.40942777 613.55833435 160.40558243 C610.87090867 160.41003365 608.1834948 160.41526859 605.4960736 160.42145115 C599.64548716 160.43329557 593.7949319 160.43766402 587.94433403 160.43712997 C579.24380904 160.43633668 570.54332342 160.44688735 561.84280896 160.45954554 C544.49179294 160.48428726 527.14078649 160.49306871 509.78975526 160.49808203 C508.89108361 160.49834321 507.99241195 160.49860438 507.06650782 160.49887347 C506.16602141 160.49913375 505.26553501 160.49939402 504.33776113 160.49966218 C494.35820253 160.50274465 484.37864658 160.50924955 474.39908981 160.51587486 C444.25277142 160.53552429 414.1064559 160.55192731 383.96013069 160.5547514 C382.99581377 160.55484546 382.03149684 160.55493952 381.0379582 160.55503643 C377.13002915 160.55541491 373.2221001 160.55577891 369.31417105 160.55613941 C366.37284356 160.55641113 363.43151608 160.55668781 360.4901886 160.55696487 C359.51825943 160.5570529 358.54633026 160.55714092 357.54494869 160.55723161 C327.0185288 160.56013591 296.49217229 160.58222079 265.96577454 160.61848831 C231.66699644 160.65923667 197.36826152 160.68291013 163.06945789 160.68321091 C159.4100786 160.68330773 155.75069932 160.68347445 152.09132004 160.68369102 C151.19029447 160.68373514 150.2892689 160.68377925 149.36093952 160.6838247 C134.87506394 160.68494352 120.38925193 160.7023374 105.90339681 160.72551034 C91.33563426 160.74838142 76.76795739 160.75255975 62.20018347 160.73796105 C53.55199046 160.72982468 44.90406779 160.73544674 36.2559077 160.76114189 C30.4698171 160.77694195 24.68391753 160.77436775 18.89783135 160.75723517 C15.60697055 160.74799933 12.3167285 160.74915789 9.02588941 160.76720124 C-5.13575675 160.83981907 -17.6323686 160.27734291 -30.9238739 155.13142776 C-31.77357942 154.80934025 -32.62328495 154.48725273 -33.49873912 154.15540498 C-43.77702201 149.92704667 -51.86437706 143.63234562 -59.9238739 136.13142776 C-60.93514343 135.29224808 -60.93514343 135.29224808 -61.96684265 134.43611526 C-73.83334162 124.06311159 -80.29175487 105.31013475 -81.9238739 90.13142776 C-83.16220671 68.01097082 -79.20263247 46.32861406 -64.5488739 28.94392776 C-47.27618277 10.12160789 -25.4451062 -0.04434437 0 0 Z " fill="#000000" transform="translate(868.9238739013672,1282.8685722351074)"/>
<path d="M0 0 C2.64217846 -0.00274494 5.28433135 -0.00667762 7.92650336 -0.01204365 C13.64097792 -0.02127685 19.35536418 -0.01953472 25.06983757 -0.01031113 C33.56758329 0.00336682 42.06526202 -0.00030227 50.56301275 -0.00726973 C65.74387321 -0.01916086 80.92469197 -0.0141378 96.1055501 -0.00199146 C109.38780057 0.00856296 122.67003686 0.01308171 135.95229149 0.01171303 C137.27609818 0.01158698 137.27609818 0.01158698 138.62664844 0.01145839 C142.20949541 0.01110612 145.79234238 0.0107221 149.37518935 0.01029281 C182.94938552 0.00633226 216.52355664 0.01902529 250.09774565 0.03981938 C279.90775533 0.05819533 309.717741 0.0639992 339.52775574 0.05854797 C341.44268784 0.05820154 343.35761995 0.05785544 345.27255205 0.05750968 C346.21927278 0.05733869 347.1659935 0.05716769 348.14140274 0.05699152 C352.90736517 0.05613793 357.6733276 0.05531415 362.43929005 0.05452251 C363.37960429 0.05436543 364.31991854 0.05420835 365.28872715 0.05404651 C390.22378597 0.05005476 415.15884249 0.05553416 440.09389991 0.06403381 C442.77743639 0.06494081 445.46097288 0.06584646 448.14450937 0.06674904 C449.92457159 0.06735015 451.70463381 0.06795876 453.48469602 0.06857495 C465.88124441 0.07279209 478.27778826 0.07337636 490.67433714 0.07146945 C506.64779803 0.06902447 522.62123461 0.07311499 538.59468887 0.08867946 C547.03685974 0.09671642 555.47899015 0.09934103 563.92116342 0.0940371 C569.56567944 0.09105224 575.2101598 0.09538703 580.8546673 0.10558567 C584.06676317 0.11119196 587.27876102 0.11264251 590.49085996 0.1074191 C616.79387938 0.06853502 641.00426392 2.0318249 661.55046082 20.3742218 C662.31100769 21.04066711 663.07155457 21.70711243 663.85514832 22.39375305 C673.48787185 31.37651773 680.35495631 42.93578492 684.55046082 55.3742218 C684.86885925 56.30750305 685.18725769 57.2407843 685.51530457 58.2023468 C690.01343313 74.03907595 688.85262787 91.9164934 683.55046082 107.3742218 C682.94911316 109.17246399 682.94911316 109.17246399 682.33561707 111.0070343 C679.0162784 119.76239135 674.22254581 126.19704062 667.89811707 132.93721008 C666.68748403 134.22811335 665.50747782 135.54757767 664.33171082 136.87031555 C650.42795615 151.83760369 631.58183397 158.88734537 611.55046082 160.3742218 C607.83732673 160.50404875 604.12875585 160.51055821 600.41361713 160.50285625 C599.3310786 160.50460929 598.24854007 160.50636233 597.13319734 160.50816849 C593.5107417 160.51281531 589.88832643 160.51036637 586.26586914 160.50793457 C583.64043081 160.5098032 581.01499276 160.51210412 578.38955516 160.51479989 C572.68374878 160.51994279 566.97795088 160.52137302 561.27214241 160.52034378 C552.7870642 160.51881695 544.30199536 160.52298483 535.81691897 160.52821841 C519.77939266 160.5378841 503.74186955 160.54070236 487.70434067 160.54127546 C475.31816918 160.54173519 462.93199895 160.54379451 450.54582787 160.54697609 C446.97909806 160.54787365 443.41236826 160.54876346 439.84563845 160.54965097 C438.95891147 160.54987202 438.07218449 160.55009306 437.158587 160.55032081 C412.2200147 160.55647413 387.28144285 160.56042146 362.34286976 160.55997753 C361.40282621 160.55996195 360.46278266 160.55994637 359.49425294 160.55993032 C354.72983876 160.55984722 349.96542457 160.55974818 345.20101038 160.55964562 C344.25479917 160.55962567 343.30858797 160.55960573 342.33370369 160.55958518 C340.42023436 160.55954474 338.50676503 160.55950294 336.5932957 160.55945978 C306.82502489 160.55884707 277.05676547 160.56635315 247.28849792 160.58003235 C213.83535648 160.59539853 180.38222252 160.60399825 146.92907733 160.60306913 C143.36077575 160.6029945 139.79247417 160.60294579 136.22417259 160.60291481 C135.34558208 160.60290316 134.46699158 160.6028915 133.56177712 160.60287949 C119.43368091 160.60284874 105.3055946 160.60922985 91.17750134 160.61784707 C76.97422728 160.62633088 62.77096769 160.6273078 48.5676925 160.62073775 C40.13466159 160.617047 31.70167468 160.61886028 23.26864845 160.62868009 C17.62863548 160.63469153 11.98865427 160.63337172 6.34864274 160.6262096 C3.13977513 160.6223379 -0.06899108 160.62264018 -3.27785578 160.62966695 C-31.20226321 160.68675307 -53.53393852 158.32208487 -75.44953918 139.3742218 C-76.23328918 138.75933899 -77.01703918 138.14445618 -77.82453918 137.51094055 C-90.61543752 127.14054208 -98.86427597 109.76562843 -101.19953918 93.58906555 C-103.01108069 70.29377395 -99.90362806 47.88809688 -84.34407043 29.44844055 C-83.71887512 28.76394836 -83.09367981 28.07945618 -82.44953918 27.3742218 C-81.71090637 26.55566711 -80.97227356 25.73711243 -80.21125793 24.89375305 C-57.88506402 1.35688834 -30.45058038 -0.09602812 0 0 Z " fill="#000000" transform="translate(888.4495391845703,933.6257781982422)"/>
<path d="M0 0 C1.10673042 -0.00350607 2.21346083 -0.00701215 3.35372853 -0.01062447 C7.05251437 -0.01990889 10.75114174 -0.01502271 14.44993401 -0.01015663 C17.13256209 -0.01389438 19.81517856 -0.01841693 22.49780262 -0.02388728 C28.32551511 -0.03416858 34.1531944 -0.03703433 39.98091507 -0.03497505 C48.64735816 -0.0319202 57.31376461 -0.04025977 65.98020057 -0.0507243 C82.36106408 -0.07005163 98.74191505 -0.07569206 115.12278862 -0.07683842 C127.77493897 -0.07775805 140.42708442 -0.08187755 153.07923317 -0.08823967 C156.72318327 -0.0900348 160.36713337 -0.09181443 164.01108348 -0.09358943 C165.36999106 -0.09425257 165.36999106 -0.09425257 166.75635131 -0.09492911 C192.23399041 -0.10723512 217.71162781 -0.11513048 243.18927002 -0.11424255 C244.14955716 -0.1142114 245.1098443 -0.11418024 246.09923105 -0.11414814 C250.96619017 -0.11398193 255.8331493 -0.11378384 260.70010842 -0.11357872 C261.66667605 -0.11353883 262.63324368 -0.11349894 263.62910124 -0.11345784 C265.58373629 -0.11337697 267.53837134 -0.11329337 269.49300638 -0.11320706 C299.8992308 -0.11198174 330.30541059 -0.12699221 360.71162224 -0.15435219 C394.88590883 -0.18509018 429.0601661 -0.20228365 463.23446739 -0.20042574 C466.88030362 -0.20027649 470.52613985 -0.20017907 474.17197609 -0.20011711 C475.06964936 -0.2000938 475.96732262 -0.20007049 476.89219811 -0.20004648 C491.32205264 -0.199985 505.75186835 -0.21274278 520.18171135 -0.22998164 C534.69072755 -0.24695627 549.19968712 -0.24889764 563.70870776 -0.235763 C572.32133517 -0.22838605 580.93379025 -0.23199415 589.5463993 -0.25164768 C595.30864424 -0.26368253 601.07076491 -0.26101786 606.83300424 -0.24670668 C610.1101099 -0.23897302 613.38681933 -0.23954626 616.66391338 -0.25362138 C640.30159439 -0.34838895 660.39023536 2.21220588 679.52705193 17.25726891 C680.29017693 17.79094078 681.05330193 18.32461266 681.83955193 18.87445641 C682.67486443 19.55894859 682.67486443 19.55894859 683.52705193 20.25726891 C683.52705193 20.91726891 683.52705193 21.57726891 683.52705193 22.25726891 C684.18705193 22.25726891 684.84705193 22.25726891 685.52705193 22.25726891 C702.84614182 40.49345928 709.10869302 60.68388339 708.80830193 85.32758141 C708.11117391 107.16860205 697.30839022 124.04995545 682.52705193 139.25726891 C681.55638786 140.26660484 681.55638786 140.26660484 680.56611443 141.29633141 C666.7341635 154.524267 647.26102826 159.41843164 628.66934299 159.39148998 C627.5683818 159.39384221 626.46742061 159.39619444 625.33309695 159.39861795 C621.62386893 159.40530367 617.91467597 159.40484986 614.20544243 159.40443993 C611.52713333 159.40773882 608.8488273 159.41142674 606.17051965 159.41558141 C599.56859296 159.42490239 592.96667297 159.42882861 586.36474052 159.43110037 C578.45736937 159.43406379 570.55000709 159.44276208 562.6426406 159.45151465 C543.52886666 159.47235534 524.41509118 159.48282862 505.30130853 159.49164426 C496.25722618 159.49585167 487.2131445 159.50107357 478.16906271 159.50632879 C447.20454026 159.52421948 416.24001761 159.53921469 385.27549076 159.54664898 C383.33162445 159.54712373 381.38775815 159.54759962 379.44389184 159.54807664 C378.47991675 159.54831302 377.51594165 159.54854939 376.52275519 159.54879293 C371.63885214 159.54999412 366.7549491 159.55120957 361.87104607 159.55243492 C360.90182369 159.55267507 359.93260132 159.55291522 358.93400858 159.55316265 C327.5182371 159.5610534 296.10250339 159.58448037 264.68674841 159.61699087 C231.46549362 159.65130694 198.24426094 159.67100181 165.02298814 159.67429322 C161.37426554 159.67471075 157.72554296 159.67519031 154.07682037 159.6757164 C152.72921172 159.67590119 152.72921172 159.67590119 151.35437865 159.67608971 C136.91029874 159.67841961 122.46626278 159.69406794 108.02219853 159.71455825 C93.49577267 159.734838 78.96939947 159.7402834 64.44296207 159.73078761 C55.81924792 159.72558089 47.19570938 159.73141083 38.57202058 159.75332228 C32.80221419 159.76687097 27.03252814 159.76571764 21.26272044 159.75292033 C17.98120286 159.74605052 14.70008448 159.74750506 11.41858437 159.76248042 C-5.39005435 159.83441192 -21.9922499 159.66591505 -37.09794807 151.31976891 C-38.03960823 150.83733727 -38.03960823 150.83733727 -39.00029182 150.34515953 C-45.60914574 146.87653744 -51.30679379 142.66943054 -56.47294807 137.25726891 C-57.47648323 136.35428062 -57.47648323 136.35428062 -58.50029182 135.43305016 C-72.06672921 122.88699438 -79.95842366 103.65820903 -80.80888557 85.28461266 C-81.2310613 61.70472173 -74.82950299 41.25939493 -58.73466682 23.55805016 C-42.96836257 7.51944359 -22.2166605 -0.09036028 0 0 Z " fill="#000000" transform="translate(867.4729480743408,579.7427310943604)"/>
<path d="M0 0 C0.66290039 0.17547363 1.32580078 0.35094727 2.00878906 0.53173828 C24.53107915 6.53250477 41.98150366 17.23370071 59 33 C59.90878906 33.79277344 59.90878906 33.79277344 60.8359375 34.6015625 C80.82865595 52.90475545 90.52770661 83.73746923 92 110 C92.05929687 111.0415625 92.11859375 112.083125 92.1796875 113.15625 C92.92085002 143.13215643 82.32134778 174.24994989 61.921875 196.42578125 C54.9063557 203.76417267 47.28518227 210.14912386 39 216 C38.2059375 216.56203125 37.411875 217.1240625 36.59375 217.703125 C29.32559359 222.43240486 21.16352587 225.20434068 13.07519531 228.19921875 C11.16112825 228.93782345 9.28302239 229.76787573 7.41015625 230.60546875 C-15.49334157 239.97150394 -46.04091985 237.37252226 -68.36328125 228.2421875 C-81.51609288 222.68032363 -94.02174363 216.23672574 -105 207 C-105.90105469 206.29810547 -105.90105469 206.29810547 -106.8203125 205.58203125 C-115.45611024 198.6695205 -121.68748141 188.97243066 -128 180 C-128.598125 179.18402344 -129.19625 178.36804687 -129.8125 177.52734375 C-146.06205044 154.05980103 -149.53824018 121.29262938 -144.86669922 93.78417969 C-144.07542057 89.80657043 -143.09935204 85.9028694 -142 82 C-141.69449219 80.89374268 -141.69449219 80.89374268 -141.3828125 79.76513672 C-135.64683181 59.7644448 -122.83471934 42.36573487 -108 28 C-107.38640625 27.37738281 -106.7728125 26.75476562 -106.140625 26.11328125 C-90.21462834 10.94409848 -68.25481082 2.31660557 -46.90234375 -1.30859375 C-43.22382452 -1.7696238 -43.22382452 -1.7696238 -41 -3 C-27.06638556 -4.95027263 -13.51259133 -3.692216 0 0 Z M-58.375 93.9375 C-64.82390619 102.46338989 -66.9062117 111.38396551 -65.6328125 122.0859375 C-63.34392805 133.07823441 -57.04811237 141.48744311 -48 148 C-39.11765441 153.52332991 -29.50669575 155.34010747 -19.19921875 153.5 C-8.46792123 150.88767861 -0.18837384 145.16855202 6.3203125 136.17578125 C11.52097133 127.60432503 12.16751113 117.75398131 11 108 C8.93149283 99.90142507 4.97934758 93.75143523 -1 88 C-1.928125 87.0925 -2.85625 86.185 -3.8125 85.25 C-22.27817874 72.21540324 -44.3452819 77.36155357 -58.375 93.9375 Z " fill="#000000" transform="translate(618,1252)"/>
<path d="M0 0 C1.00160156 0.63421875 2.00320313 1.2684375 3.03515625 1.921875 C6.07751845 4.05433441 8.42841655 6.32321541 11 9 C12.14712671 10.09655811 13.29848879 11.18869569 14.453125 12.27734375 C22.7277792 20.19633204 29.45713898 27.97602441 35 38 C35.34611328 38.60360352 35.69222656 39.20720703 36.04882812 39.82910156 C51.4650233 66.95649473 54.9026309 99.80048775 47.12060547 129.86865234 C44.23715901 140.28644811 40.32485013 149.61721399 35 159 C34.64486328 159.65806641 34.28972656 160.31613281 33.92382812 160.99414062 C24.75340001 177.91284489 10.78192772 189.41893482 -5 200 C-5.7734375 200.57105469 -6.546875 201.14210938 -7.34375 201.73046875 C-29.53260452 217.83394712 -61.68907543 220.62643292 -88.0703125 216.68359375 C-117.46661493 211.56992285 -143.28373044 196.32080313 -162 173 C-164.50233985 169.42667899 -166.75414545 165.73778156 -169 162 C-170.20651605 160.1654702 -171.41485294 158.33213663 -172.625 156.5 C-188.13011728 131.82332898 -190.79343076 99.30200003 -184.82958984 71.17797852 C-178.23478174 42.98586371 -159.89931626 15.16750912 -135.28515625 -0.6015625 C-134.53105469 -1.06304688 -133.77695312 -1.52453125 -133 -2 C-131.94619141 -2.72316406 -131.94619141 -2.72316406 -130.87109375 -3.4609375 C-92.39616442 -28.75402148 -37.2990938 -25.76831444 0 0 Z M-96 72 C-104.16765269 82.33278476 -107.98545145 91.75649148 -106.703125 105.0859375 C-104.5616226 116.11178095 -97.38451666 125.19758208 -88.29296875 131.59765625 C-78.72985117 137.44630908 -68.83669275 138.87774056 -57.8046875 136.234375 C-46.82354901 132.46428386 -38.8944703 126.16234478 -33.625 115.8125 C-29.02536585 106.2319786 -28.18665903 95.32465626 -31.5625 85.125 C-35.56706169 75.66861397 -42.27335744 68.15121994 -51.6015625 63.78125 C-67.35201627 57.56980344 -83.68808713 59.68808713 -96 72 Z " fill="#000000" transform="translate(659,920)"/>
<path d="M0 0 C2.06376772 1.89138963 4.21145284 3.67937503 6.35400391 5.48046875 C8.22119141 7.05078125 8.22119141 7.05078125 9.47900391 8.35546875 C9.47900391 9.01546875 9.47900391 9.67546875 9.47900391 10.35546875 C10.13900391 10.35546875 10.79900391 10.35546875 11.47900391 10.35546875 C18.91832895 18.43086991 24.11381537 27.58022101 28.64013672 37.51855469 C29.37305277 39.12346167 30.13823401 40.71355481 30.90869141 42.30078125 C36.78360168 55.10881544 40.18224985 70.28084798 40.47900391 84.35546875 C40.51767578 85.19078125 40.55634766 86.02609375 40.59619141 86.88671875 C41.20297765 109.27038903 35.58427898 130.98844808 24.47900391 150.35546875 C23.9869043 151.24540527 23.9869043 151.24540527 23.48486328 152.15332031 C14.89691008 167.52524837 1.74691641 179.29806135 -12.52099609 189.35546875 C-13.83583984 190.30486328 -13.83583984 190.30486328 -15.17724609 191.2734375 C-40.53455253 208.57292517 -72.72397922 211.96974922 -102.39599609 207.23046875 C-122.33314927 203.41789492 -139.9681915 194.15413087 -155.52099609 181.35546875 C-156.34599609 180.68515625 -157.17099609 180.01484375 -158.02099609 179.32421875 C-166.73164237 171.94436565 -173.40997987 162.93048348 -179.52099609 153.35546875 C-180.36791016 152.12957031 -180.36791016 152.12957031 -181.23193359 150.87890625 C-197.27238434 127.13343549 -201.31055669 95.15565627 -196.39599609 67.29296875 C-191.01890872 40.09300406 -175.67657326 13.4408273 -153.52099609 -3.64453125 C-152.72693359 -4.27488281 -151.93287109 -4.90523437 -151.11474609 -5.5546875 C-107.23023234 -39.04889726 -40.83182933 -37.85094089 0 0 Z M-108.00146484 65.265625 C-115.30815063 74.64002155 -118.25136416 83.06356386 -117.31005859 95.0390625 C-115.44134025 106.33951962 -108.82604311 115.30414364 -99.83349609 122.10546875 C-91.9475585 127.36670148 -82.94949563 129.57026811 -73.52099609 128.35546875 C-61.76224402 125.94341704 -52.31781191 120.40563847 -45.52099609 110.35546875 C-40.30577702 100.51007121 -38.8202479 90.18862901 -41.20458984 79.20703125 C-44.60244117 69.14036798 -51.44573947 59.92010186 -61.07958984 55.06640625 C-78.12210794 48.02655479 -95.77040851 50.915803 -108.00146484 65.265625 Z " fill="#000000" transform="translate(669.52099609375,569.64453125)"/>
</svg>
