<?xml version="1.0" encoding="UTF-8" standalone="no"?>
<!DOCTYPE svg PUBLIC "-//W3C//DTD SVG 1.1//EN" "http://www.w3.org/Graphics/SVG/1.1/DTD/svg11.dtd">
<svg width="100%" height="100%" viewBox="0 0 160 22" version="1.1" xmlns="http://www.w3.org/2000/svg" xmlns:xlink="http://www.w3.org/1999/xlink" xml:space="preserve" xmlns:serif="http://www.serif.com/" style="fill-rule:evenodd;clip-rule:evenodd;stroke-linecap:round;stroke-linejoin:round;stroke-miterlimit:1.5;">
    <g transform="matrix(1.39533,0,0,1.39533,-0.374312,-4.57849)">
        <g transform="matrix(12,0,0,12,0.0749013,18.931)">
            <path d="M0.264,-0.062C0.276,-0.062 0.289,-0.063 0.304,-0.065C0.319,-0.068 0.331,-0.07 0.339,-0.073L0.339,-0.006C0.331,-0.002 0.318,0.001 0.301,0.005C0.284,0.008 0.267,0.01 0.249,0.01C0.144,0.01 0.092,-0.045 0.092,-0.156L0.092,-0.468L0.016,-0.468L0.016,-0.51L0.093,-0.545L0.128,-0.659L0.18,-0.659L0.18,-0.536L0.335,-0.536L0.335,-0.468L0.18,-0.468L0.18,-0.158C0.18,-0.127 0.188,-0.104 0.202,-0.087C0.217,-0.07 0.238,-0.062 0.264,-0.062Z" style="fill:rgb(230,237,243);fill-rule:nonzero;"/>
        </g>
        <g transform="matrix(12,0,0,12,4.40498,18.931)">
            <path d="M0.416,-0L0.399,-0.076L0.395,-0.076C0.368,-0.043 0.342,-0.02 0.315,-0.008C0.289,0.004 0.255,0.01 0.215,0.01C0.162,0.01 0.121,-0.004 0.091,-0.032C0.061,-0.059 0.046,-0.098 0.046,-0.149C0.046,-0.258 0.132,-0.315 0.303,-0.32L0.394,-0.323L0.394,-0.355C0.394,-0.396 0.385,-0.426 0.368,-0.445C0.35,-0.464 0.322,-0.474 0.283,-0.474C0.255,-0.474 0.228,-0.47 0.203,-0.461C0.178,-0.453 0.154,-0.444 0.132,-0.433L0.105,-0.499C0.132,-0.513 0.161,-0.525 0.193,-0.533C0.225,-0.541 0.257,-0.545 0.288,-0.545C0.353,-0.545 0.401,-0.531 0.433,-0.502C0.464,-0.473 0.48,-0.428 0.48,-0.365L0.48,-0L0.416,-0ZM0.235,-0.061C0.284,-0.061 0.323,-0.074 0.351,-0.101C0.379,-0.127 0.393,-0.165 0.393,-0.214L0.393,-0.262L0.314,-0.259C0.252,-0.257 0.208,-0.247 0.179,-0.229C0.151,-0.212 0.137,-0.185 0.137,-0.148C0.137,-0.12 0.146,-0.098 0.163,-0.083C0.18,-0.069 0.204,-0.061 0.235,-0.061Z" style="fill:rgb(230,237,243);fill-rule:nonzero;"/>
        </g>
        <g transform="matrix(12,0,0,12,11.1374,18.931)">
            <path d="M0.339,-0.545C0.41,-0.545 0.464,-0.521 0.502,-0.472C0.541,-0.423 0.56,-0.355 0.56,-0.268C0.56,-0.18 0.541,-0.111 0.501,-0.063C0.462,-0.014 0.408,0.01 0.339,0.01C0.303,0.01 0.271,0.003 0.242,-0.01C0.214,-0.023 0.191,-0.042 0.173,-0.068L0.166,-0.068C0.156,-0.029 0.15,-0.006 0.148,-0L0.085,-0L0.085,-0.76L0.173,-0.76L0.173,-0.575C0.173,-0.538 0.171,-0.502 0.168,-0.465L0.173,-0.465C0.209,-0.518 0.264,-0.545 0.339,-0.545ZM0.324,-0.472C0.27,-0.472 0.231,-0.457 0.208,-0.426C0.185,-0.396 0.173,-0.344 0.173,-0.271L0.173,-0.267C0.173,-0.194 0.185,-0.142 0.209,-0.11C0.233,-0.079 0.272,-0.063 0.326,-0.063C0.374,-0.063 0.41,-0.081 0.434,-0.116C0.457,-0.151 0.469,-0.202 0.469,-0.269C0.469,-0.337 0.457,-0.388 0.434,-0.421C0.41,-0.455 0.373,-0.472 0.324,-0.472Z" style="fill:rgb(230,237,243);fill-rule:nonzero;"/>
        </g>
        <g transform="matrix(12,0,0,12,18.5202,18.931)">
            <rect x="0.085" y="-0.76" width="0.088" height="0.76" style="fill:rgb(230,237,243);fill-rule:nonzero;"/>
        </g>
        <g transform="matrix(12,0,0,12,21.614,18.931)">
            <path d="M0.313,0.01C0.233,0.01 0.17,-0.015 0.124,-0.063C0.078,-0.112 0.055,-0.179 0.055,-0.264C0.055,-0.35 0.076,-0.419 0.119,-0.469C0.162,-0.52 0.219,-0.546 0.292,-0.546C0.359,-0.546 0.413,-0.524 0.453,-0.481C0.493,-0.437 0.513,-0.378 0.513,-0.304L0.513,-0.251L0.146,-0.251C0.148,-0.19 0.163,-0.144 0.192,-0.112C0.222,-0.081 0.263,-0.065 0.317,-0.065C0.346,-0.065 0.373,-0.067 0.398,-0.073C0.424,-0.078 0.454,-0.087 0.489,-0.102L0.489,-0.025C0.459,-0.012 0.431,-0.003 0.405,0.002C0.379,0.007 0.348,0.01 0.313,0.01ZM0.291,-0.474C0.249,-0.474 0.216,-0.461 0.191,-0.434C0.167,-0.407 0.153,-0.369 0.148,-0.321L0.421,-0.321C0.42,-0.371 0.409,-0.409 0.386,-0.435C0.364,-0.461 0.332,-0.474 0.291,-0.474Z" style="fill:rgb(230,237,243);fill-rule:nonzero;"/>
        </g>
        <g transform="matrix(12,0,0,12,31.4987,18.931)">
            <path d="M0.551,-0.269C0.551,-0.181 0.529,-0.113 0.484,-0.064C0.44,-0.015 0.379,0.01 0.301,0.01C0.252,0.01 0.209,-0.002 0.172,-0.024C0.134,-0.047 0.106,-0.079 0.085,-0.122C0.065,-0.164 0.055,-0.213 0.055,-0.269C0.055,-0.356 0.077,-0.424 0.121,-0.473C0.164,-0.522 0.225,-0.546 0.304,-0.546C0.38,-0.546 0.44,-0.521 0.484,-0.471C0.529,-0.422 0.551,-0.354 0.551,-0.269ZM0.146,-0.269C0.146,-0.202 0.159,-0.15 0.186,-0.115C0.212,-0.08 0.251,-0.063 0.303,-0.063C0.354,-0.063 0.393,-0.08 0.42,-0.115C0.447,-0.15 0.46,-0.202 0.46,-0.269C0.46,-0.336 0.447,-0.387 0.42,-0.421C0.393,-0.455 0.354,-0.472 0.302,-0.472C0.198,-0.472 0.146,-0.404 0.146,-0.269Z" style="fill:rgb(230,237,243);fill-rule:nonzero;"/>
        </g>
        <g transform="matrix(12,0,0,12,38.7585,18.931)">
            <path d="M0.332,-0.468L0.197,-0.468L0.197,-0L0.109,-0L0.109,-0.468L0.015,-0.468L0.015,-0.509L0.109,-0.539L0.109,-0.57C0.109,-0.635 0.123,-0.684 0.152,-0.716C0.18,-0.749 0.224,-0.765 0.283,-0.765C0.317,-0.765 0.352,-0.759 0.387,-0.747L0.364,-0.678C0.333,-0.688 0.307,-0.693 0.284,-0.693C0.255,-0.693 0.233,-0.683 0.218,-0.664C0.204,-0.644 0.197,-0.613 0.197,-0.571L0.197,-0.536L0.332,-0.536L0.332,-0.468Z" style="fill:rgb(230,237,243);fill-rule:nonzero;"/>
        </g>
        <g transform="matrix(12,0,0,12,46.0065,18.931)">
            <path d="M0.3,0.01C0.223,0.01 0.163,-0.014 0.12,-0.061C0.077,-0.109 0.055,-0.177 0.055,-0.265C0.055,-0.355 0.077,-0.424 0.12,-0.473C0.164,-0.522 0.226,-0.546 0.306,-0.546C0.332,-0.546 0.358,-0.543 0.384,-0.538C0.409,-0.532 0.43,-0.526 0.447,-0.517L0.42,-0.444C0.375,-0.461 0.336,-0.469 0.304,-0.469C0.25,-0.469 0.21,-0.452 0.185,-0.418C0.159,-0.384 0.146,-0.333 0.146,-0.266C0.146,-0.201 0.159,-0.152 0.185,-0.117C0.21,-0.083 0.248,-0.066 0.299,-0.066C0.346,-0.066 0.392,-0.076 0.438,-0.097L0.438,-0.019C0.401,0 0.355,0.01 0.3,0.01Z" style="fill:rgb(230,237,243);fill-rule:nonzero;"/>
        </g>
        <g transform="matrix(12,0,0,12,51.7663,18.931)">
            <path d="M0.551,-0.269C0.551,-0.181 0.529,-0.113 0.484,-0.064C0.44,-0.015 0.379,0.01 0.301,0.01C0.252,0.01 0.209,-0.002 0.172,-0.024C0.134,-0.047 0.106,-0.079 0.085,-0.122C0.065,-0.164 0.055,-0.213 0.055,-0.269C0.055,-0.356 0.077,-0.424 0.121,-0.473C0.164,-0.522 0.225,-0.546 0.304,-0.546C0.38,-0.546 0.44,-0.521 0.484,-0.471C0.529,-0.422 0.551,-0.354 0.551,-0.269ZM0.146,-0.269C0.146,-0.202 0.159,-0.15 0.186,-0.115C0.212,-0.08 0.251,-0.063 0.303,-0.063C0.354,-0.063 0.393,-0.08 0.42,-0.115C0.447,-0.15 0.46,-0.202 0.46,-0.269C0.46,-0.336 0.447,-0.387 0.42,-0.421C0.393,-0.455 0.354,-0.472 0.302,-0.472C0.198,-0.472 0.146,-0.404 0.146,-0.269Z" style="fill:rgb(230,237,243);fill-rule:nonzero;"/>
        </g>
        <g transform="matrix(12,0,0,12,59.0261,18.931)">
            <path d="M0.45,-0L0.45,-0.343C0.45,-0.386 0.441,-0.419 0.421,-0.44C0.402,-0.462 0.371,-0.472 0.33,-0.472C0.275,-0.472 0.235,-0.457 0.21,-0.427C0.185,-0.396 0.173,-0.347 0.173,-0.278L0.173,-0L0.085,-0L0.085,-0.536L0.156,-0.536L0.169,-0.463L0.174,-0.463C0.19,-0.489 0.214,-0.51 0.244,-0.524C0.274,-0.539 0.307,-0.546 0.343,-0.546C0.409,-0.546 0.457,-0.53 0.489,-0.498C0.521,-0.466 0.537,-0.417 0.537,-0.349L0.537,-0L0.45,-0Z" style="fill:rgb(230,237,243);fill-rule:nonzero;"/>
        </g>
        <g transform="matrix(12,0,0,12,66.444,18.931)">
            <path d="M0.264,-0.062C0.276,-0.062 0.289,-0.063 0.304,-0.065C0.319,-0.068 0.331,-0.07 0.339,-0.073L0.339,-0.006C0.331,-0.002 0.318,0.001 0.301,0.005C0.284,0.008 0.267,0.01 0.249,0.01C0.144,0.01 0.092,-0.045 0.092,-0.156L0.092,-0.468L0.016,-0.468L0.016,-0.51L0.093,-0.545L0.128,-0.659L0.18,-0.659L0.18,-0.536L0.335,-0.536L0.335,-0.468L0.18,-0.468L0.18,-0.158C0.18,-0.127 0.188,-0.104 0.202,-0.087C0.217,-0.07 0.238,-0.062 0.264,-0.062Z" style="fill:rgb(230,237,243);fill-rule:nonzero;"/>
        </g>
        <g transform="matrix(12,0,0,12,70.7741,18.931)">
            <path d="M0.313,0.01C0.233,0.01 0.17,-0.015 0.124,-0.063C0.078,-0.112 0.055,-0.179 0.055,-0.264C0.055,-0.35 0.076,-0.419 0.119,-0.469C0.162,-0.52 0.219,-0.546 0.292,-0.546C0.359,-0.546 0.413,-0.524 0.453,-0.481C0.493,-0.437 0.513,-0.378 0.513,-0.304L0.513,-0.251L0.146,-0.251C0.148,-0.19 0.163,-0.144 0.192,-0.112C0.222,-0.081 0.263,-0.065 0.317,-0.065C0.346,-0.065 0.373,-0.067 0.398,-0.073C0.424,-0.078 0.454,-0.087 0.489,-0.102L0.489,-0.025C0.459,-0.012 0.431,-0.003 0.405,0.002C0.379,0.007 0.348,0.01 0.313,0.01ZM0.291,-0.474C0.249,-0.474 0.216,-0.461 0.191,-0.434C0.167,-0.407 0.153,-0.369 0.148,-0.321L0.421,-0.321C0.42,-0.371 0.409,-0.409 0.386,-0.435C0.364,-0.461 0.332,-0.474 0.291,-0.474Z" style="fill:rgb(230,237,243);fill-rule:nonzero;"/>
        </g>
        <g transform="matrix(12,0,0,12,77.5417,18.931)">
            <path d="M0.45,-0L0.45,-0.343C0.45,-0.386 0.441,-0.419 0.421,-0.44C0.402,-0.462 0.371,-0.472 0.33,-0.472C0.275,-0.472 0.235,-0.457 0.21,-0.427C0.185,-0.396 0.173,-0.347 0.173,-0.278L0.173,-0L0.085,-0L0.085,-0.536L0.156,-0.536L0.169,-0.463L0.174,-0.463C0.19,-0.489 0.214,-0.51 0.244,-0.524C0.274,-0.539 0.307,-0.546 0.343,-0.546C0.409,-0.546 0.457,-0.53 0.489,-0.498C0.521,-0.466 0.537,-0.417 0.537,-0.349L0.537,-0L0.45,-0Z" style="fill:rgb(230,237,243);fill-rule:nonzero;"/>
        </g>
        <g transform="matrix(12,0,0,12,84.9597,18.931)">
            <path d="M0.264,-0.062C0.276,-0.062 0.289,-0.063 0.304,-0.065C0.319,-0.068 0.331,-0.07 0.339,-0.073L0.339,-0.006C0.331,-0.002 0.318,0.001 0.301,0.005C0.284,0.008 0.267,0.01 0.249,0.01C0.144,0.01 0.092,-0.045 0.092,-0.156L0.092,-0.468L0.016,-0.468L0.016,-0.51L0.093,-0.545L0.128,-0.659L0.18,-0.659L0.18,-0.536L0.335,-0.536L0.335,-0.468L0.18,-0.468L0.18,-0.158C0.18,-0.127 0.188,-0.104 0.202,-0.087C0.217,-0.07 0.238,-0.062 0.264,-0.062Z" style="fill:rgb(230,237,243);fill-rule:nonzero;"/>
        </g>
        <g transform="matrix(12,0,0,12,89.2897,18.931)">
            <path d="M0.434,-0.148C0.434,-0.098 0.415,-0.059 0.378,-0.031C0.34,-0.004 0.288,0.01 0.22,0.01C0.15,0.01 0.093,-0.001 0.052,-0.024L0.052,-0.104C0.111,-0.075 0.167,-0.061 0.222,-0.061C0.266,-0.061 0.299,-0.068 0.319,-0.083C0.339,-0.097 0.349,-0.116 0.349,-0.14C0.349,-0.161 0.339,-0.179 0.32,-0.194C0.301,-0.208 0.266,-0.225 0.217,-0.244C0.166,-0.264 0.131,-0.28 0.11,-0.294C0.09,-0.308 0.075,-0.324 0.065,-0.341C0.056,-0.358 0.051,-0.379 0.051,-0.404C0.051,-0.448 0.069,-0.482 0.104,-0.508C0.14,-0.533 0.189,-0.546 0.252,-0.546C0.313,-0.546 0.37,-0.534 0.423,-0.51L0.393,-0.44C0.339,-0.463 0.29,-0.474 0.246,-0.474C0.21,-0.474 0.182,-0.468 0.163,-0.457C0.144,-0.445 0.135,-0.429 0.135,-0.409C0.135,-0.39 0.143,-0.373 0.159,-0.361C0.175,-0.348 0.213,-0.33 0.273,-0.307C0.318,-0.291 0.351,-0.275 0.372,-0.261C0.393,-0.246 0.409,-0.23 0.419,-0.212C0.429,-0.194 0.434,-0.173 0.434,-0.148Z" style="fill:rgb(230,237,243);fill-rule:nonzero;"/>
        </g>
    </g>
    <g transform="matrix(1,0,0,1,-40,-0.219474)">
        <g transform="matrix(1,-0,-0,1,40,0.219474)">
            <path d="M150.896,3.953L159,1L159.566,9.606L150.896,3.953Z" style="fill:rgb(230,237,243);"/>
            <path d="M136,18C144.374,18 150.644,13.092 155.985,5.624" style="fill:none;stroke:rgb(230,237,243);stroke-width:2.3px;"/>
        </g>
    </g>
</svg>
