<?xml version="1.0" encoding="UTF-8" standalone="no"?>
<!-- Created with Inkscape (http://www.inkscape.org/) -->

<svg
   width="48"
   height="48"
   viewBox="0 0 12.7 12.7"
   version="1.1"
   id="svg3797"
   inkscape:version="1.2.2 (b0a8486541, 2022-12-01)"
   sodipodi:docname="notification.svg"
   inkscape:export-filename="/media/payno/830add5c-f5d7-4db2-875e-03be4f0a67f0/dev/tomography/tomwer/orangecontrib/tomwer/widgets/control/icons/notification.png"
   inkscape:export-xdpi="24.190001"
   inkscape:export-ydpi="24.190001"
   xmlns:inkscape="http://www.inkscape.org/namespaces/inkscape"
   xmlns:sodipodi="http://sodipodi.sourceforge.net/DTD/sodipodi-0.dtd"
   xmlns="http://www.w3.org/2000/svg"
   xmlns:svg="http://www.w3.org/2000/svg"
   xmlns:rdf="http://www.w3.org/1999/02/22-rdf-syntax-ns#"
   xmlns:cc="http://creativecommons.org/ns#"
   xmlns:dc="http://purl.org/dc/elements/1.1/">
  <defs
     id="defs3791" />
  <sodipodi:namedview
     id="base"
     pagecolor="#ffffff"
     bordercolor="#666666"
     borderopacity="1.0"
     inkscape:pageopacity="0.0"
     inkscape:pageshadow="2"
     inkscape:zoom="2.8"
     inkscape:cx="42.321429"
     inkscape:cy="31.785714"
     inkscape:document-units="mm"
     inkscape:current-layer="g3573"
     showgrid="false"
     inkscape:window-width="1920"
     inkscape:window-height="1131"
     inkscape:window-x="0"
     inkscape:window-y="32"
     inkscape:window-maximized="1"
     units="px"
     inkscape:showpageshadow="2"
     inkscape:pagecheckerboard="0"
     inkscape:deskcolor="#d1d1d1" />
  <metadata
     id="metadata3794">
    <rdf:RDF>
      <cc:Work
         rdf:about="">
        <dc:format>image/svg+xml</dc:format>
        <dc:type
           rdf:resource="http://purl.org/dc/dcmitype/StillImage" />
        <dc:title />
      </cc:Work>
    </rdf:RDF>
  </metadata>
  <g
     inkscape:label="Layer 1"
     inkscape:groupmode="layer"
     id="layer1"
     transform="translate(0,-284.3)">
    <g
       id="g3624"
       transform="rotate(23.483805,7.3087825,290.97094)">
      <g
         id="g5504"
         transform="matrix(0.19729442,0,0,0.23536518,-14.326345,259.38185)">
        <path
           sodipodi:nodetypes="cccccc"
           inkscape:connector-curvature="0"
           id="path5468"
           d="m 76.787832,145.11963 c 3.776181,-3.73179 2.957571,-4.88342 3.643947,-10.31516 0.615036,-12.86824 5.005746,-12.99054 11.288828,-13.20357 4.522104,0.0631 7.455563,2.84181 9.089843,9.98389 0.54736,6.4749 1.85747,9.85263 5.99966,13.22382 z"
           style="fill:none;stroke:#000000;stroke-width:1.41709;stroke-linecap:round;stroke-linejoin:round;stroke-miterlimit:4;stroke-dasharray:none;stroke-opacity:1" />
        <path
           d="m 94.996347,145.035 a 3.1544971,3.2393329 0 0 1 -3.064928,3.23803 3.1544971,3.2393329 0 0 1 -3.238979,-3.05414 l 3.14941,-0.18389 z"
           sodipodi:end="3.0847969"
           sodipodi:start="0"
           sodipodi:ry="3.2393329"
           sodipodi:rx="3.1544971"
           sodipodi:cy="145.035"
           sodipodi:cx="91.84185"
           sodipodi:type="arc"
           id="path5470"
           style="opacity:1;fill:none;fill-opacity:1;fill-rule:evenodd;stroke:#000000;stroke-width:1.41709;stroke-linecap:round;stroke-linejoin:round;stroke-miterlimit:4;stroke-dasharray:none;stroke-dashoffset:0;stroke-opacity:1;paint-order:normal"
           sodipodi:arc-type="slice" />
        <path
           d="m 91.378779,117.46187 a 1.2416637,3.4063089 0 0 1 -1.206409,3.40493 1.2416637,3.4063089 0 0 1 -1.274916,-3.21158 l 1.239661,-0.19335 z"
           sodipodi:end="3.0847996"
           sodipodi:start="0"
           sodipodi:ry="3.4063089"
           sodipodi:rx="1.2416637"
           sodipodi:cy="117.46187"
           sodipodi:cx="90.137115"
           sodipodi:type="arc"
           id="path5472"
           style="opacity:1;fill:none;fill-opacity:1;fill-rule:evenodd;stroke:#000000;stroke-width:1.41709;stroke-linecap:round;stroke-linejoin:round;stroke-miterlimit:4;stroke-dasharray:none;stroke-dashoffset:0;stroke-opacity:1;paint-order:normal"
           sodipodi:arc-type="slice" />
        <path
           sodipodi:nodetypes="cc"
           inkscape:connector-curvature="0"
           id="path5476"
           d="m 96.486407,120.2327 c 2.844212,1.32283 4.182953,4.58667 5.441243,6.48341"
           style="fill:none;stroke:#000000;stroke-width:0.708547;stroke-linecap:round;stroke-linejoin:miter;stroke-miterlimit:4;stroke-dasharray:none;stroke-opacity:1" />
        <path
           sodipodi:nodetypes="cc"
           inkscape:connector-curvature="0"
           id="path5478"
           d="m 79.381124,126.02251 c 0.661625,-2.30145 2.083791,-4.20782 4.16125,-5.27644"
           style="fill:none;stroke:#000000;stroke-width:0.708547;stroke-linecap:round;stroke-linejoin:miter;stroke-miterlimit:4;stroke-dasharray:none;stroke-opacity:1" />
      </g>
      <path
         style="fill:#ffffff;fill-opacity:1;stroke:#000000;stroke-width:0.298868;stroke-linecap:square;stroke-miterlimit:0.5;stroke-dasharray:none"
         id="path346"
         sodipodi:type="arc"
         sodipodi:cx="6.4445271"
         sodipodi:cy="288.93567"
         sodipodi:rx="1.9188491"
         sodipodi:ry="1.9602865"
         sodipodi:start="0"
         sodipodi:end="6.2816001"
         sodipodi:open="true"
         sodipodi:arc-type="arc"
         d="m 8.3633763,288.93567 a 1.9188491,1.9602865 0 0 1 -1.9180887,1.96029 1.9188491,1.9602865 0 0 1 -1.919609,-1.95874 1.9188491,1.9602865 0 0 1 1.9165672,-1.96184 1.9188491,1.9602865 0 0 1 1.921128,1.95718" />
      <g
         aria-label="2"
         transform="scale(1.0270927,0.97362196)"
         id="text1736"
         style="font-size:2.84785px;font-family:'Nimbus Sans';-inkscape-font-specification:'Nimbus Sans';fill:#ffffff;stroke:#000000;stroke-width:0.322906;stroke-linecap:square;stroke-miterlimit:0.5">
        <path
           style="color:#000000;-inkscape-font-specification:FreeSans;fill:#ff0000;stroke:none;stroke-linecap:butt;-inkscape-stroke:none"
           d="m 6.21875,295.51562 c -0.2446481,10e-6 -0.4584654,0.0701 -0.6054688,0.22461 -0.1470033,0.15455 -0.2133524,0.37449 -0.2207031,0.63282 l 0.1601563,0.16601 h 0.25 l 0.1621093,-0.15234 c 0.00825,-0.13937 0.042137,-0.22309 0.078125,-0.26563 0.035988,-0.0425 0.075907,-0.0644 0.1679688,-0.0644 0.079829,0 0.1271102,0.0201 0.1738281,0.0644 0.04672,0.0444 0.0625,0.0839 0.0625,0.1543 0,0.1006 -0.040273,0.17123 -0.1914062,0.25781 l -0.2617188,0.14844 c -0.2237297,0.12699 -0.3877213,0.25709 -0.4882812,0.41406 -0.1008021,0.15489 -0.1478775,0.35236 -0.1601563,0.5918 l 0.1621094,0.16992 h 1.34375 l 0.1621094,-0.16211 v -0.24804 L 6.8515625,297.28711 H 6.0722656 c 0.039478,-0.0342 0.076205,-0.0691 0.1582031,-0.11328 l 0.2851563,-0.15235 v -0.002 c 0.3167778,-0.17318 0.5117187,-0.43823 0.5117187,-0.75 0,-0.21152 -0.081519,-0.40794 -0.2324218,-0.54687 -0.1512394,-0.13924 -0.3535127,-0.20703 -0.5761719,-0.20704 z m -0.5058594,2.00586 0.011719,0.0137 h -0.013672 c 10e-4,-0.005 9.061e-4,-0.009 0.00195,-0.0137 z"
           id="path3591" />
      </g>
    </g>
    <g
       id="g3573">
      <g
         id="g3628"
         transform="rotate(-53.649286,7.258988,315.32427)">
        <rect
           style="fill:none;stroke:#000000;stroke-width:0.145064;stroke-linejoin:round;stroke-dasharray:none;stroke-opacity:1"
           id="rect111"
           width="5.7812624"
           height="3.8480003"
           x="129.1003"
           y="272.59863"
           transform="rotate(20.74234)" />
        <path
           style="fill:none;stroke:#000000;stroke-width:0.145063;stroke-linejoin:round;stroke-dasharray:none;stroke-opacity:1"
           d="m 24.178138,300.63514 1.882884,3.06375 1.216375,-0.35117 2.260686,-0.65268"
           id="path908"
           sodipodi:nodetypes="cccc" />
      </g>
    </g>
  </g>
</svg>
