<?xml version="1.0" encoding="utf-8" standalone="no"?>
<!DOCTYPE svg PUBLIC "-//W3C//DTD SVG 1.1//EN"
  "http://www.w3.org/Graphics/SVG/1.1/DTD/svg11.dtd">
<svg xmlns:xlink="http://www.w3.org/1999/xlink" width="432pt" height="360pt" viewBox="0 0 432 360" xmlns="http://www.w3.org/2000/svg" version="1.1">
 <metadata>
  <rdf:RDF xmlns:dc="http://purl.org/dc/elements/1.1/" xmlns:cc="http://creativecommons.org/ns#" xmlns:rdf="http://www.w3.org/1999/02/22-rdf-syntax-ns#">
   <cc:Work>
    <dc:type rdf:resource="http://purl.org/dc/dcmitype/StillImage"/>
    <dc:date>2024-07-05T13:30:55.671735</dc:date>
    <dc:format>image/svg+xml</dc:format>
    <dc:creator>
     <cc:Agent>
      <dc:title>Matplotlib v3.8.2, https://matplotlib.org/</dc:title>
     </cc:Agent>
    </dc:creator>
   </cc:Work>
  </rdf:RDF>
 </metadata>
 <defs>
  <style type="text/css">*{stroke-linejoin: round; stroke-linecap: butt}</style>
 </defs>
 <g id="figure_1">
  <g id="patch_1">
   <path d="M 0 360 
L 432 360 
L 432 0 
L 0 0 
z
" style="fill: #ffffff"/>
  </g>
  <g id="axes_1">
   <g id="patch_2">
    <path d="M 54 320.4 
L 388.8 320.4 
L 388.8 43.2 
L 54 43.2 
z
" style="fill: #ffffff"/>
   </g>
   <g id="matplotlib.axis_1">
    <g id="xtick_1">
     <g id="line2d_1">
      <path d="M 66.143802 320.4 
L 66.143802 43.2 
" clip-path="url(#p6af1d9eca5)" style="fill: none; stroke: #b0b0b0; stroke-width: 0.8; stroke-linecap: square"/>
     </g>
     <g id="line2d_2">
      <defs>
       <path id="m4f882f803f" d="M 0 0 
L 0 3.5 
" style="stroke: #000000; stroke-width: 0.8"/>
      </defs>
      <g>
       <use xlink:href="#m4f882f803f" x="66.143802" y="320.4" style="stroke: #000000; stroke-width: 0.8"/>
      </g>
     </g>
     <g id="text_1">
      <!-- 0 -->
      <g transform="translate(62.962552 334.998438) scale(0.1 -0.1)">
       <defs>
        <path id="DejaVuSans-30" d="M 2034 4250 
Q 1547 4250 1301 3770 
Q 1056 3291 1056 2328 
Q 1056 1369 1301 889 
Q 1547 409 2034 409 
Q 2525 409 2770 889 
Q 3016 1369 3016 2328 
Q 3016 3291 2770 3770 
Q 2525 4250 2034 4250 
z
M 2034 4750 
Q 2819 4750 3233 4129 
Q 3647 3509 3647 2328 
Q 3647 1150 3233 529 
Q 2819 -91 2034 -91 
Q 1250 -91 836 529 
Q 422 1150 422 2328 
Q 422 3509 836 4129 
Q 1250 4750 2034 4750 
z
" transform="scale(0.015625)"/>
       </defs>
       <use xlink:href="#DejaVuSans-30"/>
      </g>
     </g>
    </g>
    <g id="xtick_2">
     <g id="line2d_3">
      <path d="M 127.631405 320.4 
L 127.631405 43.2 
" clip-path="url(#p6af1d9eca5)" style="fill: none; stroke: #b0b0b0; stroke-width: 0.8; stroke-linecap: square"/>
     </g>
     <g id="line2d_4">
      <g>
       <use xlink:href="#m4f882f803f" x="127.631405" y="320.4" style="stroke: #000000; stroke-width: 0.8"/>
      </g>
     </g>
     <g id="text_2">
      <!-- 20 -->
      <g transform="translate(121.268905 334.998438) scale(0.1 -0.1)">
       <defs>
        <path id="DejaVuSans-32" d="M 1228 531 
L 3431 531 
L 3431 0 
L 469 0 
L 469 531 
Q 828 903 1448 1529 
Q 2069 2156 2228 2338 
Q 2531 2678 2651 2914 
Q 2772 3150 2772 3378 
Q 2772 3750 2511 3984 
Q 2250 4219 1831 4219 
Q 1534 4219 1204 4116 
Q 875 4013 500 3803 
L 500 4441 
Q 881 4594 1212 4672 
Q 1544 4750 1819 4750 
Q 2544 4750 2975 4387 
Q 3406 4025 3406 3419 
Q 3406 3131 3298 2873 
Q 3191 2616 2906 2266 
Q 2828 2175 2409 1742 
Q 1991 1309 1228 531 
z
" transform="scale(0.015625)"/>
       </defs>
       <use xlink:href="#DejaVuSans-32"/>
       <use xlink:href="#DejaVuSans-30" x="63.623047"/>
      </g>
     </g>
    </g>
    <g id="xtick_3">
     <g id="line2d_5">
      <path d="M 189.119008 320.4 
L 189.119008 43.2 
" clip-path="url(#p6af1d9eca5)" style="fill: none; stroke: #b0b0b0; stroke-width: 0.8; stroke-linecap: square"/>
     </g>
     <g id="line2d_6">
      <g>
       <use xlink:href="#m4f882f803f" x="189.119008" y="320.4" style="stroke: #000000; stroke-width: 0.8"/>
      </g>
     </g>
     <g id="text_3">
      <!-- 40 -->
      <g transform="translate(182.756508 334.998438) scale(0.1 -0.1)">
       <defs>
        <path id="DejaVuSans-34" d="M 2419 4116 
L 825 1625 
L 2419 1625 
L 2419 4116 
z
M 2253 4666 
L 3047 4666 
L 3047 1625 
L 3713 1625 
L 3713 1100 
L 3047 1100 
L 3047 0 
L 2419 0 
L 2419 1100 
L 313 1100 
L 313 1709 
L 2253 4666 
z
" transform="scale(0.015625)"/>
       </defs>
       <use xlink:href="#DejaVuSans-34"/>
       <use xlink:href="#DejaVuSans-30" x="63.623047"/>
      </g>
     </g>
    </g>
    <g id="xtick_4">
     <g id="line2d_7">
      <path d="M 250.606612 320.4 
L 250.606612 43.2 
" clip-path="url(#p6af1d9eca5)" style="fill: none; stroke: #b0b0b0; stroke-width: 0.8; stroke-linecap: square"/>
     </g>
     <g id="line2d_8">
      <g>
       <use xlink:href="#m4f882f803f" x="250.606612" y="320.4" style="stroke: #000000; stroke-width: 0.8"/>
      </g>
     </g>
     <g id="text_4">
      <!-- 60 -->
      <g transform="translate(244.244112 334.998438) scale(0.1 -0.1)">
       <defs>
        <path id="DejaVuSans-36" d="M 2113 2584 
Q 1688 2584 1439 2293 
Q 1191 2003 1191 1497 
Q 1191 994 1439 701 
Q 1688 409 2113 409 
Q 2538 409 2786 701 
Q 3034 994 3034 1497 
Q 3034 2003 2786 2293 
Q 2538 2584 2113 2584 
z
M 3366 4563 
L 3366 3988 
Q 3128 4100 2886 4159 
Q 2644 4219 2406 4219 
Q 1781 4219 1451 3797 
Q 1122 3375 1075 2522 
Q 1259 2794 1537 2939 
Q 1816 3084 2150 3084 
Q 2853 3084 3261 2657 
Q 3669 2231 3669 1497 
Q 3669 778 3244 343 
Q 2819 -91 2113 -91 
Q 1303 -91 875 529 
Q 447 1150 447 2328 
Q 447 3434 972 4092 
Q 1497 4750 2381 4750 
Q 2619 4750 2861 4703 
Q 3103 4656 3366 4563 
z
" transform="scale(0.015625)"/>
       </defs>
       <use xlink:href="#DejaVuSans-36"/>
       <use xlink:href="#DejaVuSans-30" x="63.623047"/>
      </g>
     </g>
    </g>
    <g id="xtick_5">
     <g id="line2d_9">
      <path d="M 312.094215 320.4 
L 312.094215 43.2 
" clip-path="url(#p6af1d9eca5)" style="fill: none; stroke: #b0b0b0; stroke-width: 0.8; stroke-linecap: square"/>
     </g>
     <g id="line2d_10">
      <g>
       <use xlink:href="#m4f882f803f" x="312.094215" y="320.4" style="stroke: #000000; stroke-width: 0.8"/>
      </g>
     </g>
     <g id="text_5">
      <!-- 80 -->
      <g transform="translate(305.731715 334.998438) scale(0.1 -0.1)">
       <defs>
        <path id="DejaVuSans-38" d="M 2034 2216 
Q 1584 2216 1326 1975 
Q 1069 1734 1069 1313 
Q 1069 891 1326 650 
Q 1584 409 2034 409 
Q 2484 409 2743 651 
Q 3003 894 3003 1313 
Q 3003 1734 2745 1975 
Q 2488 2216 2034 2216 
z
M 1403 2484 
Q 997 2584 770 2862 
Q 544 3141 544 3541 
Q 544 4100 942 4425 
Q 1341 4750 2034 4750 
Q 2731 4750 3128 4425 
Q 3525 4100 3525 3541 
Q 3525 3141 3298 2862 
Q 3072 2584 2669 2484 
Q 3125 2378 3379 2068 
Q 3634 1759 3634 1313 
Q 3634 634 3220 271 
Q 2806 -91 2034 -91 
Q 1263 -91 848 271 
Q 434 634 434 1313 
Q 434 1759 690 2068 
Q 947 2378 1403 2484 
z
M 1172 3481 
Q 1172 3119 1398 2916 
Q 1625 2713 2034 2713 
Q 2441 2713 2670 2916 
Q 2900 3119 2900 3481 
Q 2900 3844 2670 4047 
Q 2441 4250 2034 4250 
Q 1625 4250 1398 4047 
Q 1172 3844 1172 3481 
z
" transform="scale(0.015625)"/>
       </defs>
       <use xlink:href="#DejaVuSans-38"/>
       <use xlink:href="#DejaVuSans-30" x="63.623047"/>
      </g>
     </g>
    </g>
    <g id="xtick_6">
     <g id="line2d_11">
      <path d="M 373.581818 320.4 
L 373.581818 43.2 
" clip-path="url(#p6af1d9eca5)" style="fill: none; stroke: #b0b0b0; stroke-width: 0.8; stroke-linecap: square"/>
     </g>
     <g id="line2d_12">
      <g>
       <use xlink:href="#m4f882f803f" x="373.581818" y="320.4" style="stroke: #000000; stroke-width: 0.8"/>
      </g>
     </g>
     <g id="text_6">
      <!-- 100 -->
      <g transform="translate(364.038068 334.998438) scale(0.1 -0.1)">
       <defs>
        <path id="DejaVuSans-31" d="M 794 531 
L 1825 531 
L 1825 4091 
L 703 3866 
L 703 4441 
L 1819 4666 
L 2450 4666 
L 2450 531 
L 3481 531 
L 3481 0 
L 794 0 
L 794 531 
z
" transform="scale(0.015625)"/>
       </defs>
       <use xlink:href="#DejaVuSans-31"/>
       <use xlink:href="#DejaVuSans-30" x="63.623047"/>
       <use xlink:href="#DejaVuSans-30" x="127.246094"/>
      </g>
     </g>
    </g>
    <g id="text_7">
     <!-- Amostra -->
     <g transform="translate(200.365625 348.676562) scale(0.1 -0.1)">
      <defs>
       <path id="DejaVuSans-41" d="M 2188 4044 
L 1331 1722 
L 3047 1722 
L 2188 4044 
z
M 1831 4666 
L 2547 4666 
L 4325 0 
L 3669 0 
L 3244 1197 
L 1141 1197 
L 716 0 
L 50 0 
L 1831 4666 
z
" transform="scale(0.015625)"/>
       <path id="DejaVuSans-6d" d="M 3328 2828 
Q 3544 3216 3844 3400 
Q 4144 3584 4550 3584 
Q 5097 3584 5394 3201 
Q 5691 2819 5691 2113 
L 5691 0 
L 5113 0 
L 5113 2094 
Q 5113 2597 4934 2840 
Q 4756 3084 4391 3084 
Q 3944 3084 3684 2787 
Q 3425 2491 3425 1978 
L 3425 0 
L 2847 0 
L 2847 2094 
Q 2847 2600 2669 2842 
Q 2491 3084 2119 3084 
Q 1678 3084 1418 2786 
Q 1159 2488 1159 1978 
L 1159 0 
L 581 0 
L 581 3500 
L 1159 3500 
L 1159 2956 
Q 1356 3278 1631 3431 
Q 1906 3584 2284 3584 
Q 2666 3584 2933 3390 
Q 3200 3197 3328 2828 
z
" transform="scale(0.015625)"/>
       <path id="DejaVuSans-6f" d="M 1959 3097 
Q 1497 3097 1228 2736 
Q 959 2375 959 1747 
Q 959 1119 1226 758 
Q 1494 397 1959 397 
Q 2419 397 2687 759 
Q 2956 1122 2956 1747 
Q 2956 2369 2687 2733 
Q 2419 3097 1959 3097 
z
M 1959 3584 
Q 2709 3584 3137 3096 
Q 3566 2609 3566 1747 
Q 3566 888 3137 398 
Q 2709 -91 1959 -91 
Q 1206 -91 779 398 
Q 353 888 353 1747 
Q 353 2609 779 3096 
Q 1206 3584 1959 3584 
z
" transform="scale(0.015625)"/>
       <path id="DejaVuSans-73" d="M 2834 3397 
L 2834 2853 
Q 2591 2978 2328 3040 
Q 2066 3103 1784 3103 
Q 1356 3103 1142 2972 
Q 928 2841 928 2578 
Q 928 2378 1081 2264 
Q 1234 2150 1697 2047 
L 1894 2003 
Q 2506 1872 2764 1633 
Q 3022 1394 3022 966 
Q 3022 478 2636 193 
Q 2250 -91 1575 -91 
Q 1294 -91 989 -36 
Q 684 19 347 128 
L 347 722 
Q 666 556 975 473 
Q 1284 391 1588 391 
Q 1994 391 2212 530 
Q 2431 669 2431 922 
Q 2431 1156 2273 1281 
Q 2116 1406 1581 1522 
L 1381 1569 
Q 847 1681 609 1914 
Q 372 2147 372 2553 
Q 372 3047 722 3315 
Q 1072 3584 1716 3584 
Q 2034 3584 2315 3537 
Q 2597 3491 2834 3397 
z
" transform="scale(0.015625)"/>
       <path id="DejaVuSans-74" d="M 1172 4494 
L 1172 3500 
L 2356 3500 
L 2356 3053 
L 1172 3053 
L 1172 1153 
Q 1172 725 1289 603 
Q 1406 481 1766 481 
L 2356 481 
L 2356 0 
L 1766 0 
Q 1100 0 847 248 
Q 594 497 594 1153 
L 594 3053 
L 172 3053 
L 172 3500 
L 594 3500 
L 594 4494 
L 1172 4494 
z
" transform="scale(0.015625)"/>
       <path id="DejaVuSans-72" d="M 2631 2963 
Q 2534 3019 2420 3045 
Q 2306 3072 2169 3072 
Q 1681 3072 1420 2755 
Q 1159 2438 1159 1844 
L 1159 0 
L 581 0 
L 581 3500 
L 1159 3500 
L 1159 2956 
Q 1341 3275 1631 3429 
Q 1922 3584 2338 3584 
Q 2397 3584 2469 3576 
Q 2541 3569 2628 3553 
L 2631 2963 
z
" transform="scale(0.015625)"/>
       <path id="DejaVuSans-61" d="M 2194 1759 
Q 1497 1759 1228 1600 
Q 959 1441 959 1056 
Q 959 750 1161 570 
Q 1363 391 1709 391 
Q 2188 391 2477 730 
Q 2766 1069 2766 1631 
L 2766 1759 
L 2194 1759 
z
M 3341 1997 
L 3341 0 
L 2766 0 
L 2766 531 
Q 2569 213 2275 61 
Q 1981 -91 1556 -91 
Q 1019 -91 701 211 
Q 384 513 384 1019 
Q 384 1609 779 1909 
Q 1175 2209 1959 2209 
L 2766 2209 
L 2766 2266 
Q 2766 2663 2505 2880 
Q 2244 3097 1772 3097 
Q 1472 3097 1187 3025 
Q 903 2953 641 2809 
L 641 3341 
Q 956 3463 1253 3523 
Q 1550 3584 1831 3584 
Q 2591 3584 2966 3190 
Q 3341 2797 3341 1997 
z
" transform="scale(0.015625)"/>
      </defs>
      <use xlink:href="#DejaVuSans-41"/>
      <use xlink:href="#DejaVuSans-6d" x="68.408203"/>
      <use xlink:href="#DejaVuSans-6f" x="165.820312"/>
      <use xlink:href="#DejaVuSans-73" x="227.001953"/>
      <use xlink:href="#DejaVuSans-74" x="279.101562"/>
      <use xlink:href="#DejaVuSans-72" x="318.310547"/>
      <use xlink:href="#DejaVuSans-61" x="359.423828"/>
     </g>
    </g>
   </g>
   <g id="matplotlib.axis_2">
    <g id="ytick_1">
     <g id="line2d_13">
      <path d="M 54 288.571529 
L 388.8 288.571529 
" clip-path="url(#p6af1d9eca5)" style="fill: none; stroke: #b0b0b0; stroke-width: 0.8; stroke-linecap: square"/>
     </g>
     <g id="line2d_14">
      <defs>
       <path id="mfc87c9d414" d="M 0 0 
L -3.5 0 
" style="stroke: #000000; stroke-width: 0.8"/>
      </defs>
      <g>
       <use xlink:href="#mfc87c9d414" x="54" y="288.571529" style="stroke: #000000; stroke-width: 0.8"/>
      </g>
     </g>
     <g id="text_8">
      <!-- 4.98 -->
      <g transform="translate(24.734375 292.370748) scale(0.1 -0.1)">
       <defs>
        <path id="DejaVuSans-2e" d="M 684 794 
L 1344 794 
L 1344 0 
L 684 0 
L 684 794 
z
" transform="scale(0.015625)"/>
        <path id="DejaVuSans-39" d="M 703 97 
L 703 672 
Q 941 559 1184 500 
Q 1428 441 1663 441 
Q 2288 441 2617 861 
Q 2947 1281 2994 2138 
Q 2813 1869 2534 1725 
Q 2256 1581 1919 1581 
Q 1219 1581 811 2004 
Q 403 2428 403 3163 
Q 403 3881 828 4315 
Q 1253 4750 1959 4750 
Q 2769 4750 3195 4129 
Q 3622 3509 3622 2328 
Q 3622 1225 3098 567 
Q 2575 -91 1691 -91 
Q 1453 -91 1209 -44 
Q 966 3 703 97 
z
M 1959 2075 
Q 2384 2075 2632 2365 
Q 2881 2656 2881 3163 
Q 2881 3666 2632 3958 
Q 2384 4250 1959 4250 
Q 1534 4250 1286 3958 
Q 1038 3666 1038 3163 
Q 1038 2656 1286 2365 
Q 1534 2075 1959 2075 
z
" transform="scale(0.015625)"/>
       </defs>
       <use xlink:href="#DejaVuSans-34"/>
       <use xlink:href="#DejaVuSans-2e" x="63.623047"/>
       <use xlink:href="#DejaVuSans-39" x="95.410156"/>
       <use xlink:href="#DejaVuSans-38" x="159.033203"/>
      </g>
     </g>
    </g>
    <g id="ytick_2">
     <g id="line2d_15">
      <path d="M 54 236.802532 
L 388.8 236.802532 
" clip-path="url(#p6af1d9eca5)" style="fill: none; stroke: #b0b0b0; stroke-width: 0.8; stroke-linecap: square"/>
     </g>
     <g id="line2d_16">
      <g>
       <use xlink:href="#mfc87c9d414" x="54" y="236.802532" style="stroke: #000000; stroke-width: 0.8"/>
      </g>
     </g>
     <g id="text_9">
      <!-- 4.99 -->
      <g transform="translate(24.734375 240.601751) scale(0.1 -0.1)">
       <use xlink:href="#DejaVuSans-34"/>
       <use xlink:href="#DejaVuSans-2e" x="63.623047"/>
       <use xlink:href="#DejaVuSans-39" x="95.410156"/>
       <use xlink:href="#DejaVuSans-39" x="159.033203"/>
      </g>
     </g>
    </g>
    <g id="ytick_3">
     <g id="line2d_17">
      <path d="M 54 185.033535 
L 388.8 185.033535 
" clip-path="url(#p6af1d9eca5)" style="fill: none; stroke: #b0b0b0; stroke-width: 0.8; stroke-linecap: square"/>
     </g>
     <g id="line2d_18">
      <g>
       <use xlink:href="#mfc87c9d414" x="54" y="185.033535" style="stroke: #000000; stroke-width: 0.8"/>
      </g>
     </g>
     <g id="text_10">
      <!-- 5.00 -->
      <g transform="translate(24.734375 188.832754) scale(0.1 -0.1)">
       <defs>
        <path id="DejaVuSans-35" d="M 691 4666 
L 3169 4666 
L 3169 4134 
L 1269 4134 
L 1269 2991 
Q 1406 3038 1543 3061 
Q 1681 3084 1819 3084 
Q 2600 3084 3056 2656 
Q 3513 2228 3513 1497 
Q 3513 744 3044 326 
Q 2575 -91 1722 -91 
Q 1428 -91 1123 -41 
Q 819 9 494 109 
L 494 744 
Q 775 591 1075 516 
Q 1375 441 1709 441 
Q 2250 441 2565 725 
Q 2881 1009 2881 1497 
Q 2881 1984 2565 2268 
Q 2250 2553 1709 2553 
Q 1456 2553 1204 2497 
Q 953 2441 691 2322 
L 691 4666 
z
" transform="scale(0.015625)"/>
       </defs>
       <use xlink:href="#DejaVuSans-35"/>
       <use xlink:href="#DejaVuSans-2e" x="63.623047"/>
       <use xlink:href="#DejaVuSans-30" x="95.410156"/>
       <use xlink:href="#DejaVuSans-30" x="159.033203"/>
      </g>
     </g>
    </g>
    <g id="ytick_4">
     <g id="line2d_19">
      <path d="M 54 133.264538 
L 388.8 133.264538 
" clip-path="url(#p6af1d9eca5)" style="fill: none; stroke: #b0b0b0; stroke-width: 0.8; stroke-linecap: square"/>
     </g>
     <g id="line2d_20">
      <g>
       <use xlink:href="#mfc87c9d414" x="54" y="133.264538" style="stroke: #000000; stroke-width: 0.8"/>
      </g>
     </g>
     <g id="text_11">
      <!-- 5.01 -->
      <g transform="translate(24.734375 137.063757) scale(0.1 -0.1)">
       <use xlink:href="#DejaVuSans-35"/>
       <use xlink:href="#DejaVuSans-2e" x="63.623047"/>
       <use xlink:href="#DejaVuSans-30" x="95.410156"/>
       <use xlink:href="#DejaVuSans-31" x="159.033203"/>
      </g>
     </g>
    </g>
    <g id="ytick_5">
     <g id="line2d_21">
      <path d="M 54 81.495541 
L 388.8 81.495541 
" clip-path="url(#p6af1d9eca5)" style="fill: none; stroke: #b0b0b0; stroke-width: 0.8; stroke-linecap: square"/>
     </g>
     <g id="line2d_22">
      <g>
       <use xlink:href="#mfc87c9d414" x="54" y="81.495541" style="stroke: #000000; stroke-width: 0.8"/>
      </g>
     </g>
     <g id="text_12">
      <!-- 5.02 -->
      <g transform="translate(24.734375 85.29476) scale(0.1 -0.1)">
       <use xlink:href="#DejaVuSans-35"/>
       <use xlink:href="#DejaVuSans-2e" x="63.623047"/>
       <use xlink:href="#DejaVuSans-30" x="95.410156"/>
       <use xlink:href="#DejaVuSans-32" x="159.033203"/>
      </g>
     </g>
    </g>
    <g id="text_13">
     <!-- Espessura [mm] -->
     <g transform="translate(18.654687 222.54375) rotate(-90) scale(0.1 -0.1)">
      <defs>
       <path id="DejaVuSans-45" d="M 628 4666 
L 3578 4666 
L 3578 4134 
L 1259 4134 
L 1259 2753 
L 3481 2753 
L 3481 2222 
L 1259 2222 
L 1259 531 
L 3634 531 
L 3634 0 
L 628 0 
L 628 4666 
z
" transform="scale(0.015625)"/>
       <path id="DejaVuSans-70" d="M 1159 525 
L 1159 -1331 
L 581 -1331 
L 581 3500 
L 1159 3500 
L 1159 2969 
Q 1341 3281 1617 3432 
Q 1894 3584 2278 3584 
Q 2916 3584 3314 3078 
Q 3713 2572 3713 1747 
Q 3713 922 3314 415 
Q 2916 -91 2278 -91 
Q 1894 -91 1617 61 
Q 1341 213 1159 525 
z
M 3116 1747 
Q 3116 2381 2855 2742 
Q 2594 3103 2138 3103 
Q 1681 3103 1420 2742 
Q 1159 2381 1159 1747 
Q 1159 1113 1420 752 
Q 1681 391 2138 391 
Q 2594 391 2855 752 
Q 3116 1113 3116 1747 
z
" transform="scale(0.015625)"/>
       <path id="DejaVuSans-65" d="M 3597 1894 
L 3597 1613 
L 953 1613 
Q 991 1019 1311 708 
Q 1631 397 2203 397 
Q 2534 397 2845 478 
Q 3156 559 3463 722 
L 3463 178 
Q 3153 47 2828 -22 
Q 2503 -91 2169 -91 
Q 1331 -91 842 396 
Q 353 884 353 1716 
Q 353 2575 817 3079 
Q 1281 3584 2069 3584 
Q 2775 3584 3186 3129 
Q 3597 2675 3597 1894 
z
M 3022 2063 
Q 3016 2534 2758 2815 
Q 2500 3097 2075 3097 
Q 1594 3097 1305 2825 
Q 1016 2553 972 2059 
L 3022 2063 
z
" transform="scale(0.015625)"/>
       <path id="DejaVuSans-75" d="M 544 1381 
L 544 3500 
L 1119 3500 
L 1119 1403 
Q 1119 906 1312 657 
Q 1506 409 1894 409 
Q 2359 409 2629 706 
Q 2900 1003 2900 1516 
L 2900 3500 
L 3475 3500 
L 3475 0 
L 2900 0 
L 2900 538 
Q 2691 219 2414 64 
Q 2138 -91 1772 -91 
Q 1169 -91 856 284 
Q 544 659 544 1381 
z
M 1991 3584 
L 1991 3584 
z
" transform="scale(0.015625)"/>
       <path id="DejaVuSans-20" transform="scale(0.015625)"/>
       <path id="DejaVuSans-5b" d="M 550 4863 
L 1875 4863 
L 1875 4416 
L 1125 4416 
L 1125 -397 
L 1875 -397 
L 1875 -844 
L 550 -844 
L 550 4863 
z
" transform="scale(0.015625)"/>
       <path id="DejaVuSans-5d" d="M 1947 4863 
L 1947 -844 
L 622 -844 
L 622 -397 
L 1369 -397 
L 1369 4416 
L 622 4416 
L 622 4863 
L 1947 4863 
z
" transform="scale(0.015625)"/>
      </defs>
      <use xlink:href="#DejaVuSans-45"/>
      <use xlink:href="#DejaVuSans-73" x="63.183594"/>
      <use xlink:href="#DejaVuSans-70" x="115.283203"/>
      <use xlink:href="#DejaVuSans-65" x="178.759766"/>
      <use xlink:href="#DejaVuSans-73" x="240.283203"/>
      <use xlink:href="#DejaVuSans-73" x="292.382812"/>
      <use xlink:href="#DejaVuSans-75" x="344.482422"/>
      <use xlink:href="#DejaVuSans-72" x="407.861328"/>
      <use xlink:href="#DejaVuSans-61" x="448.974609"/>
      <use xlink:href="#DejaVuSans-20" x="510.253906"/>
      <use xlink:href="#DejaVuSans-5b" x="542.041016"/>
      <use xlink:href="#DejaVuSans-6d" x="581.054688"/>
      <use xlink:href="#DejaVuSans-6d" x="678.466797"/>
      <use xlink:href="#DejaVuSans-5d" x="775.878906"/>
     </g>
    </g>
   </g>
   <g id="line2d_23">
    <path d="M 69.218182 175.624764 
L 72.292562 222.434371 
L 75.366942 286.960224 
L 78.441322 232.72034 
L 81.515702 141.795596 
L 84.590083 216.690267 
L 87.664463 235.411855 
L 90.738843 195.224826 
L 93.813223 143.804818 
L 96.887603 69.509084 
L 99.961983 248.524136 
L 103.036364 120.146947 
L 106.110744 159.157021 
L 109.185124 153.763272 
L 112.259504 191.341392 
L 115.333884 160.540199 
L 118.408264 232.496997 
L 121.482645 163.620237 
L 124.557025 236.050763 
L 127.631405 184.19157 
L 130.705785 136.959353 
L 133.780165 272.543961 
L 136.854545 183.953633 
L 139.928926 255.985667 
L 143.003306 283.585198 
L 146.077686 122.587673 
L 149.152066 221.999902 
L 152.226446 157.605564 
L 155.300826 274.649585 
L 158.375207 165.281555 
L 161.449587 241.177863 
L 164.523967 154.563557 
L 167.598347 112.550493 
L 170.672727 196.091319 
L 173.747107 200.715213 
L 176.821488 232.878218 
L 179.895868 177.963573 
L 182.970248 186.927843 
L 186.044628 179.730536 
L 189.119008 229.652404 
L 192.193388 203.903079 
L 195.267769 160.716666 
L 198.342149 222.316208 
L 201.416529 241.901962 
L 204.490909 203.418898 
L 207.565289 174.680056 
L 210.639669 235.317067 
L 213.71405 160.806965 
L 216.78843 252.32252 
L 219.86281 247.109824 
L 222.93719 196.609118 
L 226.01157 206.019677 
L 229.08595 165.726058 
L 232.160331 217.008995 
L 235.234711 146.650541 
L 238.309091 191.943554 
L 241.383471 307.8 
L 244.457851 141.580765 
L 247.532231 183.885804 
L 250.606612 152.129899 
L 253.680992 186.318353 
L 256.755372 158.986716 
L 259.829752 139.728629 
L 262.904132 192.462404 
L 265.978512 237.303099 
L 269.052893 202.565419 
L 272.127273 158.258058 
L 275.201653 146.694032 
L 278.276033 182.775385 
L 281.350413 141.772072 
L 284.424793 110.961988 
L 287.499174 220.740731 
L 290.573554 144.311305 
L 293.647934 159.734544 
L 296.722314 191.627641 
L 299.796694 55.8 
L 302.871074 162.999443 
L 305.945455 239.744807 
L 309.019835 258.117087 
L 312.094215 243.939703 
L 315.168595 213.095143 
L 318.242975 217.466817 
L 321.317355 182.604889 
L 324.391736 242.831634 
L 327.466116 189.159976 
L 330.540496 246.092419 
L 333.614876 132.733714 
L 336.689256 118.28389 
L 339.763636 183.002619 
L 342.838017 169.632237 
L 345.912397 103.497995 
L 348.986777 138.055607 
L 352.061157 213.655035 
L 355.135537 141.973925 
L 358.209917 252.504937 
L 361.284298 209.302781 
L 364.358678 261.209641 
L 367.433058 110.726132 
L 370.507438 176.194735 
L 373.581818 70.948152 
" clip-path="url(#p6af1d9eca5)" style="fill: none; stroke-dasharray: 6.4,1.6,1,1.6; stroke-dashoffset: 0; stroke: #0000ff"/>
    <defs>
     <path id="m7fbe247e99" d="M -0.5 -0 
L 0.5 0.5 
L 0.5 -0.5 
z
" style="stroke: #0000ff; stroke-linejoin: miter"/>
    </defs>
    <g clip-path="url(#p6af1d9eca5)">
     <use xlink:href="#m7fbe247e99" x="69.218182" y="175.624764" style="fill: #0000ff; stroke: #0000ff; stroke-linejoin: miter"/>
     <use xlink:href="#m7fbe247e99" x="72.292562" y="222.434371" style="fill: #0000ff; stroke: #0000ff; stroke-linejoin: miter"/>
     <use xlink:href="#m7fbe247e99" x="75.366942" y="286.960224" style="fill: #0000ff; stroke: #0000ff; stroke-linejoin: miter"/>
     <use xlink:href="#m7fbe247e99" x="78.441322" y="232.72034" style="fill: #0000ff; stroke: #0000ff; stroke-linejoin: miter"/>
     <use xlink:href="#m7fbe247e99" x="81.515702" y="141.795596" style="fill: #0000ff; stroke: #0000ff; stroke-linejoin: miter"/>
     <use xlink:href="#m7fbe247e99" x="84.590083" y="216.690267" style="fill: #0000ff; stroke: #0000ff; stroke-linejoin: miter"/>
     <use xlink:href="#m7fbe247e99" x="87.664463" y="235.411855" style="fill: #0000ff; stroke: #0000ff; stroke-linejoin: miter"/>
     <use xlink:href="#m7fbe247e99" x="90.738843" y="195.224826" style="fill: #0000ff; stroke: #0000ff; stroke-linejoin: miter"/>
     <use xlink:href="#m7fbe247e99" x="93.813223" y="143.804818" style="fill: #0000ff; stroke: #0000ff; stroke-linejoin: miter"/>
     <use xlink:href="#m7fbe247e99" x="96.887603" y="69.509084" style="fill: #0000ff; stroke: #0000ff; stroke-linejoin: miter"/>
     <use xlink:href="#m7fbe247e99" x="99.961983" y="248.524136" style="fill: #0000ff; stroke: #0000ff; stroke-linejoin: miter"/>
     <use xlink:href="#m7fbe247e99" x="103.036364" y="120.146947" style="fill: #0000ff; stroke: #0000ff; stroke-linejoin: miter"/>
     <use xlink:href="#m7fbe247e99" x="106.110744" y="159.157021" style="fill: #0000ff; stroke: #0000ff; stroke-linejoin: miter"/>
     <use xlink:href="#m7fbe247e99" x="109.185124" y="153.763272" style="fill: #0000ff; stroke: #0000ff; stroke-linejoin: miter"/>
     <use xlink:href="#m7fbe247e99" x="112.259504" y="191.341392" style="fill: #0000ff; stroke: #0000ff; stroke-linejoin: miter"/>
     <use xlink:href="#m7fbe247e99" x="115.333884" y="160.540199" style="fill: #0000ff; stroke: #0000ff; stroke-linejoin: miter"/>
     <use xlink:href="#m7fbe247e99" x="118.408264" y="232.496997" style="fill: #0000ff; stroke: #0000ff; stroke-linejoin: miter"/>
     <use xlink:href="#m7fbe247e99" x="121.482645" y="163.620237" style="fill: #0000ff; stroke: #0000ff; stroke-linejoin: miter"/>
     <use xlink:href="#m7fbe247e99" x="124.557025" y="236.050763" style="fill: #0000ff; stroke: #0000ff; stroke-linejoin: miter"/>
     <use xlink:href="#m7fbe247e99" x="127.631405" y="184.19157" style="fill: #0000ff; stroke: #0000ff; stroke-linejoin: miter"/>
     <use xlink:href="#m7fbe247e99" x="130.705785" y="136.959353" style="fill: #0000ff; stroke: #0000ff; stroke-linejoin: miter"/>
     <use xlink:href="#m7fbe247e99" x="133.780165" y="272.543961" style="fill: #0000ff; stroke: #0000ff; stroke-linejoin: miter"/>
     <use xlink:href="#m7fbe247e99" x="136.854545" y="183.953633" style="fill: #0000ff; stroke: #0000ff; stroke-linejoin: miter"/>
     <use xlink:href="#m7fbe247e99" x="139.928926" y="255.985667" style="fill: #0000ff; stroke: #0000ff; stroke-linejoin: miter"/>
     <use xlink:href="#m7fbe247e99" x="143.003306" y="283.585198" style="fill: #0000ff; stroke: #0000ff; stroke-linejoin: miter"/>
     <use xlink:href="#m7fbe247e99" x="146.077686" y="122.587673" style="fill: #0000ff; stroke: #0000ff; stroke-linejoin: miter"/>
     <use xlink:href="#m7fbe247e99" x="149.152066" y="221.999902" style="fill: #0000ff; stroke: #0000ff; stroke-linejoin: miter"/>
     <use xlink:href="#m7fbe247e99" x="152.226446" y="157.605564" style="fill: #0000ff; stroke: #0000ff; stroke-linejoin: miter"/>
     <use xlink:href="#m7fbe247e99" x="155.300826" y="274.649585" style="fill: #0000ff; stroke: #0000ff; stroke-linejoin: miter"/>
     <use xlink:href="#m7fbe247e99" x="158.375207" y="165.281555" style="fill: #0000ff; stroke: #0000ff; stroke-linejoin: miter"/>
     <use xlink:href="#m7fbe247e99" x="161.449587" y="241.177863" style="fill: #0000ff; stroke: #0000ff; stroke-linejoin: miter"/>
     <use xlink:href="#m7fbe247e99" x="164.523967" y="154.563557" style="fill: #0000ff; stroke: #0000ff; stroke-linejoin: miter"/>
     <use xlink:href="#m7fbe247e99" x="167.598347" y="112.550493" style="fill: #0000ff; stroke: #0000ff; stroke-linejoin: miter"/>
     <use xlink:href="#m7fbe247e99" x="170.672727" y="196.091319" style="fill: #0000ff; stroke: #0000ff; stroke-linejoin: miter"/>
     <use xlink:href="#m7fbe247e99" x="173.747107" y="200.715213" style="fill: #0000ff; stroke: #0000ff; stroke-linejoin: miter"/>
     <use xlink:href="#m7fbe247e99" x="176.821488" y="232.878218" style="fill: #0000ff; stroke: #0000ff; stroke-linejoin: miter"/>
     <use xlink:href="#m7fbe247e99" x="179.895868" y="177.963573" style="fill: #0000ff; stroke: #0000ff; stroke-linejoin: miter"/>
     <use xlink:href="#m7fbe247e99" x="182.970248" y="186.927843" style="fill: #0000ff; stroke: #0000ff; stroke-linejoin: miter"/>
     <use xlink:href="#m7fbe247e99" x="186.044628" y="179.730536" style="fill: #0000ff; stroke: #0000ff; stroke-linejoin: miter"/>
     <use xlink:href="#m7fbe247e99" x="189.119008" y="229.652404" style="fill: #0000ff; stroke: #0000ff; stroke-linejoin: miter"/>
     <use xlink:href="#m7fbe247e99" x="192.193388" y="203.903079" style="fill: #0000ff; stroke: #0000ff; stroke-linejoin: miter"/>
     <use xlink:href="#m7fbe247e99" x="195.267769" y="160.716666" style="fill: #0000ff; stroke: #0000ff; stroke-linejoin: miter"/>
     <use xlink:href="#m7fbe247e99" x="198.342149" y="222.316208" style="fill: #0000ff; stroke: #0000ff; stroke-linejoin: miter"/>
     <use xlink:href="#m7fbe247e99" x="201.416529" y="241.901962" style="fill: #0000ff; stroke: #0000ff; stroke-linejoin: miter"/>
     <use xlink:href="#m7fbe247e99" x="204.490909" y="203.418898" style="fill: #0000ff; stroke: #0000ff; stroke-linejoin: miter"/>
     <use xlink:href="#m7fbe247e99" x="207.565289" y="174.680056" style="fill: #0000ff; stroke: #0000ff; stroke-linejoin: miter"/>
     <use xlink:href="#m7fbe247e99" x="210.639669" y="235.317067" style="fill: #0000ff; stroke: #0000ff; stroke-linejoin: miter"/>
     <use xlink:href="#m7fbe247e99" x="213.71405" y="160.806965" style="fill: #0000ff; stroke: #0000ff; stroke-linejoin: miter"/>
     <use xlink:href="#m7fbe247e99" x="216.78843" y="252.32252" style="fill: #0000ff; stroke: #0000ff; stroke-linejoin: miter"/>
     <use xlink:href="#m7fbe247e99" x="219.86281" y="247.109824" style="fill: #0000ff; stroke: #0000ff; stroke-linejoin: miter"/>
     <use xlink:href="#m7fbe247e99" x="222.93719" y="196.609118" style="fill: #0000ff; stroke: #0000ff; stroke-linejoin: miter"/>
     <use xlink:href="#m7fbe247e99" x="226.01157" y="206.019677" style="fill: #0000ff; stroke: #0000ff; stroke-linejoin: miter"/>
     <use xlink:href="#m7fbe247e99" x="229.08595" y="165.726058" style="fill: #0000ff; stroke: #0000ff; stroke-linejoin: miter"/>
     <use xlink:href="#m7fbe247e99" x="232.160331" y="217.008995" style="fill: #0000ff; stroke: #0000ff; stroke-linejoin: miter"/>
     <use xlink:href="#m7fbe247e99" x="235.234711" y="146.650541" style="fill: #0000ff; stroke: #0000ff; stroke-linejoin: miter"/>
     <use xlink:href="#m7fbe247e99" x="238.309091" y="191.943554" style="fill: #0000ff; stroke: #0000ff; stroke-linejoin: miter"/>
     <use xlink:href="#m7fbe247e99" x="241.383471" y="307.8" style="fill: #0000ff; stroke: #0000ff; stroke-linejoin: miter"/>
     <use xlink:href="#m7fbe247e99" x="244.457851" y="141.580765" style="fill: #0000ff; stroke: #0000ff; stroke-linejoin: miter"/>
     <use xlink:href="#m7fbe247e99" x="247.532231" y="183.885804" style="fill: #0000ff; stroke: #0000ff; stroke-linejoin: miter"/>
     <use xlink:href="#m7fbe247e99" x="250.606612" y="152.129899" style="fill: #0000ff; stroke: #0000ff; stroke-linejoin: miter"/>
     <use xlink:href="#m7fbe247e99" x="253.680992" y="186.318353" style="fill: #0000ff; stroke: #0000ff; stroke-linejoin: miter"/>
     <use xlink:href="#m7fbe247e99" x="256.755372" y="158.986716" style="fill: #0000ff; stroke: #0000ff; stroke-linejoin: miter"/>
     <use xlink:href="#m7fbe247e99" x="259.829752" y="139.728629" style="fill: #0000ff; stroke: #0000ff; stroke-linejoin: miter"/>
     <use xlink:href="#m7fbe247e99" x="262.904132" y="192.462404" style="fill: #0000ff; stroke: #0000ff; stroke-linejoin: miter"/>
     <use xlink:href="#m7fbe247e99" x="265.978512" y="237.303099" style="fill: #0000ff; stroke: #0000ff; stroke-linejoin: miter"/>
     <use xlink:href="#m7fbe247e99" x="269.052893" y="202.565419" style="fill: #0000ff; stroke: #0000ff; stroke-linejoin: miter"/>
     <use xlink:href="#m7fbe247e99" x="272.127273" y="158.258058" style="fill: #0000ff; stroke: #0000ff; stroke-linejoin: miter"/>
     <use xlink:href="#m7fbe247e99" x="275.201653" y="146.694032" style="fill: #0000ff; stroke: #0000ff; stroke-linejoin: miter"/>
     <use xlink:href="#m7fbe247e99" x="278.276033" y="182.775385" style="fill: #0000ff; stroke: #0000ff; stroke-linejoin: miter"/>
     <use xlink:href="#m7fbe247e99" x="281.350413" y="141.772072" style="fill: #0000ff; stroke: #0000ff; stroke-linejoin: miter"/>
     <use xlink:href="#m7fbe247e99" x="284.424793" y="110.961988" style="fill: #0000ff; stroke: #0000ff; stroke-linejoin: miter"/>
     <use xlink:href="#m7fbe247e99" x="287.499174" y="220.740731" style="fill: #0000ff; stroke: #0000ff; stroke-linejoin: miter"/>
     <use xlink:href="#m7fbe247e99" x="290.573554" y="144.311305" style="fill: #0000ff; stroke: #0000ff; stroke-linejoin: miter"/>
     <use xlink:href="#m7fbe247e99" x="293.647934" y="159.734544" style="fill: #0000ff; stroke: #0000ff; stroke-linejoin: miter"/>
     <use xlink:href="#m7fbe247e99" x="296.722314" y="191.627641" style="fill: #0000ff; stroke: #0000ff; stroke-linejoin: miter"/>
     <use xlink:href="#m7fbe247e99" x="299.796694" y="55.8" style="fill: #0000ff; stroke: #0000ff; stroke-linejoin: miter"/>
     <use xlink:href="#m7fbe247e99" x="302.871074" y="162.999443" style="fill: #0000ff; stroke: #0000ff; stroke-linejoin: miter"/>
     <use xlink:href="#m7fbe247e99" x="305.945455" y="239.744807" style="fill: #0000ff; stroke: #0000ff; stroke-linejoin: miter"/>
     <use xlink:href="#m7fbe247e99" x="309.019835" y="258.117087" style="fill: #0000ff; stroke: #0000ff; stroke-linejoin: miter"/>
     <use xlink:href="#m7fbe247e99" x="312.094215" y="243.939703" style="fill: #0000ff; stroke: #0000ff; stroke-linejoin: miter"/>
     <use xlink:href="#m7fbe247e99" x="315.168595" y="213.095143" style="fill: #0000ff; stroke: #0000ff; stroke-linejoin: miter"/>
     <use xlink:href="#m7fbe247e99" x="318.242975" y="217.466817" style="fill: #0000ff; stroke: #0000ff; stroke-linejoin: miter"/>
     <use xlink:href="#m7fbe247e99" x="321.317355" y="182.604889" style="fill: #0000ff; stroke: #0000ff; stroke-linejoin: miter"/>
     <use xlink:href="#m7fbe247e99" x="324.391736" y="242.831634" style="fill: #0000ff; stroke: #0000ff; stroke-linejoin: miter"/>
     <use xlink:href="#m7fbe247e99" x="327.466116" y="189.159976" style="fill: #0000ff; stroke: #0000ff; stroke-linejoin: miter"/>
     <use xlink:href="#m7fbe247e99" x="330.540496" y="246.092419" style="fill: #0000ff; stroke: #0000ff; stroke-linejoin: miter"/>
     <use xlink:href="#m7fbe247e99" x="333.614876" y="132.733714" style="fill: #0000ff; stroke: #0000ff; stroke-linejoin: miter"/>
     <use xlink:href="#m7fbe247e99" x="336.689256" y="118.28389" style="fill: #0000ff; stroke: #0000ff; stroke-linejoin: miter"/>
     <use xlink:href="#m7fbe247e99" x="339.763636" y="183.002619" style="fill: #0000ff; stroke: #0000ff; stroke-linejoin: miter"/>
     <use xlink:href="#m7fbe247e99" x="342.838017" y="169.632237" style="fill: #0000ff; stroke: #0000ff; stroke-linejoin: miter"/>
     <use xlink:href="#m7fbe247e99" x="345.912397" y="103.497995" style="fill: #0000ff; stroke: #0000ff; stroke-linejoin: miter"/>
     <use xlink:href="#m7fbe247e99" x="348.986777" y="138.055607" style="fill: #0000ff; stroke: #0000ff; stroke-linejoin: miter"/>
     <use xlink:href="#m7fbe247e99" x="352.061157" y="213.655035" style="fill: #0000ff; stroke: #0000ff; stroke-linejoin: miter"/>
     <use xlink:href="#m7fbe247e99" x="355.135537" y="141.973925" style="fill: #0000ff; stroke: #0000ff; stroke-linejoin: miter"/>
     <use xlink:href="#m7fbe247e99" x="358.209917" y="252.504937" style="fill: #0000ff; stroke: #0000ff; stroke-linejoin: miter"/>
     <use xlink:href="#m7fbe247e99" x="361.284298" y="209.302781" style="fill: #0000ff; stroke: #0000ff; stroke-linejoin: miter"/>
     <use xlink:href="#m7fbe247e99" x="364.358678" y="261.209641" style="fill: #0000ff; stroke: #0000ff; stroke-linejoin: miter"/>
     <use xlink:href="#m7fbe247e99" x="367.433058" y="110.726132" style="fill: #0000ff; stroke: #0000ff; stroke-linejoin: miter"/>
     <use xlink:href="#m7fbe247e99" x="370.507438" y="176.194735" style="fill: #0000ff; stroke: #0000ff; stroke-linejoin: miter"/>
     <use xlink:href="#m7fbe247e99" x="373.581818" y="70.948152" style="fill: #0000ff; stroke: #0000ff; stroke-linejoin: miter"/>
    </g>
   </g>
   <g id="patch_3">
    <path d="M 54 320.4 
L 54 43.2 
" style="fill: none; stroke: #000000; stroke-width: 0.8; stroke-linejoin: miter; stroke-linecap: square"/>
   </g>
   <g id="patch_4">
    <path d="M 388.8 320.4 
L 388.8 43.2 
" style="fill: none; stroke: #000000; stroke-width: 0.8; stroke-linejoin: miter; stroke-linecap: square"/>
   </g>
   <g id="patch_5">
    <path d="M 54 320.4 
L 388.8 320.4 
" style="fill: none; stroke: #000000; stroke-width: 0.8; stroke-linejoin: miter; stroke-linecap: square"/>
   </g>
   <g id="patch_6">
    <path d="M 54 43.2 
L 388.8 43.2 
" style="fill: none; stroke: #000000; stroke-width: 0.8; stroke-linejoin: miter; stroke-linecap: square"/>
   </g>
   <g id="legend_1">
    <g id="patch_7">
     <path d="M 109.2 65.9 
L 381.8 65.9 
Q 383.8 65.9 383.8 63.9 
L 383.8 50.2 
Q 383.8 48.2 381.8 48.2 
L 109.2 48.2 
Q 107.2 48.2 107.2 50.2 
L 107.2 63.9 
Q 107.2 65.9 109.2 65.9 
z
" style="fill: #ffffff; opacity: 0.8; stroke: #cccccc; stroke-linejoin: miter"/>
    </g>
    <g id="line2d_24">
     <path d="M 111.2 56.3 
L 121.2 56.3 
L 131.2 56.3 
" style="fill: none; stroke-dasharray: 6.4,1.6,1,1.6; stroke-dashoffset: 0; stroke: #0000ff"/>
     <g>
      <use xlink:href="#m7fbe247e99" x="121.2" y="56.3" style="fill: #0000ff; stroke: #0000ff; stroke-linejoin: miter"/>
     </g>
    </g>
    <g id="text_14">
     <!-- Espessuras dos CP's, $\mu=5 [mm]$ e $\sigma=0.01 [mm]$ -->
     <g transform="translate(139.2 59.8) scale(0.1 -0.1)">
      <defs>
       <path id="DejaVuSans-64" d="M 2906 2969 
L 2906 4863 
L 3481 4863 
L 3481 0 
L 2906 0 
L 2906 525 
Q 2725 213 2448 61 
Q 2172 -91 1784 -91 
Q 1150 -91 751 415 
Q 353 922 353 1747 
Q 353 2572 751 3078 
Q 1150 3584 1784 3584 
Q 2172 3584 2448 3432 
Q 2725 3281 2906 2969 
z
M 947 1747 
Q 947 1113 1208 752 
Q 1469 391 1925 391 
Q 2381 391 2643 752 
Q 2906 1113 2906 1747 
Q 2906 2381 2643 2742 
Q 2381 3103 1925 3103 
Q 1469 3103 1208 2742 
Q 947 2381 947 1747 
z
" transform="scale(0.015625)"/>
       <path id="DejaVuSans-43" d="M 4122 4306 
L 4122 3641 
Q 3803 3938 3442 4084 
Q 3081 4231 2675 4231 
Q 1875 4231 1450 3742 
Q 1025 3253 1025 2328 
Q 1025 1406 1450 917 
Q 1875 428 2675 428 
Q 3081 428 3442 575 
Q 3803 722 4122 1019 
L 4122 359 
Q 3791 134 3420 21 
Q 3050 -91 2638 -91 
Q 1578 -91 968 557 
Q 359 1206 359 2328 
Q 359 3453 968 4101 
Q 1578 4750 2638 4750 
Q 3056 4750 3426 4639 
Q 3797 4528 4122 4306 
z
" transform="scale(0.015625)"/>
       <path id="DejaVuSans-50" d="M 1259 4147 
L 1259 2394 
L 2053 2394 
Q 2494 2394 2734 2622 
Q 2975 2850 2975 3272 
Q 2975 3691 2734 3919 
Q 2494 4147 2053 4147 
L 1259 4147 
z
M 628 4666 
L 2053 4666 
Q 2838 4666 3239 4311 
Q 3641 3956 3641 3272 
Q 3641 2581 3239 2228 
Q 2838 1875 2053 1875 
L 1259 1875 
L 1259 0 
L 628 0 
L 628 4666 
z
" transform="scale(0.015625)"/>
       <path id="DejaVuSans-27" d="M 1147 4666 
L 1147 2931 
L 616 2931 
L 616 4666 
L 1147 4666 
z
" transform="scale(0.015625)"/>
       <path id="DejaVuSans-2c" d="M 750 794 
L 1409 794 
L 1409 256 
L 897 -744 
L 494 -744 
L 750 256 
L 750 794 
z
" transform="scale(0.015625)"/>
       <path id="DejaVuSans-Oblique-3bc" d="M -84 -1331 
L 856 3500 
L 1434 3500 
L 1009 1322 
Q 997 1256 987 1175 
Q 978 1094 978 1013 
Q 978 722 1161 565 
Q 1344 409 1684 409 
Q 2147 409 2431 671 
Q 2716 934 2816 1459 
L 3213 3500 
L 3788 3500 
L 3266 809 
Q 3253 750 3248 706 
Q 3244 663 3244 628 
Q 3244 531 3283 486 
Q 3322 441 3406 441 
Q 3438 441 3492 456 
Q 3547 472 3647 513 
L 3559 50 
Q 3422 -19 3297 -55 
Q 3172 -91 3053 -91 
Q 2847 -91 2730 40 
Q 2613 172 2613 403 
Q 2438 153 2195 31 
Q 1953 -91 1625 -91 
Q 1334 -91 1117 43 
Q 900 178 831 397 
L 494 -1331 
L -84 -1331 
z
" transform="scale(0.015625)"/>
       <path id="DejaVuSans-3d" d="M 678 2906 
L 4684 2906 
L 4684 2381 
L 678 2381 
L 678 2906 
z
M 678 1631 
L 4684 1631 
L 4684 1100 
L 678 1100 
L 678 1631 
z
" transform="scale(0.015625)"/>
       <path id="DejaVuSans-Oblique-6d" d="M 5747 2113 
L 5338 0 
L 4763 0 
L 5166 2094 
Q 5191 2228 5203 2325 
Q 5216 2422 5216 2491 
Q 5216 2772 5059 2928 
Q 4903 3084 4622 3084 
Q 4203 3084 3875 2770 
Q 3547 2456 3450 1953 
L 3066 0 
L 2491 0 
L 2900 2094 
Q 2925 2209 2937 2307 
Q 2950 2406 2950 2484 
Q 2950 2769 2794 2926 
Q 2638 3084 2363 3084 
Q 1938 3084 1609 2770 
Q 1281 2456 1184 1953 
L 800 0 
L 225 0 
L 909 3500 
L 1484 3500 
L 1375 2956 
Q 1609 3263 1923 3423 
Q 2238 3584 2597 3584 
Q 2978 3584 3223 3384 
Q 3469 3184 3519 2828 
Q 3781 3197 4126 3390 
Q 4472 3584 4856 3584 
Q 5306 3584 5551 3325 
Q 5797 3066 5797 2591 
Q 5797 2488 5784 2364 
Q 5772 2241 5747 2113 
z
" transform="scale(0.015625)"/>
       <path id="DejaVuSans-Oblique-3c3" d="M 2219 3044 
Q 1744 3044 1422 2700 
Q 1081 2341 969 1747 
Q 844 1119 1044 756 
Q 1241 397 1706 397 
Q 2166 397 2503 759 
Q 2844 1122 2966 1747 
Q 3075 2319 2881 2700 
Q 2700 3044 2219 3044 
z
M 2309 3503 
L 4219 3500 
L 4106 2925 
L 3463 2925 
Q 3706 2438 3575 1747 
Q 3406 888 2884 400 
Q 2359 -91 1609 -91 
Q 856 -91 525 400 
Q 194 888 363 1747 
Q 528 2609 1050 3097 
Q 1484 3503 2309 3503 
z
" transform="scale(0.015625)"/>
      </defs>
      <use xlink:href="#DejaVuSans-45" transform="translate(0 0.015625)"/>
      <use xlink:href="#DejaVuSans-73" transform="translate(63.183594 0.015625)"/>
      <use xlink:href="#DejaVuSans-70" transform="translate(115.283203 0.015625)"/>
      <use xlink:href="#DejaVuSans-65" transform="translate(178.759766 0.015625)"/>
      <use xlink:href="#DejaVuSans-73" transform="translate(240.283203 0.015625)"/>
      <use xlink:href="#DejaVuSans-73" transform="translate(292.382812 0.015625)"/>
      <use xlink:href="#DejaVuSans-75" transform="translate(344.482422 0.015625)"/>
      <use xlink:href="#DejaVuSans-72" transform="translate(407.861328 0.015625)"/>
      <use xlink:href="#DejaVuSans-61" transform="translate(448.974609 0.015625)"/>
      <use xlink:href="#DejaVuSans-73" transform="translate(510.253906 0.015625)"/>
      <use xlink:href="#DejaVuSans-20" transform="translate(562.353516 0.015625)"/>
      <use xlink:href="#DejaVuSans-64" transform="translate(594.140625 0.015625)"/>
      <use xlink:href="#DejaVuSans-6f" transform="translate(657.617188 0.015625)"/>
      <use xlink:href="#DejaVuSans-73" transform="translate(718.798828 0.015625)"/>
      <use xlink:href="#DejaVuSans-20" transform="translate(770.898438 0.015625)"/>
      <use xlink:href="#DejaVuSans-43" transform="translate(802.685547 0.015625)"/>
      <use xlink:href="#DejaVuSans-50" transform="translate(872.509766 0.015625)"/>
      <use xlink:href="#DejaVuSans-27" transform="translate(932.8125 0.015625)"/>
      <use xlink:href="#DejaVuSans-73" transform="translate(960.302734 0.015625)"/>
      <use xlink:href="#DejaVuSans-2c" transform="translate(1012.402344 0.015625)"/>
      <use xlink:href="#DejaVuSans-20" transform="translate(1044.189453 0.015625)"/>
      <use xlink:href="#DejaVuSans-Oblique-3bc" transform="translate(1075.976562 0.015625)"/>
      <use xlink:href="#DejaVuSans-3d" transform="translate(1159.082031 0.015625)"/>
      <use xlink:href="#DejaVuSans-35" transform="translate(1262.353516 0.015625)"/>
      <use xlink:href="#DejaVuSans-5b" transform="translate(1325.976562 0.015625)"/>
      <use xlink:href="#DejaVuSans-Oblique-6d" transform="translate(1364.990234 0.015625)"/>
      <use xlink:href="#DejaVuSans-Oblique-6d" transform="translate(1462.402344 0.015625)"/>
      <use xlink:href="#DejaVuSans-5d" transform="translate(1559.814453 0.015625)"/>
      <use xlink:href="#DejaVuSans-20" transform="translate(1598.828125 0.015625)"/>
      <use xlink:href="#DejaVuSans-65" transform="translate(1630.615234 0.015625)"/>
      <use xlink:href="#DejaVuSans-20" transform="translate(1692.138672 0.015625)"/>
      <use xlink:href="#DejaVuSans-Oblique-3c3" transform="translate(1723.925781 0.015625)"/>
      <use xlink:href="#DejaVuSans-3d" transform="translate(1806.787109 0.015625)"/>
      <use xlink:href="#DejaVuSans-30" transform="translate(1910.058594 0.015625)"/>
      <use xlink:href="#DejaVuSans-2e" transform="translate(1973.681641 0.015625)"/>
      <use xlink:href="#DejaVuSans-30" transform="translate(2005.46875 0.015625)"/>
      <use xlink:href="#DejaVuSans-31" transform="translate(2069.091797 0.015625)"/>
      <use xlink:href="#DejaVuSans-5b" transform="translate(2132.714844 0.015625)"/>
      <use xlink:href="#DejaVuSans-Oblique-6d" transform="translate(2171.728516 0.015625)"/>
      <use xlink:href="#DejaVuSans-Oblique-6d" transform="translate(2269.140625 0.015625)"/>
      <use xlink:href="#DejaVuSans-5d" transform="translate(2366.552734 0.015625)"/>
     </g>
    </g>
   </g>
  </g>
 </g>
 <defs>
  <clipPath id="p6af1d9eca5">
   <rect x="54" y="43.2" width="334.8" height="277.2"/>
  </clipPath>
 </defs>
</svg>
