<?xml version="1.0" encoding="utf-8" standalone="no"?>
<!DOCTYPE svg PUBLIC "-//W3C//DTD SVG 1.1//EN"
  "http://www.w3.org/Graphics/SVG/1.1/DTD/svg11.dtd">
<svg xmlns:xlink="http://www.w3.org/1999/xlink" width="720pt" height="216pt" viewBox="0 0 720 216" xmlns="http://www.w3.org/2000/svg" version="1.1">
 <metadata>
  <rdf:RDF xmlns:dc="http://purl.org/dc/elements/1.1/" xmlns:cc="http://creativecommons.org/ns#" xmlns:rdf="http://www.w3.org/1999/02/22-rdf-syntax-ns#">
   <cc:Work>
    <dc:type rdf:resource="http://purl.org/dc/dcmitype/StillImage"/>
    <dc:date>2024-07-05T13:30:56.049787</dc:date>
    <dc:format>image/svg+xml</dc:format>
    <dc:creator>
     <cc:Agent>
      <dc:title>Matplotlib v3.8.2, https://matplotlib.org/</dc:title>
     </cc:Agent>
    </dc:creator>
   </cc:Work>
  </rdf:RDF>
 </metadata>
 <defs>
  <style type="text/css">*{stroke-linejoin: round; stroke-linecap: butt}</style>
 </defs>
 <g id="figure_1">
  <g id="patch_1">
   <path d="M 0 216 
L 720 216 
L 720 0 
L 0 0 
z
" style="fill: #ffffff"/>
  </g>
  <g id="axes_1">
   <g id="patch_2">
    <path d="M 90 192.24 
L 343.636364 192.24 
L 343.636364 25.92 
L 90 25.92 
z
" style="fill: #ffffff"/>
   </g>
   <g id="matplotlib.axis_1">
    <g id="xtick_1">
     <g id="line2d_1">
      <path d="M 101.528926 192.24 
L 101.528926 25.92 
" clip-path="url(#p86a6bba81f)" style="fill: none; stroke: #b0b0b0; stroke-width: 0.8; stroke-linecap: square"/>
     </g>
     <g id="line2d_2">
      <defs>
       <path id="mf65586adbb" d="M 0 0 
L 0 3.5 
" style="stroke: #000000; stroke-width: 0.8"/>
      </defs>
      <g>
       <use xlink:href="#mf65586adbb" x="101.528926" y="192.24" style="stroke: #000000; stroke-width: 0.8"/>
      </g>
     </g>
     <g id="text_1">
      <!-- −10 -->
      <g transform="translate(90.976582 206.838437) scale(0.1 -0.1)">
       <defs>
        <path id="DejaVuSans-2212" d="M 678 2272 
L 4684 2272 
L 4684 1741 
L 678 1741 
L 678 2272 
z
" transform="scale(0.015625)"/>
        <path id="DejaVuSans-31" d="M 794 531 
L 1825 531 
L 1825 4091 
L 703 3866 
L 703 4441 
L 1819 4666 
L 2450 4666 
L 2450 531 
L 3481 531 
L 3481 0 
L 794 0 
L 794 531 
z
" transform="scale(0.015625)"/>
        <path id="DejaVuSans-30" d="M 2034 4250 
Q 1547 4250 1301 3770 
Q 1056 3291 1056 2328 
Q 1056 1369 1301 889 
Q 1547 409 2034 409 
Q 2525 409 2770 889 
Q 3016 1369 3016 2328 
Q 3016 3291 2770 3770 
Q 2525 4250 2034 4250 
z
M 2034 4750 
Q 2819 4750 3233 4129 
Q 3647 3509 3647 2328 
Q 3647 1150 3233 529 
Q 2819 -91 2034 -91 
Q 1250 -91 836 529 
Q 422 1150 422 2328 
Q 422 3509 836 4129 
Q 1250 4750 2034 4750 
z
" transform="scale(0.015625)"/>
       </defs>
       <use xlink:href="#DejaVuSans-2212"/>
       <use xlink:href="#DejaVuSans-31" x="83.789062"/>
       <use xlink:href="#DejaVuSans-30" x="147.412109"/>
      </g>
     </g>
    </g>
    <g id="xtick_2">
     <g id="line2d_3">
      <path d="M 159.173554 192.24 
L 159.173554 25.92 
" clip-path="url(#p86a6bba81f)" style="fill: none; stroke: #b0b0b0; stroke-width: 0.8; stroke-linecap: square"/>
     </g>
     <g id="line2d_4">
      <g>
       <use xlink:href="#mf65586adbb" x="159.173554" y="192.24" style="stroke: #000000; stroke-width: 0.8"/>
      </g>
     </g>
     <g id="text_2">
      <!-- −5 -->
      <g transform="translate(151.80246 206.838437) scale(0.1 -0.1)">
       <defs>
        <path id="DejaVuSans-35" d="M 691 4666 
L 3169 4666 
L 3169 4134 
L 1269 4134 
L 1269 2991 
Q 1406 3038 1543 3061 
Q 1681 3084 1819 3084 
Q 2600 3084 3056 2656 
Q 3513 2228 3513 1497 
Q 3513 744 3044 326 
Q 2575 -91 1722 -91 
Q 1428 -91 1123 -41 
Q 819 9 494 109 
L 494 744 
Q 775 591 1075 516 
Q 1375 441 1709 441 
Q 2250 441 2565 725 
Q 2881 1009 2881 1497 
Q 2881 1984 2565 2268 
Q 2250 2553 1709 2553 
Q 1456 2553 1204 2497 
Q 953 2441 691 2322 
L 691 4666 
z
" transform="scale(0.015625)"/>
       </defs>
       <use xlink:href="#DejaVuSans-2212"/>
       <use xlink:href="#DejaVuSans-35" x="83.789062"/>
      </g>
     </g>
    </g>
    <g id="xtick_3">
     <g id="line2d_5">
      <path d="M 216.818182 192.24 
L 216.818182 25.92 
" clip-path="url(#p86a6bba81f)" style="fill: none; stroke: #b0b0b0; stroke-width: 0.8; stroke-linecap: square"/>
     </g>
     <g id="line2d_6">
      <g>
       <use xlink:href="#mf65586adbb" x="216.818182" y="192.24" style="stroke: #000000; stroke-width: 0.8"/>
      </g>
     </g>
     <g id="text_3">
      <!-- 0 -->
      <g transform="translate(213.636932 206.838437) scale(0.1 -0.1)">
       <use xlink:href="#DejaVuSans-30"/>
      </g>
     </g>
    </g>
    <g id="xtick_4">
     <g id="line2d_7">
      <path d="M 274.46281 192.24 
L 274.46281 25.92 
" clip-path="url(#p86a6bba81f)" style="fill: none; stroke: #b0b0b0; stroke-width: 0.8; stroke-linecap: square"/>
     </g>
     <g id="line2d_8">
      <g>
       <use xlink:href="#mf65586adbb" x="274.46281" y="192.24" style="stroke: #000000; stroke-width: 0.8"/>
      </g>
     </g>
     <g id="text_4">
      <!-- 5 -->
      <g transform="translate(271.28156 206.838437) scale(0.1 -0.1)">
       <use xlink:href="#DejaVuSans-35"/>
      </g>
     </g>
    </g>
    <g id="xtick_5">
     <g id="line2d_9">
      <path d="M 332.107438 192.24 
L 332.107438 25.92 
" clip-path="url(#p86a6bba81f)" style="fill: none; stroke: #b0b0b0; stroke-width: 0.8; stroke-linecap: square"/>
     </g>
     <g id="line2d_10">
      <g>
       <use xlink:href="#mf65586adbb" x="332.107438" y="192.24" style="stroke: #000000; stroke-width: 0.8"/>
      </g>
     </g>
     <g id="text_5">
      <!-- 10 -->
      <g transform="translate(325.744938 206.838437) scale(0.1 -0.1)">
       <use xlink:href="#DejaVuSans-31"/>
       <use xlink:href="#DejaVuSans-30" x="63.623047"/>
      </g>
     </g>
    </g>
    <g id="text_6">
     <!-- x -->
     <g transform="translate(213.858807 220.516562) scale(0.1 -0.1)">
      <defs>
       <path id="DejaVuSans-78" d="M 3513 3500 
L 2247 1797 
L 3578 0 
L 2900 0 
L 1881 1375 
L 863 0 
L 184 0 
L 1544 1831 
L 300 3500 
L 978 3500 
L 1906 2253 
L 2834 3500 
L 3513 3500 
z
" transform="scale(0.015625)"/>
      </defs>
      <use xlink:href="#DejaVuSans-78"/>
     </g>
    </g>
   </g>
   <g id="matplotlib.axis_2">
    <g id="ytick_1">
     <g id="line2d_11">
      <path d="M 90 184.743 
L 343.636364 184.743 
" clip-path="url(#p86a6bba81f)" style="fill: none; stroke: #b0b0b0; stroke-width: 0.8; stroke-linecap: square"/>
     </g>
     <g id="line2d_12">
      <defs>
       <path id="ma199923e59" d="M 0 0 
L -3.5 0 
" style="stroke: #000000; stroke-width: 0.8"/>
      </defs>
      <g>
       <use xlink:href="#ma199923e59" x="90" y="184.743" style="stroke: #000000; stroke-width: 0.8"/>
      </g>
     </g>
     <g id="text_7">
      <!-- 0 -->
      <g transform="translate(76.6375 188.542219) scale(0.1 -0.1)">
       <use xlink:href="#DejaVuSans-30"/>
      </g>
     </g>
    </g>
    <g id="ytick_2">
     <g id="line2d_13">
      <path d="M 90 154.4904 
L 343.636364 154.4904 
" clip-path="url(#p86a6bba81f)" style="fill: none; stroke: #b0b0b0; stroke-width: 0.8; stroke-linecap: square"/>
     </g>
     <g id="line2d_14">
      <g>
       <use xlink:href="#ma199923e59" x="90" y="154.4904" style="stroke: #000000; stroke-width: 0.8"/>
      </g>
     </g>
     <g id="text_8">
      <!-- 20 -->
      <g transform="translate(70.275 158.289619) scale(0.1 -0.1)">
       <defs>
        <path id="DejaVuSans-32" d="M 1228 531 
L 3431 531 
L 3431 0 
L 469 0 
L 469 531 
Q 828 903 1448 1529 
Q 2069 2156 2228 2338 
Q 2531 2678 2651 2914 
Q 2772 3150 2772 3378 
Q 2772 3750 2511 3984 
Q 2250 4219 1831 4219 
Q 1534 4219 1204 4116 
Q 875 4013 500 3803 
L 500 4441 
Q 881 4594 1212 4672 
Q 1544 4750 1819 4750 
Q 2544 4750 2975 4387 
Q 3406 4025 3406 3419 
Q 3406 3131 3298 2873 
Q 3191 2616 2906 2266 
Q 2828 2175 2409 1742 
Q 1991 1309 1228 531 
z
" transform="scale(0.015625)"/>
       </defs>
       <use xlink:href="#DejaVuSans-32"/>
       <use xlink:href="#DejaVuSans-30" x="63.623047"/>
      </g>
     </g>
    </g>
    <g id="ytick_3">
     <g id="line2d_15">
      <path d="M 90 124.2378 
L 343.636364 124.2378 
" clip-path="url(#p86a6bba81f)" style="fill: none; stroke: #b0b0b0; stroke-width: 0.8; stroke-linecap: square"/>
     </g>
     <g id="line2d_16">
      <g>
       <use xlink:href="#ma199923e59" x="90" y="124.2378" style="stroke: #000000; stroke-width: 0.8"/>
      </g>
     </g>
     <g id="text_9">
      <!-- 40 -->
      <g transform="translate(70.275 128.037019) scale(0.1 -0.1)">
       <defs>
        <path id="DejaVuSans-34" d="M 2419 4116 
L 825 1625 
L 2419 1625 
L 2419 4116 
z
M 2253 4666 
L 3047 4666 
L 3047 1625 
L 3713 1625 
L 3713 1100 
L 3047 1100 
L 3047 0 
L 2419 0 
L 2419 1100 
L 313 1100 
L 313 1709 
L 2253 4666 
z
" transform="scale(0.015625)"/>
       </defs>
       <use xlink:href="#DejaVuSans-34"/>
       <use xlink:href="#DejaVuSans-30" x="63.623047"/>
      </g>
     </g>
    </g>
    <g id="ytick_4">
     <g id="line2d_17">
      <path d="M 90 93.9852 
L 343.636364 93.9852 
" clip-path="url(#p86a6bba81f)" style="fill: none; stroke: #b0b0b0; stroke-width: 0.8; stroke-linecap: square"/>
     </g>
     <g id="line2d_18">
      <g>
       <use xlink:href="#ma199923e59" x="90" y="93.9852" style="stroke: #000000; stroke-width: 0.8"/>
      </g>
     </g>
     <g id="text_10">
      <!-- 60 -->
      <g transform="translate(70.275 97.784419) scale(0.1 -0.1)">
       <defs>
        <path id="DejaVuSans-36" d="M 2113 2584 
Q 1688 2584 1439 2293 
Q 1191 2003 1191 1497 
Q 1191 994 1439 701 
Q 1688 409 2113 409 
Q 2538 409 2786 701 
Q 3034 994 3034 1497 
Q 3034 2003 2786 2293 
Q 2538 2584 2113 2584 
z
M 3366 4563 
L 3366 3988 
Q 3128 4100 2886 4159 
Q 2644 4219 2406 4219 
Q 1781 4219 1451 3797 
Q 1122 3375 1075 2522 
Q 1259 2794 1537 2939 
Q 1816 3084 2150 3084 
Q 2853 3084 3261 2657 
Q 3669 2231 3669 1497 
Q 3669 778 3244 343 
Q 2819 -91 2113 -91 
Q 1303 -91 875 529 
Q 447 1150 447 2328 
Q 447 3434 972 4092 
Q 1497 4750 2381 4750 
Q 2619 4750 2861 4703 
Q 3103 4656 3366 4563 
z
" transform="scale(0.015625)"/>
       </defs>
       <use xlink:href="#DejaVuSans-36"/>
       <use xlink:href="#DejaVuSans-30" x="63.623047"/>
      </g>
     </g>
    </g>
    <g id="ytick_5">
     <g id="line2d_19">
      <path d="M 90 63.7326 
L 343.636364 63.7326 
" clip-path="url(#p86a6bba81f)" style="fill: none; stroke: #b0b0b0; stroke-width: 0.8; stroke-linecap: square"/>
     </g>
     <g id="line2d_20">
      <g>
       <use xlink:href="#ma199923e59" x="90" y="63.7326" style="stroke: #000000; stroke-width: 0.8"/>
      </g>
     </g>
     <g id="text_11">
      <!-- 80 -->
      <g transform="translate(70.275 67.531819) scale(0.1 -0.1)">
       <defs>
        <path id="DejaVuSans-38" d="M 2034 2216 
Q 1584 2216 1326 1975 
Q 1069 1734 1069 1313 
Q 1069 891 1326 650 
Q 1584 409 2034 409 
Q 2484 409 2743 651 
Q 3003 894 3003 1313 
Q 3003 1734 2745 1975 
Q 2488 2216 2034 2216 
z
M 1403 2484 
Q 997 2584 770 2862 
Q 544 3141 544 3541 
Q 544 4100 942 4425 
Q 1341 4750 2034 4750 
Q 2731 4750 3128 4425 
Q 3525 4100 3525 3541 
Q 3525 3141 3298 2862 
Q 3072 2584 2669 2484 
Q 3125 2378 3379 2068 
Q 3634 1759 3634 1313 
Q 3634 634 3220 271 
Q 2806 -91 2034 -91 
Q 1263 -91 848 271 
Q 434 634 434 1313 
Q 434 1759 690 2068 
Q 947 2378 1403 2484 
z
M 1172 3481 
Q 1172 3119 1398 2916 
Q 1625 2713 2034 2713 
Q 2441 2713 2670 2916 
Q 2900 3119 2900 3481 
Q 2900 3844 2670 4047 
Q 2441 4250 2034 4250 
Q 1625 4250 1398 4047 
Q 1172 3844 1172 3481 
z
" transform="scale(0.015625)"/>
       </defs>
       <use xlink:href="#DejaVuSans-38"/>
       <use xlink:href="#DejaVuSans-30" x="63.623047"/>
      </g>
     </g>
    </g>
    <g id="ytick_6">
     <g id="line2d_21">
      <path d="M 90 33.48 
L 343.636364 33.48 
" clip-path="url(#p86a6bba81f)" style="fill: none; stroke: #b0b0b0; stroke-width: 0.8; stroke-linecap: square"/>
     </g>
     <g id="line2d_22">
      <g>
       <use xlink:href="#ma199923e59" x="90" y="33.48" style="stroke: #000000; stroke-width: 0.8"/>
      </g>
     </g>
     <g id="text_12">
      <!-- 100 -->
      <g transform="translate(63.9125 37.279219) scale(0.1 -0.1)">
       <use xlink:href="#DejaVuSans-31"/>
       <use xlink:href="#DejaVuSans-30" x="63.623047"/>
       <use xlink:href="#DejaVuSans-30" x="127.246094"/>
      </g>
     </g>
    </g>
    <g id="text_13">
     <!-- y -->
     <g transform="translate(57.832812 112.039375) rotate(-90) scale(0.1 -0.1)">
      <defs>
       <path id="DejaVuSans-79" d="M 2059 -325 
Q 1816 -950 1584 -1140 
Q 1353 -1331 966 -1331 
L 506 -1331 
L 506 -850 
L 844 -850 
Q 1081 -850 1212 -737 
Q 1344 -625 1503 -206 
L 1606 56 
L 191 3500 
L 800 3500 
L 1894 763 
L 2988 3500 
L 3597 3500 
L 2059 -325 
z
" transform="scale(0.015625)"/>
      </defs>
      <use xlink:href="#DejaVuSans-79"/>
     </g>
    </g>
   </g>
   <g id="line2d_23">
    <path d="M 101.528926 33.48 
L 106.23461 45.576 
L 110.940293 57.168 
L 115.645977 68.256 
L 120.351661 78.84 
L 125.057345 88.92 
L 129.763029 98.496 
L 134.468713 107.568 
L 139.174397 116.136 
L 143.880081 124.2 
L 148.585765 131.76 
L 153.291449 138.816 
L 157.997133 145.368 
L 162.702817 151.416 
L 167.408501 156.96 
L 172.114185 162 
L 176.819868 166.536 
L 181.525552 170.568 
L 186.231236 174.096 
L 190.93692 177.12 
L 195.642604 179.64 
L 200.348288 181.656 
L 205.053972 183.168 
L 209.759656 184.176 
L 214.46534 184.68 
L 219.171024 184.68 
L 223.876708 184.176 
L 228.582392 183.168 
L 233.288076 181.656 
L 237.993759 179.64 
L 242.699443 177.12 
L 247.405127 174.096 
L 252.110811 170.568 
L 256.816495 166.536 
L 261.522179 162 
L 266.227863 156.96 
L 270.933547 151.416 
L 275.639231 145.368 
L 280.344915 138.816 
L 285.050599 131.76 
L 289.756283 124.2 
L 294.461967 116.136 
L 299.167651 107.568 
L 303.873334 98.496 
L 308.579018 88.92 
L 313.284702 78.84 
L 317.990386 68.256 
L 322.69607 57.168 
L 327.401754 45.576 
L 332.107438 33.48 
" clip-path="url(#p86a6bba81f)" style="fill: none; stroke-dasharray: 6.4,1.6,1,1.6; stroke-dashoffset: 0; stroke: #0000ff"/>
    <defs>
     <path id="m0faa232c7f" d="M -0.5 -0 
L 0.5 0.5 
L 0.5 -0.5 
z
" style="stroke: #0000ff; stroke-linejoin: miter"/>
    </defs>
    <g clip-path="url(#p86a6bba81f)">
     <use xlink:href="#m0faa232c7f" x="101.528926" y="33.48" style="fill: #0000ff; stroke: #0000ff; stroke-linejoin: miter"/>
     <use xlink:href="#m0faa232c7f" x="106.23461" y="45.576" style="fill: #0000ff; stroke: #0000ff; stroke-linejoin: miter"/>
     <use xlink:href="#m0faa232c7f" x="110.940293" y="57.168" style="fill: #0000ff; stroke: #0000ff; stroke-linejoin: miter"/>
     <use xlink:href="#m0faa232c7f" x="115.645977" y="68.256" style="fill: #0000ff; stroke: #0000ff; stroke-linejoin: miter"/>
     <use xlink:href="#m0faa232c7f" x="120.351661" y="78.84" style="fill: #0000ff; stroke: #0000ff; stroke-linejoin: miter"/>
     <use xlink:href="#m0faa232c7f" x="125.057345" y="88.92" style="fill: #0000ff; stroke: #0000ff; stroke-linejoin: miter"/>
     <use xlink:href="#m0faa232c7f" x="129.763029" y="98.496" style="fill: #0000ff; stroke: #0000ff; stroke-linejoin: miter"/>
     <use xlink:href="#m0faa232c7f" x="134.468713" y="107.568" style="fill: #0000ff; stroke: #0000ff; stroke-linejoin: miter"/>
     <use xlink:href="#m0faa232c7f" x="139.174397" y="116.136" style="fill: #0000ff; stroke: #0000ff; stroke-linejoin: miter"/>
     <use xlink:href="#m0faa232c7f" x="143.880081" y="124.2" style="fill: #0000ff; stroke: #0000ff; stroke-linejoin: miter"/>
     <use xlink:href="#m0faa232c7f" x="148.585765" y="131.76" style="fill: #0000ff; stroke: #0000ff; stroke-linejoin: miter"/>
     <use xlink:href="#m0faa232c7f" x="153.291449" y="138.816" style="fill: #0000ff; stroke: #0000ff; stroke-linejoin: miter"/>
     <use xlink:href="#m0faa232c7f" x="157.997133" y="145.368" style="fill: #0000ff; stroke: #0000ff; stroke-linejoin: miter"/>
     <use xlink:href="#m0faa232c7f" x="162.702817" y="151.416" style="fill: #0000ff; stroke: #0000ff; stroke-linejoin: miter"/>
     <use xlink:href="#m0faa232c7f" x="167.408501" y="156.96" style="fill: #0000ff; stroke: #0000ff; stroke-linejoin: miter"/>
     <use xlink:href="#m0faa232c7f" x="172.114185" y="162" style="fill: #0000ff; stroke: #0000ff; stroke-linejoin: miter"/>
     <use xlink:href="#m0faa232c7f" x="176.819868" y="166.536" style="fill: #0000ff; stroke: #0000ff; stroke-linejoin: miter"/>
     <use xlink:href="#m0faa232c7f" x="181.525552" y="170.568" style="fill: #0000ff; stroke: #0000ff; stroke-linejoin: miter"/>
     <use xlink:href="#m0faa232c7f" x="186.231236" y="174.096" style="fill: #0000ff; stroke: #0000ff; stroke-linejoin: miter"/>
     <use xlink:href="#m0faa232c7f" x="190.93692" y="177.12" style="fill: #0000ff; stroke: #0000ff; stroke-linejoin: miter"/>
     <use xlink:href="#m0faa232c7f" x="195.642604" y="179.64" style="fill: #0000ff; stroke: #0000ff; stroke-linejoin: miter"/>
     <use xlink:href="#m0faa232c7f" x="200.348288" y="181.656" style="fill: #0000ff; stroke: #0000ff; stroke-linejoin: miter"/>
     <use xlink:href="#m0faa232c7f" x="205.053972" y="183.168" style="fill: #0000ff; stroke: #0000ff; stroke-linejoin: miter"/>
     <use xlink:href="#m0faa232c7f" x="209.759656" y="184.176" style="fill: #0000ff; stroke: #0000ff; stroke-linejoin: miter"/>
     <use xlink:href="#m0faa232c7f" x="214.46534" y="184.68" style="fill: #0000ff; stroke: #0000ff; stroke-linejoin: miter"/>
     <use xlink:href="#m0faa232c7f" x="219.171024" y="184.68" style="fill: #0000ff; stroke: #0000ff; stroke-linejoin: miter"/>
     <use xlink:href="#m0faa232c7f" x="223.876708" y="184.176" style="fill: #0000ff; stroke: #0000ff; stroke-linejoin: miter"/>
     <use xlink:href="#m0faa232c7f" x="228.582392" y="183.168" style="fill: #0000ff; stroke: #0000ff; stroke-linejoin: miter"/>
     <use xlink:href="#m0faa232c7f" x="233.288076" y="181.656" style="fill: #0000ff; stroke: #0000ff; stroke-linejoin: miter"/>
     <use xlink:href="#m0faa232c7f" x="237.993759" y="179.64" style="fill: #0000ff; stroke: #0000ff; stroke-linejoin: miter"/>
     <use xlink:href="#m0faa232c7f" x="242.699443" y="177.12" style="fill: #0000ff; stroke: #0000ff; stroke-linejoin: miter"/>
     <use xlink:href="#m0faa232c7f" x="247.405127" y="174.096" style="fill: #0000ff; stroke: #0000ff; stroke-linejoin: miter"/>
     <use xlink:href="#m0faa232c7f" x="252.110811" y="170.568" style="fill: #0000ff; stroke: #0000ff; stroke-linejoin: miter"/>
     <use xlink:href="#m0faa232c7f" x="256.816495" y="166.536" style="fill: #0000ff; stroke: #0000ff; stroke-linejoin: miter"/>
     <use xlink:href="#m0faa232c7f" x="261.522179" y="162" style="fill: #0000ff; stroke: #0000ff; stroke-linejoin: miter"/>
     <use xlink:href="#m0faa232c7f" x="266.227863" y="156.96" style="fill: #0000ff; stroke: #0000ff; stroke-linejoin: miter"/>
     <use xlink:href="#m0faa232c7f" x="270.933547" y="151.416" style="fill: #0000ff; stroke: #0000ff; stroke-linejoin: miter"/>
     <use xlink:href="#m0faa232c7f" x="275.639231" y="145.368" style="fill: #0000ff; stroke: #0000ff; stroke-linejoin: miter"/>
     <use xlink:href="#m0faa232c7f" x="280.344915" y="138.816" style="fill: #0000ff; stroke: #0000ff; stroke-linejoin: miter"/>
     <use xlink:href="#m0faa232c7f" x="285.050599" y="131.76" style="fill: #0000ff; stroke: #0000ff; stroke-linejoin: miter"/>
     <use xlink:href="#m0faa232c7f" x="289.756283" y="124.2" style="fill: #0000ff; stroke: #0000ff; stroke-linejoin: miter"/>
     <use xlink:href="#m0faa232c7f" x="294.461967" y="116.136" style="fill: #0000ff; stroke: #0000ff; stroke-linejoin: miter"/>
     <use xlink:href="#m0faa232c7f" x="299.167651" y="107.568" style="fill: #0000ff; stroke: #0000ff; stroke-linejoin: miter"/>
     <use xlink:href="#m0faa232c7f" x="303.873334" y="98.496" style="fill: #0000ff; stroke: #0000ff; stroke-linejoin: miter"/>
     <use xlink:href="#m0faa232c7f" x="308.579018" y="88.92" style="fill: #0000ff; stroke: #0000ff; stroke-linejoin: miter"/>
     <use xlink:href="#m0faa232c7f" x="313.284702" y="78.84" style="fill: #0000ff; stroke: #0000ff; stroke-linejoin: miter"/>
     <use xlink:href="#m0faa232c7f" x="317.990386" y="68.256" style="fill: #0000ff; stroke: #0000ff; stroke-linejoin: miter"/>
     <use xlink:href="#m0faa232c7f" x="322.69607" y="57.168" style="fill: #0000ff; stroke: #0000ff; stroke-linejoin: miter"/>
     <use xlink:href="#m0faa232c7f" x="327.401754" y="45.576" style="fill: #0000ff; stroke: #0000ff; stroke-linejoin: miter"/>
     <use xlink:href="#m0faa232c7f" x="332.107438" y="33.48" style="fill: #0000ff; stroke: #0000ff; stroke-linejoin: miter"/>
    </g>
   </g>
   <g id="patch_3">
    <path d="M 90 192.24 
L 90 25.92 
" style="fill: none; stroke: #000000; stroke-width: 0.8; stroke-linejoin: miter; stroke-linecap: square"/>
   </g>
   <g id="patch_4">
    <path d="M 343.636364 192.24 
L 343.636364 25.92 
" style="fill: none; stroke: #000000; stroke-width: 0.8; stroke-linejoin: miter; stroke-linecap: square"/>
   </g>
   <g id="patch_5">
    <path d="M 90 192.24 
L 343.636364 192.24 
" style="fill: none; stroke: #000000; stroke-width: 0.8; stroke-linejoin: miter; stroke-linecap: square"/>
   </g>
   <g id="patch_6">
    <path d="M 90 25.92 
L 343.636364 25.92 
" style="fill: none; stroke: #000000; stroke-width: 0.8; stroke-linejoin: miter; stroke-linecap: square"/>
   </g>
   <g id="text_14">
    <!-- $Math\ mode\ : x^2$ -->
    <g transform="translate(172.788182 19.92) scale(0.14 -0.14)">
     <defs>
      <path id="STIXGeneral-Italic-1d614" d="M 5971 4237 
L 4915 0 
L 4371 0 
L 5235 3475 
L 2765 0 
L 2630 0 
L 1882 3462 
L 1024 0 
L 480 0 
L 1536 4237 
L 2323 4237 
L 2989 1152 
L 5184 4237 
L 5971 4237 
z
" transform="scale(0.015625)"/>
      <path id="STIXGeneral-Italic-1d622" d="M 1082 1933 
L 819 2131 
Q 1011 2566 1366 2764 
Q 1722 2963 2138 2963 
Q 2541 2963 2765 2793 
Q 2989 2624 2989 2317 
Q 2989 2227 2957 2086 
L 2554 486 
Q 2502 301 2502 0 
L 1958 0 
L 1990 282 
Q 1530 -64 954 -64 
Q 672 -64 512 61 
Q 352 186 352 422 
Q 352 1498 2400 1882 
L 2451 2093 
Q 2464 2157 2464 2189 
Q 2464 2336 2339 2422 
Q 2214 2509 2010 2509 
Q 1523 2509 1178 1933 
L 1082 1933 
z
M 2138 845 
L 2285 1421 
Q 890 1197 890 614 
Q 890 390 1197 390 
Q 1632 390 2138 845 
z
" transform="scale(0.015625)"/>
      <path id="STIXGeneral-Italic-1d635" d="M 2406 2899 
L 2298 2445 
L 1632 2445 
L 1242 877 
Q 1203 723 1203 627 
Q 1203 390 1446 390 
Q 1677 390 1894 557 
L 1971 557 
L 1779 77 
Q 1562 -64 1184 -64 
Q 922 -64 784 67 
Q 646 198 646 429 
Q 646 525 678 666 
L 1126 2445 
L 614 2445 
L 640 2554 
L 1011 2899 
L 1235 2899 
L 1338 3309 
L 1830 3712 
L 1946 3712 
L 1741 2899 
L 2406 2899 
z
" transform="scale(0.015625)"/>
      <path id="STIXGeneral-Italic-1d629" d="M 1990 4346 
L 1549 2592 
Q 1830 2816 2064 2889 
Q 2298 2963 2592 2963 
Q 2906 2963 3085 2803 
Q 3264 2643 3264 2342 
Q 3264 2208 3226 2054 
L 2714 0 
L 2208 0 
L 2688 1946 
Q 2720 2086 2720 2163 
Q 2720 2509 2304 2509 
Q 2118 2509 1833 2349 
Q 1549 2189 1389 1933 
L 909 0 
L 403 0 
L 1453 4224 
L 1939 4378 
L 1990 4346 
z
" transform="scale(0.015625)"/>
      <path id="STIXGeneral-Italic-1d62e" d="M 1619 2938 
L 1530 2573 
Q 1939 2963 2515 2963 
Q 3078 2963 3251 2547 
Q 3725 2963 4262 2963 
Q 4576 2963 4768 2796 
Q 4960 2630 4960 2310 
Q 4960 2176 4922 2016 
L 4422 0 
L 3930 0 
L 4397 1875 
Q 4435 2029 4435 2144 
Q 4435 2509 4045 2509 
Q 3872 2509 3584 2345 
Q 3296 2182 3149 1933 
L 2669 0 
L 2176 0 
L 2630 1856 
Q 2675 2061 2675 2144 
Q 2675 2509 2298 2509 
Q 2125 2509 1833 2349 
Q 1542 2189 1389 1933 
L 909 0 
L 416 0 
L 1114 2816 
L 1568 2970 
L 1619 2938 
z
" transform="scale(0.015625)"/>
      <path id="STIXGeneral-Italic-1d630" d="M 3430 1920 
Q 3430 1606 3299 1260 
Q 3168 915 2937 617 
Q 2707 320 2345 128 
Q 1984 -64 1568 -64 
Q 1062 -64 774 237 
Q 486 538 486 1024 
Q 486 1760 1027 2361 
Q 1568 2963 2304 2963 
Q 2829 2963 3129 2688 
Q 3430 2413 3430 1920 
z
M 2912 1805 
Q 2912 2138 2723 2323 
Q 2534 2509 2195 2509 
Q 1715 2509 1360 2080 
Q 1005 1651 1005 1133 
Q 1005 794 1187 592 
Q 1370 390 1690 390 
Q 1997 390 2246 556 
Q 2496 723 2633 960 
Q 2771 1197 2841 1421 
Q 2912 1645 2912 1805 
z
" transform="scale(0.015625)"/>
      <path id="STIXGeneral-Italic-1d625" d="M 3840 4346 
L 2957 819 
Q 2854 397 2816 83 
L 2317 -70 
L 2266 -38 
L 2330 282 
Q 1888 -64 1370 -64 
Q 954 -64 707 195 
Q 461 454 461 922 
Q 461 1722 1049 2342 
Q 1638 2963 2304 2963 
Q 2656 2963 2931 2726 
L 3302 4224 
L 3789 4378 
L 3840 4346 
z
M 2502 1011 
L 2778 2106 
Q 2605 2509 2214 2509 
Q 1798 2509 1395 2089 
Q 992 1670 992 1075 
Q 992 736 1161 563 
Q 1331 390 1613 390 
Q 1837 390 2080 560 
Q 2323 730 2502 1011 
z
" transform="scale(0.015625)"/>
      <path id="STIXGeneral-Italic-1d626" d="M 2579 1069 
L 2944 845 
Q 2586 358 2250 147 
Q 1914 -64 1453 -64 
Q 986 -64 714 201 
Q 442 467 442 947 
Q 442 1562 733 2035 
Q 1024 2509 1433 2736 
Q 1843 2963 2259 2963 
Q 2669 2963 2893 2742 
Q 3117 2522 3117 2138 
Q 3117 1952 3072 1773 
L 2982 1421 
L 1005 1421 
Q 960 1242 960 1075 
Q 960 749 1142 569 
Q 1325 390 1619 390 
Q 2125 390 2579 1069 
z
M 1203 1875 
L 2579 1875 
Q 2605 1978 2605 2086 
Q 2605 2509 2093 2509 
Q 1837 2509 1587 2349 
Q 1338 2189 1203 1875 
z
" transform="scale(0.015625)"/>
      <path id="STIXGeneral-Regular-3a" d="M 1123 2832 
Q 1229 2726 1229 2579 
Q 1229 2432 1126 2329 
Q 1024 2227 877 2227 
Q 730 2227 624 2332 
Q 518 2438 518 2579 
Q 518 2733 620 2835 
Q 723 2938 877 2938 
Q 1018 2938 1123 2832 
z
M 1229 282 
Q 1229 141 1126 35 
Q 1024 -70 877 -70 
Q 730 -70 624 35 
Q 518 141 518 282 
Q 518 435 620 537 
Q 723 640 877 640 
Q 1018 640 1123 534 
Q 1229 429 1229 282 
z
" transform="scale(0.015625)"/>
      <path id="STIXGeneral-Italic-1d639" d="M 3482 2899 
L 2202 1510 
L 2893 0 
L 2291 0 
L 1786 1120 
L 794 0 
L 192 0 
L 1600 1530 
L 986 2899 
L 1587 2899 
L 2022 1933 
L 2880 2899 
L 3482 2899 
z
" transform="scale(0.015625)"/>
      <path id="STIXGeneral-Regular-1d7e4" d="M 3002 454 
L 2816 0 
L 224 0 
L 224 134 
L 1344 1504 
L 1344 1498 
L 1702 1933 
Q 1952 2234 2054 2365 
Q 2157 2496 2253 2685 
Q 2349 2874 2349 3040 
Q 2349 3437 2134 3654 
Q 1920 3872 1549 3872 
Q 1254 3872 1008 3629 
Q 762 3386 698 2938 
L 237 3046 
Q 339 3616 716 3971 
Q 1094 4326 1594 4326 
Q 2150 4326 2502 3980 
Q 2854 3635 2854 3142 
Q 2854 2784 2720 2525 
Q 2586 2266 2157 1728 
L 1133 454 
L 3002 454 
z
" transform="scale(0.015625)"/>
     </defs>
     <use xlink:href="#STIXGeneral-Italic-1d614" transform="translate(0 0.446875)"/>
     <use xlink:href="#STIXGeneral-Italic-1d622" transform="translate(84.299988 0.446875)"/>
     <use xlink:href="#STIXGeneral-Italic-1d635" transform="translate(129.099976 0.446875)"/>
     <use xlink:href="#STIXGeneral-Italic-1d629" transform="translate(158.199966 0.446875)"/>
     <use xlink:href="#STIXGeneral-Italic-1d62e" transform="translate(232.099708 0.446875)"/>
     <use xlink:href="#STIXGeneral-Italic-1d630" transform="translate(307.699699 0.446875)"/>
     <use xlink:href="#STIXGeneral-Italic-1d625" transform="translate(357.599693 0.446875)"/>
     <use xlink:href="#STIXGeneral-Italic-1d626" transform="translate(406.999687 0.446875)"/>
     <use xlink:href="#STIXGeneral-Regular-3a" transform="translate(491.719424 0.446875)"/>
     <use xlink:href="#STIXGeneral-Italic-1d639" transform="translate(534.63941 0.446875)"/>
     <use xlink:href="#STIXGeneral-Regular-1d7e4" transform="translate(590.76636 36.684375) scale(0.7)"/>
    </g>
   </g>
   <g id="legend_1">
    <g id="patch_7">
     <path d="M 97 187.24 
L 158.3 187.24 
Q 160.3 187.24 160.3 185.24 
L 160.3 170.04 
Q 160.3 168.04 158.3 168.04 
L 97 168.04 
Q 95 168.04 95 170.04 
L 95 185.24 
Q 95 187.24 97 187.24 
z
" style="fill: #ffffff; opacity: 0.8; stroke: #cccccc; stroke-linejoin: miter"/>
    </g>
    <g id="line2d_24">
     <path d="M 99 177.64 
L 109 177.64 
L 119 177.64 
" style="fill: none; stroke-dasharray: 6.4,1.6,1,1.6; stroke-dashoffset: 0; stroke: #0000ff"/>
     <g>
      <use xlink:href="#m0faa232c7f" x="109" y="177.64" style="fill: #0000ff; stroke: #0000ff; stroke-linejoin: miter"/>
     </g>
    </g>
    <g id="text_15">
     <!-- $y=x^2$ -->
     <g transform="translate(127 181.14) scale(0.1 -0.1)">
      <defs>
       <path id="DejaVuSans-Oblique-79" d="M 1588 -325 
Q 1188 -997 936 -1164 
Q 684 -1331 294 -1331 
L -159 -1331 
L -63 -850 
L 269 -850 
Q 509 -850 678 -719 
Q 847 -588 1056 -206 
L 1234 128 
L 459 3500 
L 1069 3500 
L 1650 819 
L 3256 3500 
L 3859 3500 
L 1588 -325 
z
" transform="scale(0.015625)"/>
       <path id="DejaVuSans-3d" d="M 678 2906 
L 4684 2906 
L 4684 2381 
L 678 2381 
L 678 2906 
z
M 678 1631 
L 4684 1631 
L 4684 1100 
L 678 1100 
L 678 1631 
z
" transform="scale(0.015625)"/>
       <path id="DejaVuSans-Oblique-78" d="M 3841 3500 
L 2234 1784 
L 3219 0 
L 2559 0 
L 1819 1388 
L 531 0 
L -166 0 
L 1556 1844 
L 641 3500 
L 1300 3500 
L 1972 2234 
L 3144 3500 
L 3841 3500 
z
" transform="scale(0.015625)"/>
      </defs>
      <use xlink:href="#DejaVuSans-Oblique-79" transform="translate(0 0.765625)"/>
      <use xlink:href="#DejaVuSans-3d" transform="translate(78.662109 0.765625)"/>
      <use xlink:href="#DejaVuSans-Oblique-78" transform="translate(181.933594 0.765625)"/>
      <use xlink:href="#DejaVuSans-32" transform="translate(245.579427 39.046875) scale(0.7)"/>
     </g>
    </g>
   </g>
  </g>
  <g id="axes_2">
   <g id="patch_8">
    <path d="M 394.363636 192.24 
L 648 192.24 
L 648 25.92 
L 394.363636 25.92 
z
" style="fill: #ffffff"/>
   </g>
   <g id="matplotlib.axis_3">
    <g id="xtick_6">
     <g id="line2d_25">
      <path d="M 405.892562 192.24 
L 405.892562 25.92 
" clip-path="url(#pb3e0f7a95e)" style="fill: none; stroke: #b0b0b0; stroke-width: 0.8; stroke-linecap: square"/>
     </g>
     <g id="line2d_26">
      <g>
       <use xlink:href="#mf65586adbb" x="405.892562" y="192.24" style="stroke: #000000; stroke-width: 0.8"/>
      </g>
     </g>
     <g id="text_16">
      <!-- −10 -->
      <g transform="translate(395.340218 206.838437) scale(0.1 -0.1)">
       <use xlink:href="#DejaVuSans-2212"/>
       <use xlink:href="#DejaVuSans-31" x="83.789062"/>
       <use xlink:href="#DejaVuSans-30" x="147.412109"/>
      </g>
     </g>
    </g>
    <g id="xtick_7">
     <g id="line2d_27">
      <path d="M 463.53719 192.24 
L 463.53719 25.92 
" clip-path="url(#pb3e0f7a95e)" style="fill: none; stroke: #b0b0b0; stroke-width: 0.8; stroke-linecap: square"/>
     </g>
     <g id="line2d_28">
      <g>
       <use xlink:href="#mf65586adbb" x="463.53719" y="192.24" style="stroke: #000000; stroke-width: 0.8"/>
      </g>
     </g>
     <g id="text_17">
      <!-- −5 -->
      <g transform="translate(456.166096 206.838437) scale(0.1 -0.1)">
       <use xlink:href="#DejaVuSans-2212"/>
       <use xlink:href="#DejaVuSans-35" x="83.789062"/>
      </g>
     </g>
    </g>
    <g id="xtick_8">
     <g id="line2d_29">
      <path d="M 521.181818 192.24 
L 521.181818 25.92 
" clip-path="url(#pb3e0f7a95e)" style="fill: none; stroke: #b0b0b0; stroke-width: 0.8; stroke-linecap: square"/>
     </g>
     <g id="line2d_30">
      <g>
       <use xlink:href="#mf65586adbb" x="521.181818" y="192.24" style="stroke: #000000; stroke-width: 0.8"/>
      </g>
     </g>
     <g id="text_18">
      <!-- 0 -->
      <g transform="translate(518.000568 206.838437) scale(0.1 -0.1)">
       <use xlink:href="#DejaVuSans-30"/>
      </g>
     </g>
    </g>
    <g id="xtick_9">
     <g id="line2d_31">
      <path d="M 578.826446 192.24 
L 578.826446 25.92 
" clip-path="url(#pb3e0f7a95e)" style="fill: none; stroke: #b0b0b0; stroke-width: 0.8; stroke-linecap: square"/>
     </g>
     <g id="line2d_32">
      <g>
       <use xlink:href="#mf65586adbb" x="578.826446" y="192.24" style="stroke: #000000; stroke-width: 0.8"/>
      </g>
     </g>
     <g id="text_19">
      <!-- 5 -->
      <g transform="translate(575.645196 206.838437) scale(0.1 -0.1)">
       <use xlink:href="#DejaVuSans-35"/>
      </g>
     </g>
    </g>
    <g id="xtick_10">
     <g id="line2d_33">
      <path d="M 636.471074 192.24 
L 636.471074 25.92 
" clip-path="url(#pb3e0f7a95e)" style="fill: none; stroke: #b0b0b0; stroke-width: 0.8; stroke-linecap: square"/>
     </g>
     <g id="line2d_34">
      <g>
       <use xlink:href="#mf65586adbb" x="636.471074" y="192.24" style="stroke: #000000; stroke-width: 0.8"/>
      </g>
     </g>
     <g id="text_20">
      <!-- 10 -->
      <g transform="translate(630.108574 206.838437) scale(0.1 -0.1)">
       <use xlink:href="#DejaVuSans-31"/>
       <use xlink:href="#DejaVuSans-30" x="63.623047"/>
      </g>
     </g>
    </g>
    <g id="text_21">
     <!-- x -->
     <g transform="translate(518.222443 220.516562) scale(0.1 -0.1)">
      <use xlink:href="#DejaVuSans-78"/>
     </g>
    </g>
   </g>
   <g id="matplotlib.axis_4">
    <g id="ytick_7">
     <g id="line2d_35">
      <path d="M 394.363636 177.12 
L 648 177.12 
" clip-path="url(#pb3e0f7a95e)" style="fill: none; stroke: #b0b0b0; stroke-width: 0.8; stroke-linecap: square"/>
     </g>
     <g id="line2d_36">
      <g>
       <use xlink:href="#ma199923e59" x="394.363636" y="177.12" style="stroke: #000000; stroke-width: 0.8"/>
      </g>
     </g>
     <g id="text_22">
      <!-- −300 -->
      <g transform="translate(359.896449 180.919219) scale(0.1 -0.1)">
       <defs>
        <path id="DejaVuSans-33" d="M 2597 2516 
Q 3050 2419 3304 2112 
Q 3559 1806 3559 1356 
Q 3559 666 3084 287 
Q 2609 -91 1734 -91 
Q 1441 -91 1130 -33 
Q 819 25 488 141 
L 488 750 
Q 750 597 1062 519 
Q 1375 441 1716 441 
Q 2309 441 2620 675 
Q 2931 909 2931 1356 
Q 2931 1769 2642 2001 
Q 2353 2234 1838 2234 
L 1294 2234 
L 1294 2753 
L 1863 2753 
Q 2328 2753 2575 2939 
Q 2822 3125 2822 3475 
Q 2822 3834 2567 4026 
Q 2313 4219 1838 4219 
Q 1578 4219 1281 4162 
Q 984 4106 628 3988 
L 628 4550 
Q 988 4650 1302 4700 
Q 1616 4750 1894 4750 
Q 2613 4750 3031 4423 
Q 3450 4097 3450 3541 
Q 3450 3153 3228 2886 
Q 3006 2619 2597 2516 
z
" transform="scale(0.015625)"/>
       </defs>
       <use xlink:href="#DejaVuSans-2212"/>
       <use xlink:href="#DejaVuSans-33" x="83.789062"/>
       <use xlink:href="#DejaVuSans-30" x="147.412109"/>
       <use xlink:href="#DejaVuSans-30" x="211.035156"/>
      </g>
     </g>
    </g>
    <g id="ytick_8">
     <g id="line2d_37">
      <path d="M 394.363636 154.44 
L 648 154.44 
" clip-path="url(#pb3e0f7a95e)" style="fill: none; stroke: #b0b0b0; stroke-width: 0.8; stroke-linecap: square"/>
     </g>
     <g id="line2d_38">
      <g>
       <use xlink:href="#ma199923e59" x="394.363636" y="154.44" style="stroke: #000000; stroke-width: 0.8"/>
      </g>
     </g>
     <g id="text_23">
      <!-- −200 -->
      <g transform="translate(359.896449 158.239219) scale(0.1 -0.1)">
       <use xlink:href="#DejaVuSans-2212"/>
       <use xlink:href="#DejaVuSans-32" x="83.789062"/>
       <use xlink:href="#DejaVuSans-30" x="147.412109"/>
       <use xlink:href="#DejaVuSans-30" x="211.035156"/>
      </g>
     </g>
    </g>
    <g id="ytick_9">
     <g id="line2d_39">
      <path d="M 394.363636 131.76 
L 648 131.76 
" clip-path="url(#pb3e0f7a95e)" style="fill: none; stroke: #b0b0b0; stroke-width: 0.8; stroke-linecap: square"/>
     </g>
     <g id="line2d_40">
      <g>
       <use xlink:href="#ma199923e59" x="394.363636" y="131.76" style="stroke: #000000; stroke-width: 0.8"/>
      </g>
     </g>
     <g id="text_24">
      <!-- −100 -->
      <g transform="translate(359.896449 135.559219) scale(0.1 -0.1)">
       <use xlink:href="#DejaVuSans-2212"/>
       <use xlink:href="#DejaVuSans-31" x="83.789062"/>
       <use xlink:href="#DejaVuSans-30" x="147.412109"/>
       <use xlink:href="#DejaVuSans-30" x="211.035156"/>
      </g>
     </g>
    </g>
    <g id="ytick_10">
     <g id="line2d_41">
      <path d="M 394.363636 109.08 
L 648 109.08 
" clip-path="url(#pb3e0f7a95e)" style="fill: none; stroke: #b0b0b0; stroke-width: 0.8; stroke-linecap: square"/>
     </g>
     <g id="line2d_42">
      <g>
       <use xlink:href="#ma199923e59" x="394.363636" y="109.08" style="stroke: #000000; stroke-width: 0.8"/>
      </g>
     </g>
     <g id="text_25">
      <!-- 0 -->
      <g transform="translate(381.001136 112.879219) scale(0.1 -0.1)">
       <use xlink:href="#DejaVuSans-30"/>
      </g>
     </g>
    </g>
    <g id="ytick_11">
     <g id="line2d_43">
      <path d="M 394.363636 86.4 
L 648 86.4 
" clip-path="url(#pb3e0f7a95e)" style="fill: none; stroke: #b0b0b0; stroke-width: 0.8; stroke-linecap: square"/>
     </g>
     <g id="line2d_44">
      <g>
       <use xlink:href="#ma199923e59" x="394.363636" y="86.4" style="stroke: #000000; stroke-width: 0.8"/>
      </g>
     </g>
     <g id="text_26">
      <!-- 100 -->
      <g transform="translate(368.276136 90.199219) scale(0.1 -0.1)">
       <use xlink:href="#DejaVuSans-31"/>
       <use xlink:href="#DejaVuSans-30" x="63.623047"/>
       <use xlink:href="#DejaVuSans-30" x="127.246094"/>
      </g>
     </g>
    </g>
    <g id="ytick_12">
     <g id="line2d_45">
      <path d="M 394.363636 63.72 
L 648 63.72 
" clip-path="url(#pb3e0f7a95e)" style="fill: none; stroke: #b0b0b0; stroke-width: 0.8; stroke-linecap: square"/>
     </g>
     <g id="line2d_46">
      <g>
       <use xlink:href="#ma199923e59" x="394.363636" y="63.72" style="stroke: #000000; stroke-width: 0.8"/>
      </g>
     </g>
     <g id="text_27">
      <!-- 200 -->
      <g transform="translate(368.276136 67.519219) scale(0.1 -0.1)">
       <use xlink:href="#DejaVuSans-32"/>
       <use xlink:href="#DejaVuSans-30" x="63.623047"/>
       <use xlink:href="#DejaVuSans-30" x="127.246094"/>
      </g>
     </g>
    </g>
    <g id="ytick_13">
     <g id="line2d_47">
      <path d="M 394.363636 41.04 
L 648 41.04 
" clip-path="url(#pb3e0f7a95e)" style="fill: none; stroke: #b0b0b0; stroke-width: 0.8; stroke-linecap: square"/>
     </g>
     <g id="line2d_48">
      <g>
       <use xlink:href="#ma199923e59" x="394.363636" y="41.04" style="stroke: #000000; stroke-width: 0.8"/>
      </g>
     </g>
     <g id="text_28">
      <!-- 300 -->
      <g transform="translate(368.276136 44.839219) scale(0.1 -0.1)">
       <use xlink:href="#DejaVuSans-33"/>
       <use xlink:href="#DejaVuSans-30" x="63.623047"/>
       <use xlink:href="#DejaVuSans-30" x="127.246094"/>
      </g>
     </g>
    </g>
    <g id="text_29">
     <!-- y -->
     <g transform="translate(353.816761 112.039375) rotate(-90) scale(0.1 -0.1)">
      <use xlink:href="#DejaVuSans-79"/>
     </g>
    </g>
   </g>
   <g id="line2d_49">
    <path d="M 405.892562 184.68 
L 410.598246 175.795559 
L 415.30393 167.635959 
L 420.009614 160.170355 
L 424.715298 153.367904 
L 429.420982 147.19776 
L 434.126666 141.629081 
L 438.832349 136.63102 
L 443.538033 132.172735 
L 448.243717 128.223381 
L 452.949401 124.752113 
L 457.655085 121.728087 
L 462.360769 119.120459 
L 467.066453 116.898385 
L 471.772137 115.03102 
L 476.477821 113.487521 
L 481.183505 112.237042 
L 485.889189 111.248739 
L 490.594873 110.491769 
L 495.300557 109.935286 
L 500.006241 109.548448 
L 504.711924 109.300408 
L 509.417608 109.160324 
L 514.123292 109.09735 
L 518.828976 109.080643 
L 523.53466 109.079357 
L 528.240344 109.06265 
L 532.946028 108.999676 
L 537.651712 108.859592 
L 542.357396 108.611552 
L 547.06308 108.224714 
L 551.768764 107.668231 
L 556.474448 106.911261 
L 561.180132 105.922958 
L 565.885815 104.672479 
L 570.591499 103.12898 
L 575.297183 101.261615 
L 580.002867 99.039541 
L 584.708551 96.431913 
L 589.414235 93.407887 
L 594.119919 89.936619 
L 598.825603 85.987265 
L 603.531287 81.52898 
L 608.236971 76.530919 
L 612.942655 70.96224 
L 617.648339 64.792096 
L 622.354023 57.989645 
L 627.059707 50.524041 
L 631.76539 42.364441 
L 636.471074 33.48 
" clip-path="url(#pb3e0f7a95e)" style="fill: none; stroke-dasharray: 6.4,1.6,1,1.6; stroke-dashoffset: 0; stroke: #0000ff"/>
    <g clip-path="url(#pb3e0f7a95e)">
     <use xlink:href="#m0faa232c7f" x="405.892562" y="184.68" style="fill: #0000ff; stroke: #0000ff; stroke-linejoin: miter"/>
     <use xlink:href="#m0faa232c7f" x="410.598246" y="175.795559" style="fill: #0000ff; stroke: #0000ff; stroke-linejoin: miter"/>
     <use xlink:href="#m0faa232c7f" x="415.30393" y="167.635959" style="fill: #0000ff; stroke: #0000ff; stroke-linejoin: miter"/>
     <use xlink:href="#m0faa232c7f" x="420.009614" y="160.170355" style="fill: #0000ff; stroke: #0000ff; stroke-linejoin: miter"/>
     <use xlink:href="#m0faa232c7f" x="424.715298" y="153.367904" style="fill: #0000ff; stroke: #0000ff; stroke-linejoin: miter"/>
     <use xlink:href="#m0faa232c7f" x="429.420982" y="147.19776" style="fill: #0000ff; stroke: #0000ff; stroke-linejoin: miter"/>
     <use xlink:href="#m0faa232c7f" x="434.126666" y="141.629081" style="fill: #0000ff; stroke: #0000ff; stroke-linejoin: miter"/>
     <use xlink:href="#m0faa232c7f" x="438.832349" y="136.63102" style="fill: #0000ff; stroke: #0000ff; stroke-linejoin: miter"/>
     <use xlink:href="#m0faa232c7f" x="443.538033" y="132.172735" style="fill: #0000ff; stroke: #0000ff; stroke-linejoin: miter"/>
     <use xlink:href="#m0faa232c7f" x="448.243717" y="128.223381" style="fill: #0000ff; stroke: #0000ff; stroke-linejoin: miter"/>
     <use xlink:href="#m0faa232c7f" x="452.949401" y="124.752113" style="fill: #0000ff; stroke: #0000ff; stroke-linejoin: miter"/>
     <use xlink:href="#m0faa232c7f" x="457.655085" y="121.728087" style="fill: #0000ff; stroke: #0000ff; stroke-linejoin: miter"/>
     <use xlink:href="#m0faa232c7f" x="462.360769" y="119.120459" style="fill: #0000ff; stroke: #0000ff; stroke-linejoin: miter"/>
     <use xlink:href="#m0faa232c7f" x="467.066453" y="116.898385" style="fill: #0000ff; stroke: #0000ff; stroke-linejoin: miter"/>
     <use xlink:href="#m0faa232c7f" x="471.772137" y="115.03102" style="fill: #0000ff; stroke: #0000ff; stroke-linejoin: miter"/>
     <use xlink:href="#m0faa232c7f" x="476.477821" y="113.487521" style="fill: #0000ff; stroke: #0000ff; stroke-linejoin: miter"/>
     <use xlink:href="#m0faa232c7f" x="481.183505" y="112.237042" style="fill: #0000ff; stroke: #0000ff; stroke-linejoin: miter"/>
     <use xlink:href="#m0faa232c7f" x="485.889189" y="111.248739" style="fill: #0000ff; stroke: #0000ff; stroke-linejoin: miter"/>
     <use xlink:href="#m0faa232c7f" x="490.594873" y="110.491769" style="fill: #0000ff; stroke: #0000ff; stroke-linejoin: miter"/>
     <use xlink:href="#m0faa232c7f" x="495.300557" y="109.935286" style="fill: #0000ff; stroke: #0000ff; stroke-linejoin: miter"/>
     <use xlink:href="#m0faa232c7f" x="500.006241" y="109.548448" style="fill: #0000ff; stroke: #0000ff; stroke-linejoin: miter"/>
     <use xlink:href="#m0faa232c7f" x="504.711924" y="109.300408" style="fill: #0000ff; stroke: #0000ff; stroke-linejoin: miter"/>
     <use xlink:href="#m0faa232c7f" x="509.417608" y="109.160324" style="fill: #0000ff; stroke: #0000ff; stroke-linejoin: miter"/>
     <use xlink:href="#m0faa232c7f" x="514.123292" y="109.09735" style="fill: #0000ff; stroke: #0000ff; stroke-linejoin: miter"/>
     <use xlink:href="#m0faa232c7f" x="518.828976" y="109.080643" style="fill: #0000ff; stroke: #0000ff; stroke-linejoin: miter"/>
     <use xlink:href="#m0faa232c7f" x="523.53466" y="109.079357" style="fill: #0000ff; stroke: #0000ff; stroke-linejoin: miter"/>
     <use xlink:href="#m0faa232c7f" x="528.240344" y="109.06265" style="fill: #0000ff; stroke: #0000ff; stroke-linejoin: miter"/>
     <use xlink:href="#m0faa232c7f" x="532.946028" y="108.999676" style="fill: #0000ff; stroke: #0000ff; stroke-linejoin: miter"/>
     <use xlink:href="#m0faa232c7f" x="537.651712" y="108.859592" style="fill: #0000ff; stroke: #0000ff; stroke-linejoin: miter"/>
     <use xlink:href="#m0faa232c7f" x="542.357396" y="108.611552" style="fill: #0000ff; stroke: #0000ff; stroke-linejoin: miter"/>
     <use xlink:href="#m0faa232c7f" x="547.06308" y="108.224714" style="fill: #0000ff; stroke: #0000ff; stroke-linejoin: miter"/>
     <use xlink:href="#m0faa232c7f" x="551.768764" y="107.668231" style="fill: #0000ff; stroke: #0000ff; stroke-linejoin: miter"/>
     <use xlink:href="#m0faa232c7f" x="556.474448" y="106.911261" style="fill: #0000ff; stroke: #0000ff; stroke-linejoin: miter"/>
     <use xlink:href="#m0faa232c7f" x="561.180132" y="105.922958" style="fill: #0000ff; stroke: #0000ff; stroke-linejoin: miter"/>
     <use xlink:href="#m0faa232c7f" x="565.885815" y="104.672479" style="fill: #0000ff; stroke: #0000ff; stroke-linejoin: miter"/>
     <use xlink:href="#m0faa232c7f" x="570.591499" y="103.12898" style="fill: #0000ff; stroke: #0000ff; stroke-linejoin: miter"/>
     <use xlink:href="#m0faa232c7f" x="575.297183" y="101.261615" style="fill: #0000ff; stroke: #0000ff; stroke-linejoin: miter"/>
     <use xlink:href="#m0faa232c7f" x="580.002867" y="99.039541" style="fill: #0000ff; stroke: #0000ff; stroke-linejoin: miter"/>
     <use xlink:href="#m0faa232c7f" x="584.708551" y="96.431913" style="fill: #0000ff; stroke: #0000ff; stroke-linejoin: miter"/>
     <use xlink:href="#m0faa232c7f" x="589.414235" y="93.407887" style="fill: #0000ff; stroke: #0000ff; stroke-linejoin: miter"/>
     <use xlink:href="#m0faa232c7f" x="594.119919" y="89.936619" style="fill: #0000ff; stroke: #0000ff; stroke-linejoin: miter"/>
     <use xlink:href="#m0faa232c7f" x="598.825603" y="85.987265" style="fill: #0000ff; stroke: #0000ff; stroke-linejoin: miter"/>
     <use xlink:href="#m0faa232c7f" x="603.531287" y="81.52898" style="fill: #0000ff; stroke: #0000ff; stroke-linejoin: miter"/>
     <use xlink:href="#m0faa232c7f" x="608.236971" y="76.530919" style="fill: #0000ff; stroke: #0000ff; stroke-linejoin: miter"/>
     <use xlink:href="#m0faa232c7f" x="612.942655" y="70.96224" style="fill: #0000ff; stroke: #0000ff; stroke-linejoin: miter"/>
     <use xlink:href="#m0faa232c7f" x="617.648339" y="64.792096" style="fill: #0000ff; stroke: #0000ff; stroke-linejoin: miter"/>
     <use xlink:href="#m0faa232c7f" x="622.354023" y="57.989645" style="fill: #0000ff; stroke: #0000ff; stroke-linejoin: miter"/>
     <use xlink:href="#m0faa232c7f" x="627.059707" y="50.524041" style="fill: #0000ff; stroke: #0000ff; stroke-linejoin: miter"/>
     <use xlink:href="#m0faa232c7f" x="631.76539" y="42.364441" style="fill: #0000ff; stroke: #0000ff; stroke-linejoin: miter"/>
     <use xlink:href="#m0faa232c7f" x="636.471074" y="33.48" style="fill: #0000ff; stroke: #0000ff; stroke-linejoin: miter"/>
    </g>
   </g>
   <g id="patch_9">
    <path d="M 394.363636 192.24 
L 394.363636 25.92 
" style="fill: none; stroke: #000000; stroke-width: 0.8; stroke-linejoin: miter; stroke-linecap: square"/>
   </g>
   <g id="patch_10">
    <path d="M 648 192.24 
L 648 25.92 
" style="fill: none; stroke: #000000; stroke-width: 0.8; stroke-linejoin: miter; stroke-linecap: square"/>
   </g>
   <g id="patch_11">
    <path d="M 394.363636 192.24 
L 648 192.24 
" style="fill: none; stroke: #000000; stroke-width: 0.8; stroke-linejoin: miter; stroke-linecap: square"/>
   </g>
   <g id="patch_12">
    <path d="M 394.363636 25.92 
L 648 25.92 
" style="fill: none; stroke: #000000; stroke-width: 0.8; stroke-linejoin: miter; stroke-linecap: square"/>
   </g>
   <g id="text_30">
    <!-- Título em cursivo $\int x^2 dx$ -->
    <g transform="translate(446.701818 19.92) scale(0.14 -0.14)">
     <defs>
      <path id="ComicSansMS-54" d="M 4256 3947 
Q 4025 3947 3544 3984 
Q 3075 4019 2831 4016 
L 2609 4016 
Q 2619 3584 2694 2616 
Q 2763 1713 2763 1213 
Q 2763 1103 2784 881 
Q 2806 659 2806 547 
Q 2806 334 2738 181 
Q 2650 -25 2466 -25 
Q 2341 -25 2241 62 
Q 2141 150 2141 288 
Q 2141 334 2156 428 
Q 2172 522 2172 569 
Q 2172 722 2151 1028 
Q 2131 1334 2131 1491 
Q 2131 1938 2059 2747 
Q 1984 3622 1975 4003 
L 1691 4000 
Q 1006 4000 616 4100 
Q 363 4166 363 4409 
Q 363 4538 444 4634 
Q 538 4744 684 4734 
Q 794 4728 1184 4678 
Q 1497 4641 1691 4641 
Q 1878 4641 2259 4648 
Q 2641 4656 2828 4656 
Q 3069 4656 3542 4622 
Q 4016 4588 4256 4588 
Q 4391 4588 4481 4495 
Q 4572 4403 4572 4266 
Q 4572 4131 4481 4039 
Q 4391 3947 4256 3947 
z
" transform="scale(0.015625)"/>
      <path id="ComicSansMS-ed" d="M 1172 1419 
Q 1172 1231 1183 857 
Q 1194 484 1194 297 
Q 1194 159 1109 71 
Q 1025 -16 888 -16 
Q 753 -16 667 71 
Q 581 159 581 297 
Q 581 484 570 857 
Q 559 1231 559 1419 
Q 559 1713 590 2152 
Q 622 2591 622 2884 
Q 622 3025 708 3112 
Q 794 3200 928 3200 
Q 1063 3200 1148 3112 
Q 1234 3025 1234 2884 
Q 1234 2591 1203 2152 
Q 1172 1713 1172 1419 
z
M 582 3709 
Q 470 3709 384 3796 
Q 298 3884 298 3997 
Q 298 4103 395 4200 
Q 529 4331 804 4697 
Q 1010 4966 1263 5144 
Q 1348 5203 1429 5203 
Q 1541 5203 1625 5114 
Q 1710 5025 1710 4913 
Q 1710 4788 1591 4694 
Q 1373 4519 1170 4241 
Q 957 3947 766 3788 
Q 679 3709 582 3709 
z
" transform="scale(0.015625)"/>
      <path id="ComicSansMS-74" d="M 2525 2663 
Q 2459 2663 2370 2669 
Q 2281 2675 2216 2675 
Q 2144 2675 1791 2628 
L 1850 781 
L 1853 644 
L 1856 484 
Q 1869 -200 1528 -200 
Q 1403 -200 1311 -119 
Q 1219 -38 1219 84 
Q 1219 203 1228 440 
Q 1238 678 1238 797 
L 1175 2622 
Q 947 2631 481 2675 
Q 203 2713 203 2984 
Q 203 3122 287 3212 
Q 372 3303 503 3303 
L 1159 3250 
Q 1159 3409 1145 3676 
Q 1131 3944 1131 4063 
Q 1131 4194 1222 4280 
Q 1313 4366 1444 4366 
Q 1725 4366 1772 3906 
Q 1781 3791 1781 3628 
L 1775 3447 
L 1772 3253 
Q 2159 3303 2216 3303 
Q 2541 3303 2641 3272 
Q 2831 3209 2831 2978 
Q 2831 2841 2745 2752 
Q 2659 2663 2525 2663 
z
" transform="scale(0.015625)"/>
      <path id="ComicSansMS-75" d="M 2984 1825 
Q 2984 1600 2987 1150 
Q 2991 700 2991 475 
Q 2991 406 3002 265 
Q 3013 125 3013 56 
Q 3013 -78 2922 -164 
Q 2831 -250 2700 -250 
Q 2459 -250 2394 47 
Q 2003 -156 1494 -156 
Q 1084 -156 816 25 
Q 519 225 463 609 
Q 341 1438 341 2084 
Q 341 2513 434 3059 
Q 478 3331 731 3331 
Q 866 3331 956 3245 
Q 1047 3159 1047 3025 
Q 1047 2881 1001 2565 
Q 956 2250 956 2084 
Q 956 1563 990 1191 
Q 1025 819 1094 594 
Q 1197 538 1297 508 
Q 1397 478 1494 478 
Q 1913 478 2378 613 
L 2375 1247 
L 2369 1853 
Q 2369 2528 2428 3025 
Q 2463 3313 2731 3313 
Q 2866 3313 2956 3225 
Q 3047 3138 3041 3006 
L 2984 1825 
z
" transform="scale(0.015625)"/>
      <path id="ComicSansMS-6c" d="M 1228 2456 
L 1181 903 
Q 1181 656 1156 178 
Q 1125 -134 850 -134 
Q 544 -134 544 184 
Q 544 563 578 1320 
Q 613 2078 613 2456 
Q 613 2950 628 3586 
Q 644 4222 644 4716 
Q 644 5028 950 5028 
Q 1259 5028 1259 4716 
Q 1259 4222 1243 3586 
Q 1228 2950 1228 2456 
z
" transform="scale(0.015625)"/>
      <path id="ComicSansMS-6f" d="M 1606 -184 
Q 1081 -184 703 203 
Q 281 634 259 1363 
Q 241 2069 616 2606 
Q 1053 3241 1834 3241 
Q 2459 3241 2781 2669 
Q 3038 2206 3028 1556 
Q 3019 863 2666 372 
Q 2266 -184 1606 -184 
z
M 1794 2606 
Q 1334 2609 1078 2169 
Q 875 1816 875 1363 
Q 875 909 1122 656 
Q 1328 447 1606 447 
Q 1931 447 2166 684 
Q 2431 947 2447 1394 
Q 2491 2603 1794 2606 
z
" transform="scale(0.015625)"/>
      <path id="ComicSansMS-20" transform="scale(0.015625)"/>
      <path id="ComicSansMS-65" d="M 1894 -144 
Q 1188 -144 750 209 
Q 272 600 272 1303 
Q 272 2116 666 2666 
Q 1094 3266 1809 3266 
Q 2328 3266 2656 3091 
Q 3059 2875 3059 2428 
Q 3059 2116 2706 1859 
Q 2550 1747 2044 1509 
L 850 944 
Q 1025 684 1286 553 
Q 1547 422 1894 422 
Q 2109 422 2400 503 
Q 2769 606 2875 773 
Q 2981 941 3103 941 
Q 3213 941 3298 858 
Q 3384 775 3384 666 
Q 3384 319 2825 69 
Q 2347 -144 1894 -144 
z
M 1809 2703 
Q 1428 2703 1175 2408 
Q 922 2113 797 1519 
L 1756 1975 
Q 2322 2250 2563 2453 
Q 2294 2703 1809 2703 
z
" transform="scale(0.015625)"/>
      <path id="ComicSansMS-6d" d="M 4403 -259 
Q 4147 -259 4103 13 
Q 4047 356 3991 981 
L 3884 1950 
Q 3853 2166 3778 2372 
Q 3672 2653 3547 2653 
Q 3431 2653 3116 2456 
Q 2816 2275 2722 2166 
Q 2719 1872 2738 1578 
L 2831 744 
Q 2891 250 2891 -72 
Q 2891 -209 2805 -298 
Q 2719 -388 2584 -388 
Q 2450 -388 2364 -298 
Q 2278 -209 2278 -72 
Q 2278 306 2201 1045 
Q 2125 1784 2125 2163 
Q 2125 2494 2031 2678 
Q 1813 2578 1588 2353 
L 1219 1941 
Q 1169 1866 1059 1744 
Q 1059 1556 1025 1190 
Q 991 825 991 650 
Q 991 556 1020 387 
Q 1050 219 1050 144 
Q 1050 16 954 -71 
Q 859 -159 731 -159 
Q 378 -159 378 644 
Q 378 831 412 1203 
Q 447 1575 447 1763 
Q 447 1928 417 2259 
Q 388 2591 388 2759 
Q 388 3469 706 3469 
Q 828 3469 929 3362 
Q 1031 3256 1031 3131 
Q 1031 3072 1015 2947 
Q 1000 2822 1000 2756 
L 1006 2428 
Q 1169 2763 1484 3033 
Q 1800 3303 2022 3303 
Q 2513 3303 2697 2816 
Q 2869 3044 3106 3158 
Q 3344 3272 3650 3272 
Q 4172 3272 4363 2709 
Q 4400 2597 4491 1831 
Q 4578 1294 4716 41 
Q 4725 -84 4631 -171 
Q 4538 -259 4403 -259 
z
" transform="scale(0.015625)"/>
      <path id="ComicSansMS-63" d="M 1847 -197 
Q 1206 -197 778 191 
Q 328 597 328 1263 
Q 328 1897 750 2572 
Q 1219 3322 1806 3322 
Q 2113 3322 2491 3178 
Q 2969 2994 2969 2728 
Q 2969 2609 2891 2517 
Q 2813 2425 2697 2425 
Q 2606 2425 2539 2479 
Q 2472 2534 2409 2588 
Q 2225 2734 1806 2734 
Q 1488 2734 1175 2166 
Q 891 1644 891 1263 
Q 891 850 1172 613 
Q 1434 391 1847 391 
Q 2034 391 2247 491 
L 2609 684 
Q 2703 734 2744 734 
Q 2859 734 2943 642 
Q 3028 550 3028 431 
Q 3028 203 2547 -9 
Q 2125 -197 1847 -197 
z
" transform="scale(0.015625)"/>
      <path id="ComicSansMS-72" d="M 2866 2309 
Q 2844 1919 2553 1919 
Q 2284 1919 2284 2228 
Q 2284 2288 2275 2447 
L 2266 2709 
Q 1772 2650 1475 2431 
Q 1197 2228 1013 1819 
L 1019 106 
Q 1019 -209 709 -209 
Q 434 -209 434 106 
L 434 2300 
Q 434 2403 442 2609 
Q 450 2816 450 2919 
Q 450 3234 725 3234 
Q 1031 3234 1034 2716 
Q 1634 3294 2366 3294 
Q 2619 3294 2744 3103 
Q 2869 2913 2869 2528 
Q 2869 2366 2866 2309 
z
" transform="scale(0.015625)"/>
      <path id="ComicSansMS-73" d="M 2544 2406 
Q 2372 2406 2303 2522 
Q 2256 2603 2222 2859 
Q 1988 2800 1500 2641 
Q 997 2441 994 2147 
Q 1088 2113 1178 2097 
Q 1897 1969 2247 1744 
Q 2756 1416 2756 794 
Q 2756 284 2316 25 
Q 1950 -188 1391 -188 
Q 981 -188 609 -50 
Q 128 125 128 438 
Q 128 563 226 656 
Q 325 750 450 750 
Q 547 750 700 600 
Q 775 528 1038 481 
Q 1247 444 1391 444 
Q 1653 444 1853 506 
Q 2144 597 2144 794 
Q 2144 1219 1550 1369 
L 1225 1441 
Q 809 1531 634 1653 
Q 381 1828 381 2181 
Q 381 2834 997 3113 
Q 1184 3197 1596 3314 
Q 2009 3431 2188 3513 
Q 2316 3569 2466 3569 
Q 2600 3569 2686 3481 
Q 2772 3394 2772 3253 
Q 2772 3163 2811 2988 
Q 2850 2813 2850 2722 
Q 2850 2581 2764 2493 
Q 2678 2406 2544 2406 
z
" transform="scale(0.015625)"/>
      <path id="ComicSansMS-69" d="M 1031 3956 
Q 881 3956 772 4062 
Q 663 4169 663 4319 
Q 663 4469 772 4575 
Q 881 4681 1031 4681 
Q 1181 4681 1289 4575 
Q 1397 4469 1397 4319 
Q 1397 4169 1289 4062 
Q 1181 3956 1031 3956 
z
M 1172 1419 
Q 1172 1231 1183 857 
Q 1194 484 1194 297 
Q 1194 159 1109 71 
Q 1025 -16 888 -16 
Q 753 -16 667 71 
Q 581 159 581 297 
Q 581 484 570 857 
Q 559 1231 559 1419 
Q 559 1713 590 2152 
Q 622 2591 622 2884 
Q 622 3025 708 3112 
Q 794 3200 928 3200 
Q 1063 3200 1148 3112 
Q 1234 3025 1234 2884 
Q 1234 2591 1203 2152 
Q 1172 1713 1172 1419 
z
" transform="scale(0.015625)"/>
      <path id="ComicSansMS-76" d="M 1875 163 
Q 1866 -125 1591 -125 
Q 1363 -125 1259 144 
L 781 1413 
L 225 2847 
Q 194 2928 194 2991 
Q 194 3119 291 3209 
Q 388 3300 516 3300 
Q 703 3300 784 3109 
L 1578 925 
Q 1813 1425 2169 2375 
Q 2253 2625 2434 3081 
Q 2531 3281 2709 3281 
Q 2838 3281 2934 3190 
Q 3031 3100 3031 2975 
Q 3031 2856 2516 1638 
L 1875 163 
z
" transform="scale(0.015625)"/>
      <path id="STIXGeneral-Regular-222b" d="M 1306 -794 
L 2470 3878 
Q 2816 5274 3674 5274 
Q 3859 5274 3974 5190 
Q 4090 5107 4090 4986 
Q 4090 4826 3990 4717 
Q 3891 4608 3757 4608 
Q 3558 4608 3558 4762 
Q 3558 4858 3616 4934 
Q 3674 5011 3674 5024 
Q 3674 5075 3603 5075 
Q 3379 5075 3238 4796 
Q 3098 4518 2957 3942 
L 1786 -755 
Q 1728 -979 1645 -1180 
Q 1562 -1382 1427 -1590 
Q 1293 -1798 1085 -1923 
Q 877 -2048 621 -2048 
Q 435 -2048 320 -1965 
Q 205 -1882 205 -1760 
Q 205 -1600 304 -1491 
Q 403 -1382 538 -1382 
Q 614 -1382 675 -1427 
Q 736 -1472 736 -1549 
Q 736 -1658 678 -1718 
Q 621 -1779 621 -1798 
Q 621 -1850 691 -1850 
Q 902 -1850 1036 -1590 
Q 1171 -1331 1306 -794 
z
" transform="scale(0.015625)"/>
     </defs>
     <use xlink:href="#ComicSansMS-54" transform="translate(0 0.446875)"/>
     <use xlink:href="#ComicSansMS-ed" transform="translate(67.96875 0.446875)"/>
     <use xlink:href="#ComicSansMS-74" transform="translate(95.996094 0.446875)"/>
     <use xlink:href="#ComicSansMS-75" transform="translate(143.115234 0.446875)"/>
     <use xlink:href="#ComicSansMS-6c" transform="translate(195.117188 0.446875)"/>
     <use xlink:href="#ComicSansMS-6f" transform="translate(222.509766 0.446875)"/>
     <use xlink:href="#ComicSansMS-20" transform="translate(275.097656 0.446875)"/>
     <use xlink:href="#ComicSansMS-65" transform="translate(304.980469 0.446875)"/>
     <use xlink:href="#ComicSansMS-6d" transform="translate(359.765625 0.446875)"/>
     <use xlink:href="#ComicSansMS-20" transform="translate(437.451172 0.446875)"/>
     <use xlink:href="#ComicSansMS-63" transform="translate(467.333984 0.446875)"/>
     <use xlink:href="#ComicSansMS-75" transform="translate(518.701172 0.446875)"/>
     <use xlink:href="#ComicSansMS-72" transform="translate(570.703125 0.446875)"/>
     <use xlink:href="#ComicSansMS-73" transform="translate(618.75 0.446875)"/>
     <use xlink:href="#ComicSansMS-69" transform="translate(667.431641 0.446875)"/>
     <use xlink:href="#ComicSansMS-76" transform="translate(695.458984 0.446875)"/>
     <use xlink:href="#ComicSansMS-6f" transform="translate(744.091797 0.446875)"/>
     <use xlink:href="#ComicSansMS-20" transform="translate(796.679688 0.446875)"/>
     <use xlink:href="#STIXGeneral-Regular-222b" transform="translate(826.5625 0.446875)"/>
     <use xlink:href="#STIXGeneral-Italic-1d639" transform="translate(872.462494 0.446875)"/>
     <use xlink:href="#STIXGeneral-Regular-1d7e4" transform="translate(928.589444 36.684375) scale(0.7)"/>
     <use xlink:href="#STIXGeneral-Italic-1d625" transform="translate(965.854277 0.446875)"/>
     <use xlink:href="#STIXGeneral-Italic-1d639" transform="translate(1015.254271 0.446875)"/>
    </g>
   </g>
   <g id="legend_2">
    <g id="patch_13">
     <path d="M 401.363636 50.12 
L 478.763636 50.12 
Q 480.763636 50.12 480.763636 48.12 
L 480.763636 32.92 
Q 480.763636 30.92 478.763636 30.92 
L 401.363636 30.92 
Q 399.363636 30.92 399.363636 32.92 
L 399.363636 48.12 
Q 399.363636 50.12 401.363636 50.12 
z
" style="fill: #ffffff; opacity: 0.8; stroke: #cccccc; stroke-linejoin: miter"/>
    </g>
    <g id="line2d_50">
     <path d="M 403.363636 40.52 
L 413.363636 40.52 
L 423.363636 40.52 
" style="fill: none; stroke-dasharray: 6.4,1.6,1,1.6; stroke-dashoffset: 0; stroke: #0000ff"/>
     <g>
      <use xlink:href="#m0faa232c7f" x="413.363636" y="40.52" style="fill: #0000ff; stroke: #0000ff; stroke-linejoin: miter"/>
     </g>
    </g>
    <g id="text_31">
     <!-- $y=1/3x^3$ -->
     <g transform="translate(431.363636 44.02) scale(0.1 -0.1)">
      <defs>
       <path id="DejaVuSans-2f" d="M 1625 4666 
L 2156 4666 
L 531 -594 
L 0 -594 
L 1625 4666 
z
" transform="scale(0.015625)"/>
      </defs>
      <use xlink:href="#DejaVuSans-Oblique-79" transform="translate(0 0.765625)"/>
      <use xlink:href="#DejaVuSans-3d" transform="translate(78.662109 0.765625)"/>
      <use xlink:href="#DejaVuSans-31" transform="translate(181.933594 0.765625)"/>
      <use xlink:href="#DejaVuSans-2f" transform="translate(245.556641 0.765625)"/>
      <use xlink:href="#DejaVuSans-33" transform="translate(279.248047 0.765625)"/>
      <use xlink:href="#DejaVuSans-Oblique-78" transform="translate(342.871094 0.765625)"/>
      <use xlink:href="#DejaVuSans-33" transform="translate(406.516927 39.046875) scale(0.7)"/>
     </g>
    </g>
   </g>
  </g>
 </g>
 <defs>
  <clipPath id="p86a6bba81f">
   <rect x="90" y="25.92" width="253.636364" height="166.32"/>
  </clipPath>
  <clipPath id="pb3e0f7a95e">
   <rect x="394.363636" y="25.92" width="253.636364" height="166.32"/>
  </clipPath>
 </defs>
</svg>
